<?xml version="1.0" encoding="UTF-8"?>
<svg id="Layer_1" data-name="Layer 1" xmlns="http://www.w3.org/2000/svg" viewBox="0 0 429.86 110.69">
  <defs>
    <style>
      .cls-1 {
        fill: #13429a;
        stroke: #13429a;
        stroke-miterlimit: 10;
        stroke-width: 4px;
      }
    </style>
  </defs>
  <path class="cls-1" d="m60.72,3.73l14.88,30.14c.45.92,1.33,1.55,2.34,1.7l33.26,4.83c2.55.37,3.57,3.5,1.72,5.3l-24.07,23.46c-.73.71-1.07,1.74-.89,2.75l5.68,33.13c.44,2.54-2.23,4.47-4.51,3.28l-29.75-15.64c-.91-.48-1.99-.48-2.89,0l-29.75,15.64c-2.28,1.2-4.94-.74-4.51-3.28l5.68-33.13c.17-1.01-.16-2.04-.89-2.75L2.94,45.71c-1.84-1.8-.83-4.93,1.72-5.3l33.26-4.83c1.01-.15,1.89-.78,2.34-1.7L55.15,3.73c1.14-2.31,4.43-2.31,5.57,0Z"/>
  <path class="cls-1" d="m217.72,3.73l14.88,30.14c.45.92,1.33,1.55,2.34,1.7l33.26,4.83c2.55.37,3.57,3.5,1.72,5.3l-24.07,23.46c-.73.71-1.07,1.74-.89,2.75l5.68,33.13c.44,2.54-2.23,4.47-4.51,3.28l-29.75-15.64c-.91-.48-1.99-.48-2.89,0l-29.75,15.64c-2.28,1.2-4.94-.74-4.51-3.28l5.68-33.13c.17-1.01-.16-2.04-.89-2.75l-24.07-23.46c-1.84-1.8-.83-4.93,1.72-5.3l33.26-4.83c1.01-.15,1.89-.78,2.34-1.7l14.88-30.14c1.14-2.31,4.43-2.31,5.57,0Z"/>
  <path class="cls-1" d="m374.72,3.73l14.88,30.14c.45.92,1.33,1.55,2.34,1.7l33.26,4.83c2.55.37,3.57,3.5,1.72,5.3l-24.07,23.46c-.73.71-1.07,1.74-.89,2.75l5.68,33.13c.44,2.54-2.23,4.47-4.51,3.28l-29.75-15.64c-.91-.48-1.99-.48-2.89,0l-29.75,15.64c-2.28,1.2-4.94-.74-4.51-3.28l5.68-33.13c.17-1.01-.16-2.04-.89-2.75l-24.07-23.46c-1.84-1.8-.83-4.93,1.72-5.3l33.26-4.83c1.01-.15,1.89-.78,2.34-1.7l14.88-30.14c1.14-2.31,4.43-2.31,5.57,0Z"/>
</svg>