<?xml version="1.0" encoding="UTF-8"?>
<svg id="Layer_1" data-name="Layer 1" xmlns="http://www.w3.org/2000/svg" viewBox="0 0 181.61 322.07">
  <defs>
    <style>
      .cls-1 {
        fill: none;
      }

      .cls-1, .cls-2, .cls-3 {
        stroke: #13429a;
        stroke-miterlimit: 10;
      }

      .cls-1, .cls-3 {
        stroke-width: 6px;
      }

      .cls-2 {
        stroke-width: 4px;
      }

      .cls-2, .cls-3 {
        fill: #13429a;
      }
    </style>
  </defs>
  <path class="cls-1" d="m73.87,321.03s-38.98-104.6-3.74-115.55c23.79-7.39,12.83-85.02-8.5-131.59-10.26-22.4-22.92-37.61-35.26-34.36"/>
  <path class="cls-2" d="m88.87,44.03c21.03,5.26-11.89,34.72-20.01,41.65-.74.63-1.88.16-1.96-.81-.82-9.7-2.41-46.94,21.98-40.84Z"/>
  <path class="cls-2" d="m47.46,43.36S25.87-24.97,5.87,14.03s49.1,46.97,49.1,46.97l-7.51-17.64Z"/>
  <path class="cls-2" d="m75.11,112.36s-21.24-43.34-34.24-18.34,0,31.1,0,31.1c0,0,38.56-3.96,40.28,15.97"/>
  <path class="cls-2" d="m83.56,153.96s26.31,6.07,68.31-26.93c27.6-21.69,29.22-3.05,27.09,12.28-1.25,9-8.02,16.24-16.92,18.07-22.94,4.71-67.28,12.49-73.17,3.65-8-12-5.31,19.63-5.31,19.63"/>
  <path class="cls-2" d="m80.24,130.79l19.63-37.76s23-26,21,5-41.26,22.52-40.63,32.76Z"/>
  <path class="cls-3" d="m51.35,223.17c3.86-1.42,4.68-6.52,1.46-9.07-11.95-9.46-35.73-25.67-44.72-12.89-2.8,3.97-4.27,8.11-4.89,12.12-2.02,13.21,11.2,23.6,23.7,18.86l24.45-9.02Z"/>
  <path class="cls-3" d="m73.97,202.27c0,.07-.09.09-.12.03-1.39-2.41-15.48-26.42-24.98-29.27-7.48-2.24-12.5-28.38,7.25-23.19,18.95,4.98,17.96,48.9,17.85,52.43Z"/>
</svg>