<svg width="228" height="187" viewBox="0 0 228 187" fill="none" xmlns="http://www.w3.org/2000/svg">
<g clip-path="url(#clip0_504_2528)">
<path d="M4.39014 66.9345L93.8916 163.789L197.994 102.291L173.106 80.0129C173.106 80.0129 162.635 79.7329 160.384 77.3888C158.582 75.5128 158.689 67.111 158.689 67.111L99.6544 14.2754L4.39014 66.9345Z" stroke="#003F9E" stroke-width="5" stroke-miterlimit="10"/>
<path d="M54.7907 82.5645C54.7907 82.5645 53.3337 71.9875 55.8911 70.2495C59.7291 67.6408 69.4565 77.4314 73.6894 75.5285C76.5574 74.2356 74.3182 65.6381 76.3273 63.2135C78.0336 61.1533 84.567 62.8068 86.8752 61.4526C88.5277 60.4819 88.8038 55.7132 90.3911 54.6352C92.3044 53.3385 97.3694 55.8322 99.62 55.2951C103.631 54.3398 111.928 44.2998 111.928 44.2998" stroke="#003F9E" stroke-width="5" stroke-miterlimit="10"/>
<path d="M78.7426 110.486C78.7426 110.486 76.7373 97.6068 80.0616 96.4137C83.3858 95.2206 88.8342 105.257 91.9284 103.668C95.7357 101.716 92.9981 89.5771 96.5447 87.1794C99.0523 85.4836 106.126 88.219 108.63 86.5195C111.533 84.5476 111.103 74.6227 114.508 73.7671C116.693 73.2185 117.859 77.2852 123.353 75.5281C128.28 73.9513 137.03 65.6914 137.03 65.6914" stroke="#003F9E" stroke-width="5" stroke-miterlimit="10"/>
<path d="M98.5195 125C98.5195 125 99.9919 115.105 102.695 113.786C105.398 112.466 116.287 116.145 120.493 112.684C124.699 109.224 125.945 100.465 129.009 97.3157C130.512 95.7696 135.565 97.6801 137.636 97.074C139.875 96.418 142.31 91.6301 144.449 90.6978C145.814 90.1032 150.381 91.139 150.381 91.139" stroke="#003F9E" stroke-width="5" stroke-miterlimit="10"/>
<path d="M150.599 90.9161C150.937 88.6641 156.312 68.047 156.312 68.047L213.645 14.2715L226.631 27.8103L167.301 82.9976L150.599 90.9122V90.9161Z" stroke="#003F9E" stroke-width="5" stroke-miterlimit="10"/>
<path d="M211.252 16.8193C211.252 16.8193 210.804 25.5971 212.79 27.3734C215.205 29.5372 225.753 27.8146 225.753 27.8146" stroke="#003F9E" stroke-width="5" stroke-miterlimit="10"/>
<path d="M9.14057 72.0752L2.09717 75.3822L93.1285 175.291L195.973 114.065L190.643 107.754" stroke="#003F9E" stroke-width="5" stroke-miterlimit="10"/>
<path d="M8.6269 82.5645L1.5835 85.8676L92.6148 185.776L195.459 124.554L190.126 118.243" stroke="#003F9E" stroke-width="5" stroke-miterlimit="10"/>
<path d="M14.1672 59.8027C14.52 58.3448 10.8353 51.2858 10.2794 48.3049C9.72342 45.3239 10.5669 39.0974 12.231 36.6612C14.0177 34.0448 20.0834 30.6572 22.4874 30.3963C25.2097 30.1009 30.0868 31.9884 31.9732 32.7903C34.6533 33.9258 38.2574 39.0245 39.5381 41.6409C40.7497 44.1116 41.2519 49.943 40.5426 52.6017C39.795 55.4061 33.8635 62.0892 33.8635 62.0892" stroke="#003F9E" stroke-width="5" stroke-miterlimit="10"/>
<path d="M34.6917 49.0449C34.6917 49.0449 31.3597 40.528 30.8038 37.547C30.2478 34.5661 31.0914 28.3396 32.7554 25.9034C34.5421 23.287 40.6078 19.8994 43.0118 19.6385C45.7341 19.3431 50.6112 21.2306 52.4976 22.0324C55.1777 23.168 58.7819 28.2667 60.0625 30.8831C61.2741 33.3538 61.7764 39.1852 61.067 41.8439C60.3194 44.6483 54.3879 51.3314 54.3879 51.3314" stroke="#003F9E" stroke-width="5" stroke-miterlimit="10"/>
<path d="M53.5828 38.5635C53.5828 38.5635 50.2509 30.0466 49.6949 27.0657C49.1389 24.0848 49.9825 17.8582 51.6465 15.4221C53.4332 12.8056 58.4062 10.2237 61.393 9.92444C63.8277 9.67891 69.5023 10.7493 71.3887 11.5511C74.0688 12.6867 77.673 17.7853 78.9536 20.4018C80.1652 22.8725 80.6675 28.7039 79.9581 31.3625C79.2105 34.167 73.279 40.8501 73.279 40.8501" stroke="#003F9E" stroke-width="5" stroke-miterlimit="10"/>
<path d="M70.4534 30.4003C70.4534 30.4003 67.1215 21.8834 66.5655 18.9025C66.0095 15.9216 66.8531 9.69503 68.5171 7.25889C70.3038 4.64243 76.3695 1.25485 78.7736 0.993971C81.4958 0.698564 86.3729 2.5861 88.2593 3.38791C90.9394 4.5235 94.5436 9.62214 95.8242 12.2386C97.0358 14.7093 97.5381 20.5407 96.8288 23.1993C96.0811 26.0038 90.1496 32.6869 90.1496 32.6869" stroke="#003F9E" stroke-width="5" stroke-miterlimit="10"/>
</g>
<defs>
<clipPath id="clip0_504_2528">
<rect width="228" height="187" fill="white"/>
</clipPath>
</defs>
</svg>
