<svg width="580" height="115" viewBox="0 0 580 115" fill="none" xmlns="http://www.w3.org/2000/svg">
<path d="M550.992 30.0072C513.683 37.7579 516.254 57.2831 516.247 65.294C516.24 73.3049 509.047 87.5806 498.753 95.844C480.433 110.846 456.695 102.374 404.941 99.395C379.431 97.9267 373.062 105.987 308.16 107.829C254.217 109.36 203.895 90.9802 162.737 99.3942C121.477 107.829 30.2125 106.845 1.75595 95.844" stroke="#13429A" stroke-width="5" stroke-miterlimit="10"/>
<path d="M526.027 39.3493C526.027 39.3493 580.578 42.316 576.67 23.5852C575.201 16.5614 570.876 12.8463 566.03 10.9508C557.778 7.71157 548.028 10.264 543.282 16.5367L526.027 39.3493Z" fill="#13429A" stroke="#13429A" stroke-width="5" stroke-miterlimit="10"/>
<path d="M514.457 57.8553C514.457 57.8553 476.691 32.547 490.24 25.1648C490.375 25.091 490.511 25.0172 490.646 24.9508C498.287 20.8991 508.447 24.7404 509.799 32.1864L514.457 57.8553Z" fill="#13429A" stroke="#13429A" stroke-width="5" stroke-miterlimit="10"/>
<path d="M508.902 85.5336C508.66 85.3755 564.433 93.9047 552.846 73.6942C552.721 73.604 552.595 73.5137 552.47 73.4235C545.45 68.3694 535.097 68.1901 527.847 72.9901L508.902 85.5336Z" fill="#13429A" stroke="#13429A" stroke-width="5" stroke-miterlimit="10"/>
</svg>
