<svg width="381" height="112" viewBox="0 0 381 112" fill="none" xmlns="http://www.w3.org/2000/svg">
<path d="M351.631 27.6788C314.322 35.4295 316.893 54.9547 316.886 62.9656C316.879 70.9765 309.686 85.2521 299.392 93.5155C281.071 108.517 257.334 100.045 205.58 97.0666C158.866 94.3779 142.826 96.5968 98.179 104.63C56.122 110.154 29.5555 104.517 1.09895 93.5155" stroke="#13429A" stroke-width="5" stroke-miterlimit="10"/>
<path d="M326.665 37.0207C326.665 37.0207 381.217 39.9874 377.309 21.2566C375.84 14.2328 371.514 10.5177 366.669 8.62223C358.417 5.38296 348.667 7.93542 343.921 14.2081L326.665 37.0207Z" fill="#13429A" stroke="#13429A" stroke-width="5" stroke-miterlimit="10"/>
<path d="M315.096 55.5267C315.096 55.5267 277.33 30.2184 290.878 22.8362C291.014 22.7624 291.149 22.6885 291.285 22.6222C298.926 18.5705 309.086 22.4118 310.438 29.8578L315.096 55.5267Z" fill="#13429A" stroke="#13429A" stroke-width="5" stroke-miterlimit="10"/>
<path d="M309.541 83.2048C309.299 83.0467 365.071 91.5759 353.485 71.3654C353.36 71.2751 353.234 71.1849 353.109 71.0946C346.088 66.0405 335.735 65.8613 328.486 70.6612L309.541 83.2048Z" fill="#13429A" stroke="#13429A" stroke-width="5" stroke-miterlimit="10"/>
</svg>
