<?xml version="1.0" encoding="UTF-8"?><svg id="Layer_1" xmlns="http://www.w3.org/2000/svg" width="104" height="109" viewBox="0 0 104 109"><defs><style>.cls-1{fill:#e8e6df;}.cls-2{fill:#13429a;}</style></defs><ellipse id="Ellipse_4" class="cls-2" cx="52" cy="54.5" rx="52" ry="54.5"/><g><path class="cls-1" d="m48.54,34.14c-1.21,1.85-2.65,3.69-2.65,3.69-1.25,1.59-1.86,2.08-2.31,2.81-1.84,3.05-1.89,6.08-1.83,7.45-.04,6.38,3.08,46.05,3.08,46.05,0,0,1.51,2.01-3.56,3.64-5.06,1.62-9.36-1.76-7.61-4.44,1.74-2.67,4.43-47.79,4.43-47.79,0,0-2-5.02-6.19-10.04-1.1-1.32-1.65-2.88-1.54-4.45.66-8.92,1.38-21.25,2.56-20.63,1.3.68,2.14,4.38,1.19,17.13-.68,4.53,1.91,4.54,1.91,4.54,0,0,.87-.45,1.19-1.17.94-2.98.06-21.79,2.89-20.52,3.01,1.36.02,22.42,3.06,21.43,3.03-.99,2.35-20.02,2.35-20.02,0,0,.08-1.85,1.64-1.31,1.24.43,2.84,21.39,1.38,23.63Z"/><path class="cls-1" d="m64.47,60.08c.06-1.09.22-2.17.44-3.24.45-2.16-.18-5.85-6.05-9.21-7.46-4.27,3.23-39.55,6.23-37.4,4.74-.23,5.18,2.15,5.62,6.92.44,4.77-1.76,55.84,0,59.5,1.76,8.26,2.63,15.41,2.63,15.41,0,0,1.85,6.04-3.68,5.91-5.53-.13-9.49-6.6-7.73-13.07,1.41-5.21,2.26-19.46,2.53-24.82Z"/></g></svg>