<?xml version="1.0" encoding="UTF-8"?><svg id="Layer_1" xmlns="http://www.w3.org/2000/svg" width="610" height="616" viewBox="0 0 610 616"><defs><style>.cls-1{fill:#f76345;}.cls-2{fill:#13429a;}</style></defs><g id="Ellipse_20"><g><path class="cls-1" d="m77.6,130.7c6.53-8.12,19.5-9.53,28.97-1.91,9.47,7.62,11.86,20.37,5.33,28.49-6.53,8.12-19.5,8.53-28.97.91-9.47-7.62-11.86-19.37-5.33-27.49Z"/><path class="cls-2" d="m97.84,167.15c-6.05,0-12.09-2.2-17.11-6.23-11.05-8.89-13.58-22.82-5.87-32.41,8-9.94,23.2-11.04,33.89-2.45,5.23,4.21,8.75,9.94,9.91,16.14,1.2,6.4-.24,12.54-4.05,17.27-3.81,4.74-9.49,7.46-16,7.66-.26,0-.52.01-.78.01Zm-5.29-39.89c-4.72,0-9.23,1.9-12.23,5.64-5.29,6.58-3.28,16.08,4.8,22.57,3.93,3.16,8.66,4.82,13.29,4.67,4.43-.14,8.26-1.93,10.76-5.05,2.51-3.12,3.44-7.24,2.62-11.6-.85-4.56-3.49-8.81-7.42-11.97-3.55-2.85-7.76-4.26-11.82-4.26Z"/></g></g><g id="Path_174"><path class="cls-2" d="m342.4,506.39c-.12-.21-12.3-20.77-22.62-40.69-.41-.79-.85-1.63-1.32-2.53-4.8-9.18-12.05-23.04-16.82-40.21-1.42-5.11-4.37-15.74,1.69-23.06,1.24-1.5,2.76-2.74,4.55-3.71-1.87-3.3-3.78-6.68-5.72-10.12-19.55-34.54-43.87-77.52-69.9-130.92-8.15-16.72-21.79-44.69-15.19-77.2,2.6-12.83,8-25.09,16.07-36.48-7.55-14.6-13.64-25.22-19.53-35.51-6.17-10.77-12.55-21.91-20.6-37.58l-21.4-34.53,32.89-24.81,78.18,105.38c7.07-.23,32.27-.83,46.41,1.46,22.53,3.64,43.87,19.19,63.41,46.2l.15.22c27.54,44.98,55.29,89.45,82.13,132.46,26.85,43.03,54.62,87.53,82.19,132.55l1.11,1.81-1.09,1.82c-6.92,11.51-15.71,21.6-26.13,30.01-11.8,9.52-25.19,16.51-39.81,20.77l-1.96-6.72c13.72-4,26.3-10.56,37.37-19.5,9.23-7.45,17.1-16.31,23.42-26.37-27.18-44.37-54.55-88.23-81.03-130.67-26.82-42.98-54.56-87.43-82.09-132.4-18.4-25.39-38.17-39.95-58.78-43.29-15.52-2.51-46.55-1.32-46.87-1.31l-1.85.07L203.07,18.87l-22.15,16.72,18.25,29.47c8.01,15.59,14.37,26.69,20.51,37.42,6.19,10.8,12.58,21.97,20.67,37.7l.99,1.93-1.29,1.75c-8.17,11.06-13.59,23-16.12,35.48-6.12,30.18,6.37,55.79,14.63,72.74,25.93,53.21,50.2,96.08,69.7,130.54,2.64,4.66,5.2,9.19,7.68,13.59l2.18,3.88-4.28,1.21c-2.22.63-3.95,1.66-5.12,3.07-3.29,3.97-2.01,10.67-.34,16.71,4.57,16.45,11.62,29.92,16.28,38.84.47.9.92,1.76,1.33,2.56,10.22,19.74,22.3,40.14,22.42,40.34l-6.02,3.57Z"/></g><g id="Path_175"><path class="cls-2" d="m383.63,645.39l-10.47-34.41c-4.02-3.57-22.4-20.25-33.55-37.01-7.53-11.32-12.74-23.81-15.48-37.13-2.54-5.46-27.02-58.49-32.22-84.66-2.3-11.56-1.14-19.72,3.45-24.23,3.81-3.75,9-3.85,11.46-3.32l-1.44,6.85c-.12-.02-3.11-.56-5.16,1.5-1.55,1.56-3.8,5.96-1.45,17.83,5.21,26.2,31.61,82.87,31.88,83.44l.18.38.08.41c2.53,12.58,7.42,24.37,14.53,35.04,11.77,17.7,32.86,36.09,33.07,36.27l.76.66,8.83,29.02,119.46-47.95-19.1-40.85-4.87-91.18,6.76-73.3c-4.59-1.52-15.38-3.57-22.59,7.07-10.44,15.39-14.46,55.85-14.5,56.26l-.65,6.77-5.13-4.47c-2.47-2.15-60.66-52.97-78.07-78.85-7.7-11.45-15.9-17.59-21.91-16.46-3.86.74-6.82,4.56-8.12,10.49-.44,2,.47,11.59,30.56,50.81,16.47,21.46,33.6,41.21,33.77,41.4l-5.28,4.59c-.17-.2-17.43-20.09-34.03-41.71-34.44-44.86-32.57-53.38-31.87-56.59,1.93-8.8,6.9-14.58,13.65-15.87,5.28-1.01,16.08.18,29.02,19.42,13.99,20.81,57.12,59.93,71.86,73.06,1.66-12.67,6.09-39.83,14.88-52.8,10.11-14.9,26.43-12.12,33.66-8.57l2.16,1.06-7.18,77.8,4.77,89.31,21.65,46.32-133.42,53.55Z"/></g><g id="Path_179"><path class="cls-2" d="m373.8,500.53c-6.22-8.73-60.76-86.02-59.97-110.13.26-7.95,2.81-13.36,7.59-16.07,8.33-4.72,19.5,1.2,20.75,1.89l-3.39,6.13c-2.45-1.34-9.73-4.31-13.92-1.92-2.5,1.43-3.86,4.86-4.04,10.2-.6,18.41,42.15,82.64,58.68,105.84l-5.7,4.06Z"/></g><g id="Path_177"><path class="cls-2" d="m266.27,312.05l-3.08-6.29c27.02-13.22,53.53-28.15,78.78-44.37,25.76-17.16,50.87-35.92,74.58-55.71l4.49,5.37c-23.91,19.96-49.22,38.87-75.23,56.2-25.53,16.4-52.27,31.46-79.53,44.8Z"/></g><g id="Path_178"><path class="cls-2" d="m390.05,385.96l-3.36-6.14c16.91-9.25,33.38-19.48,48.97-30.4,15.99-11.59,31.49-24.09,46.04-37.12l4.67,5.21c-14.72,13.19-30.42,25.84-46.65,37.61-15.84,11.1-32.54,21.46-49.67,30.84Z"/></g><g id="Path_181"><rect class="cls-2" x="189.55" y="51.82" width="37.24" height="7" transform="translate(2.77 120.19) rotate(-32.41)"/></g><g id="Ellipse_19"><g><ellipse class="cls-1" cx="115.58" cy="55.32" rx="31.44" ry="36.95" transform="translate(-9.41 83.55) rotate(-38.3)"/><path class="cls-2" d="m120.88,93.74c-11.76,0-24.12-5.86-32.72-16.75-13.82-17.5-12.77-41.46,2.35-53.4h0c15.12-11.94,38.67-7.42,52.49,10.08,13.82,17.5,12.77,41.46-2.35,53.4-5.71,4.51-12.63,6.67-19.77,6.67Zm-26.03-64.66c-12.09,9.55-12.63,29.09-1.2,43.57s30.57,18.48,42.66,8.93c12.09-9.55,12.63-29.1,1.2-43.57-11.43-14.47-30.57-18.48-42.66-8.93h0Z"/></g></g><g id="Path_176"><polygon class="cls-2" points="556.75 628.76 534.87 583.14 513.81 593.13 510.81 586.8 538.17 573.83 563.06 625.74 556.75 628.76"/></g></svg>