<?xml version="1.0" encoding="UTF-8"?><svg id="Layer_1" xmlns="http://www.w3.org/2000/svg" width="347.2" height="647.2" viewBox="0 0 347.2 647.2"><defs><style>.cls-1{fill:#13429a;}</style></defs><g id="Ellipse_20"><path class="cls-1" d="m21.22,106.78c-6.08,0-12.41-3.07-16.68-8.74C1.32,93.77-.28,88.65.04,83.62c.33-5.23,2.67-9.74,6.59-12.7h0c3.92-2.96,8.9-3.97,14.02-2.83,4.92,1.08,9.41,4.03,12.63,8.31,6.77,8.99,5.84,21.16-2.09,27.13-2.93,2.21-6.41,3.26-9.98,3.26Zm-4.59-32.14c-2.15,0-4.15.64-5.79,1.87h0c-2.26,1.71-3.62,4.39-3.82,7.55-.21,3.37.89,6.84,3.11,9.78,4.45,5.91,12.01,7.74,16.85,4.09,4.84-3.65,5.16-11.42.71-17.33-2.22-2.94-5.25-4.96-8.54-5.68-.86-.19-1.7-.28-2.52-.28Z"/></g><g id="Ellipse_19"><path class="cls-1" d="m76.84,62.6c-4.11,0-8.29-1.01-12.31-3.02-7.04-3.52-12.73-9.73-16.01-17.47-6.87-16.19-1.04-34.2,13-40.16,6.9-2.93,14.68-2.55,21.91,1.07,7.04,3.52,12.72,9.73,16.01,17.47,6.87,16.19,1.04,34.2-13,40.16-3.07,1.3-6.31,1.95-9.6,1.95Zm-5.72-55.6c-2.37,0-4.68.46-6.86,1.39-10.49,4.45-14.66,18.35-9.29,30.98,2.64,6.22,7.15,11.17,12.7,13.95,5.36,2.69,11.06,3,16.04.89,10.49-4.45,14.66-18.35,9.29-30.98-2.64-6.22-7.15-11.17-12.7-13.95-3.02-1.51-6.14-2.27-9.18-2.27Z"/></g><g id="Path_174"><path class="cls-1" d="m266.74,443.57l-.76-6.96c10.83-1.19,21.5-3.72,31.71-7.52,15.06-5.35,33.92-14.48,40.87-17.93-9.23-26.16-77.69-219.77-93.16-253.2-15.47-33.41-65.61-26.28-66.11-26.2l-2.82.42-.99-2.67-38.36-104.02-12.78,5.16,7.86,24.9,14.83,86.9-2.01,1.24c-.09.05-9.48,6.03-17.28,19.24-10.46,17.72-13.26,39.37-8.31,64.36,8.12,39.97,18.59,79.93,31.11,118.75l.95,2.95-2.82,1.3c-.17.09-5.49,2.92-6.03,13.12-.52,10,1.36,17.66,3.76,27.36.5,2.04,1.02,4.15,1.54,6.37,3.88,16.6,9.03,34.06,9.08,34.23l-6.71,1.98c-.05-.18-5.26-17.82-9.19-34.62-.51-2.19-1.03-4.27-1.52-6.29-2.43-9.85-4.53-18.36-3.95-29.4.51-9.72,4.62-14.88,7.43-17.3-12.26-38.31-22.53-77.68-30.53-117.08-6.64-33.53,1.43-56.39,9.36-69.66,6.52-10.92,13.95-17.28,17.43-19.89l-14.02-82.16-9.63-30.38,25.48-10.28,39.89,108.19c11.68-1.17,55.09-3.11,70.66,30.53,16.66,35.98,91.27,247.73,94.44,256.73l1.02,2.89-2.73,1.39c-1.02.52-25.27,12.85-44.4,19.64-10.7,3.99-21.93,6.65-33.33,7.9Z"/></g><g id="Path_175"><path class="cls-1" d="m158.11,571.17l-4.59-54.01c-2.51-3.7-12.9-19.46-18.01-33.95-3.5-9.92-5.04-20.28-4.58-30.79-.95-5.03-9.09-48.8-8.03-69.24.48-9.34,3.02-15.41,7.54-18.06,4.73-2.77,9.41-.6,9.93-.34l-3.11,6.27,1.56-3.13-1.51,3.16c-.07-.03-1.84-.82-3.38.11-1.05.64-3.56,3.13-4.03,12.35-1.06,20.39,7.91,67.5,8,67.97l.08.41-.02.42c-.48,9.74.92,19.34,4.17,28.54,5.39,15.3,17.57,32.89,17.7,33.06l.54.77,4.14,48.71,96.19-10.62-9.28-61.77.12-.6,13.47-68.38,18.67-52.79c-3.25-1.96-10-4.62-16.65,1.29-10.52,9.36-21.08,38.55-21.18,38.84l-2.3,6.4-3.88-5.59c-1.44-2.07-35.26-50.98-43.38-73.64-3.46-9.67-8.14-15.59-12.5-15.85-2.63-.17-5.32,1.97-7.25,5.83-.47.95-2.06,7.47,13.2,42.92,8.21,19.07,17.24,36.99,17.33,37.17l-6.25,3.15c-.09-.18-9.21-18.27-17.5-37.53-15.37-35.68-15.05-44.85-13.05-48.85,3.25-6.49,8.33-10.02,13.93-9.69,4.33.26,12.5,3.26,18.67,20.48,6.27,17.48,29.62,52.92,38.81,66.53,3.91-9.65,12.02-27.7,20.69-35.41,10.76-9.57,22.86-4.22,27.75-.05l1.83,1.56-20.18,57.07-13.26,67.29,10.18,67.77-110.56,12.21Z"/></g><g id="Path_179"><path class="cls-1" d="m174.83,434.98c-3-7.71-29.14-75.79-23.93-93.87,1.78-6.16,4.89-9.9,9.25-11.09,7.52-2.06,15.04,4.73,15.87,5.51l-4.78,5.11c-1.38-1.28-6.04-4.75-9.24-3.87-2.3.64-3.64,3.77-4.37,6.28-3.86,13.38,15.82,69.06,23.73,89.39l-6.52,2.54Z"/></g><g id="Path_176"><polygon class="cls-1" points="145.59 626.39 145.59 567.46 159.59 563.9 161.32 570.68 152.59 572.9 152.59 618.28 289.31 598.19 285.11 559.74 264.75 559.74 264.75 552.74 291.39 552.74 297 604.14 145.59 626.39"/></g><g id="Path_180"><rect class="cls-1" x="157.62" y="619.75" width="7" height="26.24" transform="translate(-19.4 5.26) rotate(-1.76)"/></g><g id="Path_173"><rect class="cls-1" x="276.54" y="602.6" width="7" height="44.78" transform="translate(-200.19 136.71) rotate(-20.39)"/></g><g id="Path_177"><path class="cls-1" d="m127.06,277.03l-1.5-6.84c25.03-5.5,49.99-12.57,74.19-21.03,24.8-9.16,49.41-19.83,73.09-31.71l3.14,6.26c-23.91,11.99-48.76,22.77-73.86,32.04-24.52,8.57-49.75,15.72-75.05,21.28Z"/></g><g id="Path_178"><path class="cls-1" d="m209.64,353.15l-2.04-6.7c15.93-4.87,31.72-10.8,46.91-17.63,15.66-7.38,31.12-15.79,45.91-24.95l3.69,5.95c-15.01,9.31-30.71,17.84-46.67,25.36-15.52,6.98-31.58,13.02-47.8,17.97Z"/></g><g id="Path_181"><rect class="cls-1" x="125.86" y="47.76" width="22.81" height="7" transform="translate(-8.86 40.42) rotate(-16.24)"/></g></svg>