<svg width="293" height="338" viewBox="0 0 293 338" fill="none" xmlns="http://www.w3.org/2000/svg">
<g clip-path="url(#clip0_504_2022)">
<path d="M180.44 70.3401C180.44 70.3401 185.44 95.3401 134.44 95.3401C126.44 120.34 163.44 125.34 163.44 125.34C163.44 125.34 144.44 138.34 152.44 140.34C162.44 150.34 168.44 154.34 202.44 157.34C237.44 153.34 241.44 128.34 241.44 128.34C241.44 128.34 222.31 188.93 187.37 191.63C158.44 177.34 156.44 175.34 156.44 175.34C156.44 175.34 147.44 177.34 154.44 183.34C153.44 207.34 146.44 241.34 178.44 247.34C192.24 250.63 198.56 249.59 201.27 248.5C202.38 248.05 203.65 248.44 204.26 249.47C207.63 255.16 218.7 270.29 241.43 270.31C268.43 259.33 261.43 256.33 261.43 256.33L252.43 143.33C252.43 143.33 275.43 123.33 267.43 108.33C259.43 93.3301 250.43 104.33 250.43 104.33L248.43 89.3301L180.43 70.3301L180.44 70.3401Z" stroke="#13429A" stroke-width="5" stroke-miterlimit="10"/>
<path d="M283.44 101.34L140.44 58.3398L144.44 48.3398L283.44 87.4698V101.34Z" fill="#E76345" stroke="#E76345" stroke-width="5" stroke-miterlimit="10"/>
<path d="M247.85 74.8398V63.1398L181.44 46.3398V55.7698L247.85 74.8398Z" stroke="#13429A" stroke-width="5" stroke-miterlimit="10"/>
<path d="M191.44 3.33984L181.44 44.3398" stroke="#13429A" stroke-width="5" stroke-miterlimit="10"/>
<path d="M207.44 253.34C207.44 253.34 156.06 272.29 151.75 270.32C147.44 268.35 107.72 278.27 85.67 230.85C85.52 230.52 85.41 230.16 85.36 229.8C80.68 197.4 82.42 182.48 84 176.26C84.55 174.08 83.05 171.92 80.81 171.71C72.79 170.96 56.22 171.02 46.44 182.35C27.68 204.08 61.57 287.23 72.05 294.13C72.3 294.29 72.53 294.47 72.72 294.69C82.96 306.74 113.65 331.52 130.5 333.5C145.9 335.31 269.7 332.89 292 333.5C293.99 333.56 292.41 309.49 292.5 307.5L290.39 279.48C290.42 278.72 290.22 277.97 289.81 277.33C287.03 273.01 275.37 256.34 261.44 256.34" fill="#13429A"/>
<path d="M207.44 253.34C207.44 253.34 156.06 272.29 151.75 270.32C147.44 268.35 107.72 278.27 85.67 230.85C85.52 230.52 85.41 230.16 85.36 229.8C80.68 197.4 82.42 182.48 84 176.26C84.55 174.08 83.05 171.92 80.81 171.71C72.79 170.96 56.22 171.02 46.44 182.35C27.68 204.08 61.57 287.23 72.05 294.13C72.3 294.29 72.53 294.47 72.72 294.69C82.96 306.74 113.65 331.52 130.5 333.5C145.9 335.31 269.7 332.89 292 333.5C293.99 333.56 292.41 309.49 292.5 307.5L290.39 279.48C290.42 278.72 290.22 277.97 289.81 277.33C287.03 273.01 275.37 256.34 261.44 256.34" stroke="#13429A" stroke-width="5" stroke-miterlimit="10"/>
<path d="M33.44 177.34C33.44 179.03 30.44 200.34 30.44 205.34C30.44 210.34 37.44 207.34 37.44 207.34C37.44 207.34 42.44 190.34 49.86 179.03C52.28 169.72 82.44 171.34 82.44 171.34C82.44 171.34 95.44 165.34 91.44 137.34C87.44 109.34 59.44 115.34 59.44 115.34C59.44 115.34 29.44 132.34 39.44 139.34C49.44 146.34 66.44 134.34 66.44 134.34C66.44 134.34 56.74 143.2 61.09 142.27C65.44 142.34 70.44 139.34 70.44 139.34C70.44 139.34 48.44 158.34 56.44 160.34C64.44 162.34 24.44 175.34 23.44 166.34" stroke="#13429A" stroke-width="5" stroke-miterlimit="10"/>
<path d="M38.88 131.76C42.45 140.33 22.45 151.33 22.45 151.33C22.45 151.33 3.35999 153.33 9.90999 138.83C17.45 127.33 35.31 123.18 38.88 131.76Z" stroke="#13429A" stroke-width="5" stroke-miterlimit="10"/>
<path d="M32.44 185.34L20.44 201.34C20.44 201.34 8.43999 205.34 23.44 177.85C38.44 160.34 9.43999 183.34 9.43999 183.34C9.43999 183.34 -0.560011 190.34 3.43999 177.34C7.43999 164.34 22.44 151.34 22.44 151.34" stroke="#13429A" stroke-width="5" stroke-miterlimit="10"/>
<path d="M42.27 140.77C42.27 140.77 35.47 165.51 53.45 164.33" stroke="#13429A" stroke-width="5" stroke-miterlimit="10"/>
<path d="M33.37 143.56C33.37 143.56 36.44 159.33 25.44 170.33" stroke="#13429A" stroke-width="5" stroke-miterlimit="10"/>
<path d="M42.86 127.2L40.89 107.43L33.77 109.23V125.73" stroke="#13429A" stroke-width="5" stroke-miterlimit="10"/>
<path d="M10.44 85.3404C10.44 85.3404 14.09 112.13 33.76 109.23C53.43 106.33 53.44 80.7304 53.44 80.7304C53.44 80.7304 27.44 73.3304 10.44 85.3304V85.3404Z" fill="#E76345" stroke="#E76345" stroke-width="5" stroke-miterlimit="10"/>
<path d="M8.43999 86.3398C29.11 72.0298 47.99 76.3098 54.04 79.0798C55.53 79.7598 56.39 81.3298 56.15 82.9498C56.08 83.4298 55.99 83.9698 55.88 84.5698C55.67 85.6698 55.4 86.9398 55.02 88.3298C53.1 95.3998 48.63 105.56 38.32 111.94C12.19 112.53 11.45 98.3498 8.53999 90.3398C5.62999 82.3298 8.44999 67.3398 8.44999 67.3398L54.45 63.3398L56.45 82.3398" stroke="#13429A" stroke-width="5" stroke-miterlimit="10"/>
<path d="M181.44 55.7698L143.74 44.3398L137.44 59.3398L284.44 105.34L287.94 87.6398L247.85 74.8398" stroke="#13429A" stroke-width="5" stroke-miterlimit="10"/>
<path d="M196.75 89.6C196.65 88.84 195.68 88.58 195.21 89.2C192.89 92.28 188.54 99.05 193.26 101.34C197.98 103.63 197.32 93.92 196.75 89.6Z" fill="#13429A" stroke="#13429A" stroke-width="5" stroke-miterlimit="10"/>
<path d="M190.44 5.33963C224.36 -5.02037 259.44 16.3396 259.44 16.3396L247.84 63.1496L182.24 41.0596L194.16 6.28963" fill="#13429A"/>
<path d="M190.44 5.33963C224.36 -5.02037 259.44 16.3396 259.44 16.3396L247.84 63.1496L182.24 41.0596L194.16 6.28963" stroke="#13429A" stroke-width="5" stroke-miterlimit="10"/>
</g>
<defs>
<clipPath id="clip0_504_2022">
<rect width="292.9" height="337.64" fill="white"/>
</clipPath>
</defs>
</svg>
