<?xml version="1.0" encoding="UTF-8"?><svg id="Layer_1" xmlns="http://www.w3.org/2000/svg" width="851.3" height="976.14" viewBox="0 0 851.3 976.14"><defs><style>.cls-1{fill:#f76345;}.cls-2{fill:#13429a;}</style></defs><g><path class="cls-2" d="m80.62,454.13c-3.43,0-6.42-1.94-8.11-5.31-2.67-5.31-1.77-13.05,2.01-17.25,6.74-7.49,27.66-9.54,38.86-10.11l-6.72-28.31,9.73-2.31,9.58,40.34-6.24.08c-15.32.2-34.12,2.94-37.77,7-1.1,1.22-1.19,4.42-.65,5.8,17.95-1.75,37.22-5.4,57.6-9.27,11.41-2.16,23.18-4.39,35.65-6.49-.99-1.3-2.38-2.69-3.58-3.27-6.25-3.03-23.27.34-32.53,3.17l-5.39,1.65-6.42-35.89,9.84-1.76,4.46,24.94c8.75-2.2,25.44-5.46,34.4-1.11,4.82,2.34,11.28,9.55,10.41,15.53-.46,3.18-2.84,5.5-6.21,6.06-13.61,2.23-26.4,4.66-38.77,7-20.9,3.96-40.64,7.7-59.27,9.47-.3.03-.59.04-.88.04Z"/><path class="cls-2" d="m102.65,379.49l-3.66-23.14c-11.15-3.49-45.77-15.09-53.74-26.82-11.23-16.54-14.13-47.87-16.7-75.51-.7-7.56-1.36-14.7-2.15-21.02-.63-5.03,4.38-6.1,8.79-7.05,2.53-.54,5.03-.98,5.14-1h0s17.19-3.26,25.25-4.8c10.84-2.07,32.75-5.4,44.02-6,9.85-.52,33.96-.34,35.89-.32,7.25-.2,10.82.11,12.27,3.65,11.18,27.15,20.64,64.85,13.64,89.17-3.69,12.85-34.5,38.07-45.24,46.55l4.11,21.29-9.82,1.9-5.27-27.3,2.43-1.88c16.96-13.17,41.89-35.31,44.19-43.32,5.04-17.53.23-48.72-12.25-80.05-1.13-.03-2.55-.04-3.87,0h-.09s-.09,0-.09,0c-.25,0-25.63-.21-35.37.31-10.42.55-31.88,3.77-42.67,5.83-8.08,1.54-25.33,4.82-25.33,4.82-1.75.31-3.72.69-5.33,1.05.6,5.38,1.14,11.19,1.7,17.26,2.33,25.13,5.23,56.41,15.01,70.82,5.27,7.76,34.29,18.71,51.34,23.78l3.02.9,4.64,29.34-9.88,1.56Zm45.88-158.22s0,.02,0,.02c0,0,0-.02,0-.02Z"/><g id="Path_185"><path class="cls-1" d="m146.9,260.33c2.35,4.4,7.27,15.09,5.74,28.88-.41,3.69-1.95,12.34-7.88,21.45-3.32,5.1-14.35,12.14-19.87,15.21-4.36,2.43-14.16,5.41-19.14,6.18-4.42.68-13.48-.09-17.8-1.05-4.83-1.07-13.76-5.52-17.59-8.4-4.23-3.17-10.42-11.85-12.43-16.54-3.48-8.13-5.6-34.75-5.6-34.75,0,0,7.91-2.53,10.57-3.32,4.66-1.4,14.21-4.08,19.08-4.05,5.31.03,15.9,3.64,20.83,3.41,4.38-.2,18.4-.49,22.73-1.22,7.12-1.93,14.25-3.86,21.37-5.8Z"/><path class="cls-2" d="m101.38,337.32c-5.11,0-11.17-.69-14.52-1.43-5.63-1.25-15.27-6.1-19.51-9.28-5.04-3.78-11.68-13.09-14.03-18.57-3.7-8.64-5.77-33.52-5.99-36.33l-.32-3.95,3.78-1.21c.32-.1,7.98-2.55,10.65-3.35,6.48-1.95,15.26-4.26,20.44-4.26h.11c3.09.02,7.03.9,11.19,1.83,3.51.78,7.5,1.68,9.38,1.59,1.03-.05,2.58-.1,4.41-.16,5.38-.18,14.29-.48,17.49-.96l24.96-6.77,1.88,3.51c3.71,6.94,7.82,18.09,6.3,31.79-.51,4.65-2.32,13.91-8.66,23.63-4.78,7.34-19.92,15.9-21.63,16.85-4.96,2.76-15.26,5.9-20.82,6.75-1.45.22-3.22.32-5.12.32Zm-43.73-62.45c.84,8.84,2.66,24.09,4.86,29.24,1.72,4.01,7.4,11.92,10.84,14.51,3.26,2.45,11.6,6.61,15.67,7.51,4.04.9,12.37,1.54,15.96.99,4.47-.69,13.74-3.53,17.47-5.61,7.15-3.98,15.88-10.14,18.12-13.58,5.4-8.29,6.76-16.24,7.1-19.27,1-9.07-1.04-16.79-3.47-22.42l-17.83,4.81c-3.38.58-10.94.87-19.05,1.13-1.78.06-3.29.11-4.29.16-3.21.13-7.49-.81-12.02-1.82-3.31-.74-7.05-1.57-9.08-1.59h-.06c-3,0-9.55,1.43-17.55,3.84-1.39.42-4.28,1.33-6.68,2.09Z"/></g><g id="Path_187"><path class="cls-2" d="m68.93,251.76c-4.32,0-8.24-.24-11.68-.81-7.18-1.19-25.51-8.04-27.58-8.81l3.52-9.36c5.37,2.01,20.44,7.44,25.71,8.31,8.46,1.41,21.24.39,35.83-.97,8.51-.8,20.12-4.55,27.81-7.03,2.66-.86,4.75-1.54,6.21-1.93,4.73-1.26,17.38-7.62,21.86-9.97l4.64,8.86c-1.75.92-17.27,8.99-23.92,10.77-1.21.32-3.3,1-5.71,1.78-8.1,2.62-20.35,6.58-29.95,7.48-9.85.92-18.93,1.69-26.72,1.69Z"/></g></g><path class="cls-2" d="m706.62,787.7h-.98c-29.5-.03-55.76-8.46-78.04-25.07-18.35-13.68-29.31-29.62-34.2-37.91-.49-.83-1.53-1.13-2.52-.74-9.5,3.83-29.21,6.4-69.21-3.11-85.53-16.12-79.85-97.97-75.29-163.74.6-8.68,1.17-16.92,1.54-24.86-6.2-5.89-8.65-11.64-7.28-17.11,2.4-9.6,15.6-12.8,17.1-13.13l2.1-.47,1.78,1.21c.47.32,47.21,31.8,88.71,46.75,23.38,8.42,45.92,5.7,66.98-8.09,34.77-22.78,57.77-71.54,63.21-102.54-12.81,9.5-38.24,20.12-88.07,20.76-97.13,1.23-125.51-27.35-146.21-48.24-.87-.88-1.73-1.74-2.58-2.59-2.36-2.35-4.39-4.39-3.81-7.6.57-3.13,3.13-4.3,5.39-5.33,3.93-1.79,13.13-5.97,27.53-22.32,2.77-3.14,3.05-5.71,2.79-7.34-12.52-2.13-61.01-12.21-80.66-43.32-9.11-14.42-10.7-31.18-4.74-49.82l1.11-3.48h3.65c77.35,0,108.41-17.97,120.85-33.05,10.97-13.3,8.74-25.65,8.64-26.17l9.79-2.02c.15.69,3.4,17.16-10.44,34.21-19.56,24.1-61.64,36.54-125.1,37.01-3.79,14.28-2.22,27.04,4.68,37.97,19.71,31.21,75.88,39.13,76.45,39.2l2.2.3,1.25,1.83c2.38,3.48,4.83,12.4-2.99,21.27-12.9,14.65-22.31,20.55-27.79,23.34.28.29.57.57.85.86,20.52,20.71,46.1,46.5,138.98,45.28,68.54-.88,86.44-20.86,90.29-26.97,2.3-3.65,5.43-2.84,6.33-2.51,1.44.53,3.76,2.05,3.14,6.18-.12.78-.31,2.08-.45,4.19-2.13,32.49-27.23,92-68.83,119.25-23.83,15.61-49.35,18.68-75.85,9.13-38.34-13.81-79.56-40.35-89-46.58-3.33,1.11-7.11,3.17-7.62,5.25-.18.71-.27,3.44,5.93,8.75l1.84,1.58-.1,2.42c-.37,8.8-1,17.87-1.66,27.47-4.51,65.07-9.63,138.82,67.28,153.24l.24.05c39.5,9.4,56.59,6.29,63.27,3.59,5.6-2.26,11.85-.19,14.87,4.92,10.25,17.35,40.72,57.59,102.67,58.06,47.24-19.29,54.94-28.9,56.18-31.37l-1.88-.81-.24-3.01-26.33-330.64,1.9-1.66c.64-.56,63.51-55.97,42.43-95.51-6.72-12.61-14.06-19.4-21.81-20.18-10.48-1.06-19.2,9.29-19.29,9.39l-6.79,8.19-7.59-40.19,9.83-1.85,3.96,20.97c5-3.65,12.31-7.29,20.82-6.47,11.3,1.11,21.29,9.67,29.7,25.44,22.79,42.72-31.53,95.74-42.79,106.05l25.76,323.44c1.5,1.54,2.59,3.71,2.56,6.33-.07,7.32-7.35,18.66-63.56,41.51l-.91.37Z"/><g><path class="cls-2" d="m606.92,733.41s-120.05,44.86-161.71,49.3c-191.61,20.41-196.86-237.65-196.78-269.86,0-2.44-.26-4.89-.81-7.28-1.52-6.69-2.9-8.69-8.43-9.21-23.3-2.18-51.06-19.12-79.46,13.76-54.51,63.11-1.9,426.08,286.02,459.95,44.72,5.26,302.31.54,367.07,2.34,5.79.16,34.11-1.43,34.11-1.43l.85-161.67c.1-2.21-.49-4.37-1.69-6.23-8.09-12.54-41.93-60.95-82.37-60.95"/><path class="cls-2" d="m570.15,977.64c-57.98,0-107.4-.54-124.98-2.61-69.41-8.17-130.04-35.69-180.2-81.81-41.58-38.23-75.68-89.64-98.63-148.69-18.3-47.08-29.14-98.24-30.52-144.04-1.3-43.19,6.03-77.33,20.13-93.65,24.21-28.03,48.84-22.58,68.63-18.2,5.33,1.18,10.36,2.29,15.09,2.73,9.32.87,11.33,6.44,12.84,13.08.62,2.75.94,5.58.93,8.4-.07,27.01,3.28,165.12,76.69,231.31,30.13,27.16,68.67,38.46,114.56,33.57,40.55-4.32,159.29-48.56,160.48-49.01l3.5,9.37c-4.93,1.84-121.12,45.13-162.92,49.58-48.83,5.2-89.99-6.94-122.31-36.08-76.57-69.04-80.07-211-79.99-238.76,0-2.07-.22-4.14-.68-6.15-1.15-5.07-1.26-5.08-4.02-5.34-5.35-.5-10.68-1.68-16.32-2.93-18.97-4.2-38.59-8.54-58.9,14.97-12.3,14.24-18.92,46.69-17.7,86.82,1.35,44.69,11.95,94.66,29.85,140.72,29.25,75.27,103.32,204.5,270.68,224.19,27.26,3.21,134.8,2.66,229.68,2.18,57.6-.29,112.01-.57,136.94.12,3.84.11,19.45-.66,28.99-1.17l.83-157.16c.05-1.17-.26-2.31-.9-3.3-6.32-9.79-39.78-58.66-78.17-58.66v-10c42.49,0,77.01,48.4,86.58,63.24,1.75,2.71,2.61,5.84,2.49,9.06l-.87,166.28-4.69.26c-1.17.07-28.6,1.61-34.53,1.44-24.76-.69-79.09-.41-136.61-.12-35.13.18-72,.36-105.93.36Z"/></g><path class="cls-2" d="m239.54,504.3c-1.54,0-2.68-.85-3.38-1.59-.54-.57-2.96-3.47.21-7.06l-.02-.03s.19-.18.53-.5c.04-.03.07-.07.11-.1l3.52-3.35h0s0,0,0,0c.48-.45.92-.7,1.19-.85,3.49-1.93,33.82-20.92,23.44-93.55-3.23-22.59-11.8-38.03-25.49-45.91-23.06-13.27-53.76-1.11-54.07-.98l-.23.09c-13.5,4.61-42.03,16.06-53.72,26.51-3.5,3.14-4.82,6.78-4.29,8.62.44,1.49,2.51,2.13,4.17,2.4,33.6,5.48,62.96-4.4,64.19-4.82l3.93-1.35,4.09,7.2-3.1,2.72c-5.81,5.06-10.39,10.14-12.72,13.56,7.15-1.37,14.57-4.86,18.49-7.14l3.71-2.15,5.47,6.72-2.97,3.22c-19.17,21.03-37.63,47.48-35.27,55.27.11.36.27.89,1.83,1.29l-2.43,9.7c-4.56-1.14-7.75-4.01-8.98-8.09-1.52-5.04-1.5-14.57,16.24-38.92,2.69-3.7,5.47-7.28,8.09-10.54-3.32.79-6.78,1.29-10.2,1.24l-2.03-.03-1.72-1.72c-3.45-4.02-2.31-9.75,3.38-17.13-12.8,2.36-31.37,4.17-51.63.87-8.58-1.4-11.3-6.53-12.15-9.46-1.75-5.98,1.09-13.39,7.22-18.88,15.82-14.15,54.06-27.46,56.99-28.47,2.81-1.12,35.88-13.74,62.62,1.6,16.53,9.48,26.77,27.38,30.46,53.2,10.87,76.08-20.51,99.11-28.08,103.48l-2.81,2.68s-.09.08-.13.12c-.42.4-.72.68-.76.73l-.04-.04c-1.39,1.08-2.62,1.47-3.66,1.47Z"/><path class="cls-2" d="m91.67,579.63c-1.99,0-3.96-.3-5.81-1-3.16-1.2-8.47-4.6-8.47-13.84,0-15.3,28.76-70.81,32.04-77.09l8.86,4.63c-11.95,22.88-30.9,62.78-30.9,72.46,0,3.68,1.37,4.23,1.96,4.47,3.06,1.22,8.53-.83,9.64-1.98,3.65-4.12,7.16-8.6,10.87-13.36,11.14-14.26,23.76-30.43,45.82-43.07l4.97,8.68c-20.36,11.67-31.82,26.35-42.91,40.55-3.81,4.88-7.41,9.49-11.28,13.85-2.56,2.88-8.71,5.71-14.79,5.71Z"/><path class="cls-2" d="m63.94,441.69c-13.29,0-29.21-1.74-36.35-12.34-5.01-7.44-4.62-17.69,1.15-30.48l.16-.36.22-.33c14.23-21.69,39.3-35.42,60.99-33.4,12.21,1.14,21.23,7.29,25.4,17.32,2.18,5.24,2.28,9.97.29,14.06-3.92,8.08-14.66,11.09-25.05,14-8.54,2.39-18.22,5.1-18.22,9.65h-10c0-12.13,13.56-15.93,25.52-19.28,7.87-2.2,16.79-4.7,18.75-8.73.25-.52,1.03-2.12-.53-5.85-3.44-8.26-11.2-10.65-17.1-11.2-15.23-1.42-37.77,7.95-51.48,28.6-4.11,9.24-4.71,16.11-1.81,20.42,6,8.91,26.7,8.11,37.82,7.69,2.24-.08,4.17-.16,5.78-.16v10c-1.42,0-3.26.07-5.4.15-3.02.12-6.49.25-10.15.25Z"/><path class="cls-2" d="m41.58,548.3c-1.23,0-2.25-.2-3.15-.5-3-1-5.05-3.49-5.64-6.83l-.12-.66c-2.62-14.8-1.24-27.02,40.3-60.68.84-.68,1.61-1.31,2.33-1.92-11.23,4.53-26.87,11.86-36.04,16.16-8.87,4.16-15.87,7.44-19.45,8.8-5.22,1.98-16.16-.54-19.98-7.96-3.06-5.94-2.48-15.83,17.61-29.18,26.17-17.39,41.08-21.12,49.09-23.13,1.77-.44,3.75-.94,4.47-1.31.09-.38.23-1.38.12-3.82l9.99-.45c.52,11.54-4.05,13.25-12.16,15.28-7.43,1.86-21.25,5.32-45.98,21.75-13.1,8.71-15.16,14.26-14.31,16.17,1.08,2.42,6.14,3.67,7.66,3.28,3.15-1.2,10.34-4.57,18.68-8.48,10.29-4.83,23.11-10.83,33.4-15.1,15.22-6.31,22.1-8.13,25.25-3.1,3.23,5.16-1.83,10.58-14.41,20.77-39.57,32.07-38.48,41.32-36.81,50.81,2.76-.5,11.85-3.91,37.02-24.63,16.17-13.31,30.81-27.07,30.96-27.21l6.86,7.28c-.15.14-15.54,14.62-32.33,28.36-26.22,21.48-37.33,26.28-43.38,26.28Z"/><g><polygon class="cls-1" points="839.42 251.72 421.94 126.52 403.66 170.08 830.51 303.65 840.67 252.27 839.42 251.72"/><path class="cls-2" d="m834.33,310.09l-437.41-136.88,22.15-52.77,422.37,126.71,4.91,2.17-12.02,60.77Zm-423.94-143.14l416.29,130.27,8.23-41.63-410.11-122.99-14.42,34.34Z"/></g><g><path class="cls-2" d="m575.87,257.95c-.29-2.21-3.12-2.96-4.46-1.17-6.74,8.93-19.38,28.61-5.67,35.26,14.09,6.84,11.78-21.55,10.14-34.08Z"/><path class="cls-2" d="m569.68,298.09c-1.76,0-3.79-.43-6.12-1.56-4.46-2.17-7.39-5.68-8.47-10.16-2.45-10.19,5.35-23.36,12.34-32.61,1.84-2.44,4.94-3.51,7.9-2.73,2.95.78,5.12,3.24,5.52,6.27h0c4.21,32.05-2.94,37.21-5.29,38.9-1.37.99-3.32,1.89-5.86,1.89Zm1.97-32.96c-5.21,8.01-7.78,14.98-6.84,18.9.25,1.05.84,2.4,3.12,3.5,1.28.62,1.81.55,1.81.54,1.32-.81,3.3-7.51,1.91-22.95Zm-.73-6.53h0s0,0,0,0Z"/></g><g><path class="cls-2" d="m730.64,221.72l-206.46-59.2,4.34-37.19,202.12,51.4v44.99Zm-195.54-66.47l185.54,53.2v-23.94l-183.51-46.67-2.03,17.41Z"/><g><path class="cls-2" d="m542.12,10.87c98.5-30.1,206.36,41.75,206.36,41.75l-22.18,122.91-192.99-49.8,8.8-114.86Z"/><path class="cls-2" d="m730.26,181.71l-202.26-52.19,9.39-122.44,3.26-1c52.2-15.95,106.73-3.54,143.28,9.67,39.39,14.24,66.19,31.95,67.32,32.7l2.73,1.82-23.72,131.44Zm-191.65-59.78l183.72,47.41,20.62-114.31c-7.77-4.81-31.39-18.68-62.66-29.96-34.29-12.37-84.96-24.02-133.46-10.38l-8.22,107.24Z"/></g></g></svg>