<?xml version="1.0" encoding="UTF-8"?><svg id="Layer_1" xmlns="http://www.w3.org/2000/svg" width="863.5" height="976.14" viewBox="0 0 863.5 976.14"><defs><style>.cls-1{fill:#13429a;}.cls-1,.cls-2,.cls-3{stroke-width:7px;}.cls-1,.cls-2,.cls-3,.cls-4{stroke:#13429a;stroke-miterlimit:10;}.cls-2{fill:none;}.cls-3,.cls-4{fill:#f76345;}.cls-4{stroke-width:6.6px;}</style></defs><g><path class="cls-2" d="m139.19,391.86l8.11,45.33s21.28-6.52,29.83-2.38c3.96,1.92,9.04,9.29,4.59,10.02-30.56,5.02-56.53,11.27-80.55,13.55-4.61.44-5.4-8.26-2.3-11.71,6.1-6.77,34.15-7.14,34.15-7.14l-8.63-48.85"/><path class="cls-2" d="m121.24,380.45l-4.74-30s-37.77-11.23-44.56-21.24c-11.13-16.38-11.88-53.93-14.86-77.79-.08-.63,8.11-2.07,8.11-2.07,0,0,14.22-2.7,20.88-3.97,8.86-1.69,26.73-4.4,35.74-4.88,8.25-.44,29.42-.26,29.42-.26,0,0,6.01-.17,6.26.45,10.15,24.66,16.06,53.6,11.1,70.82-3.12,10.87-37.87,37.83-37.87,37.83l5.6,29"/><path id="Path_185" class="cls-4" d="m155.36,271.5s5.07,19.21,5.13,25.8c.04,5.02-2.06,11.52-7.04,19.16-2.97,4.56-12.82,10.84-17.75,13.59-3.89,2.17-12.65,4.84-17.1,5.52-3.95.61-12.04-.08-15.9-.94-4.32-.96-12.29-4.93-15.71-7.5-3.78-2.83-9.31-10.58-11.1-14.77-3.11-7.26-5-31.04-5-31.04,0,0,7.07-2.26,9.44-2.97,4.16-1.25,12.69-3.65,17.04-3.62,4.74.03,14.2,3.25,18.61,3.04,3.91-.18,16.44-.44,20.3-1.09l19.09-5.18Z"/><path id="Path_187" class="cls-2" d="m158.5,243.88s-13.81,7.23-19.06,8.63c-4.46,1.19-18.97,6.64-29,7.58-12.09,1.13-23.28,2.04-30.9.77-5.75-.96-22.18-7.13-22.18-7.13"/></g><path class="cls-2" d="m541.54,209.41s13.7,65.21-134.39,65.21c-23.23,72.59,84.21,87.11,84.21,87.11,0,0,4.69,6.85-2.61,15.14-26.83,30.45-36.87,20.88-29.33,28.41,20.85,20.85,46.08,50.64,145.19,49.36,102.28-1.32,95.57-44.62,94.25-24.43-3.03,46.28-55.91,153.57-138,124.01-42.6-15.35-89.82-47.31-89.82-47.31,0,0-26.13,5.81-5.81,23.23-2.9,69.69-23.23,168.42,69.69,185.84,40.07,9.54,58.43,6.54,66.3,3.36,3.24-1.31,6.92-.17,8.69,2.83,9.77,16.54,41.94,60.47,107.95,60.52,78.4-31.87,58.08-40.58,58.08-40.58l-26.13-328.12s66.79-58.08,43.56-101.63c-23.23-43.56-49.36-11.62-49.36-11.62l-5.61-29.75"/><path class="cls-1" d="m619.12,733.41s-120.05,44.86-161.71,49.3c-191.61,20.41-196.86-237.65-196.78-269.86,0-2.44-.26-4.89-.81-7.28-1.52-6.69-2.9-8.69-8.43-9.21-23.3-2.18-51.06-19.12-79.46,13.76-54.51,63.11-1.9,426.08,286.02,459.95,44.72,5.26,302.31.54,367.07,2.34,5.79.16,34.11-1.43,34.11-1.43l.85-161.67c.1-2.21-.49-4.37-1.69-6.23-8.09-12.54-41.93-60.95-82.37-60.95"/><path class="cls-2" d="m113.87,512.72s-31.47,60.25-31.47,74.77,16.82,9.76,20.33,5.81c14.9-16.78,37.28-42.83,58.82-75.67,0,0,0,0,0,0,7.01-26.95,94.04-22.35,94.61-22.32,0,0,0,0,0,0,.34-.16,37.69-17.8,26.13-98.73-11.61-81.28-86.34-50.84-86.39-50.82,0,0,0,0,0,0-.04.01-39.77,13.52-55.4,27.51-7.77,6.95-9.2,17.79,2.41,19.68,34.48,5.62,64.15-4.18,66.62-5.02.04-.01.06.03.03.06-1.75,1.52-19.97,17.6-15.41,22.9,0,0,.02.01.03.01,11.78.18,25.18-7.37,26.94-8.4.03-.02.07.02.04.05-3.13,3.44-53.51,59.18-31,64.81"/><path class="cls-2" d="m91.7,436.29c-14.56,0-65.19,6.74-46.19-35.36,21.9-33.39,67.23-41.8,77.6-16.91,10.36,24.9-43.35,17.23-43.35,35.78"/><path class="cls-2" d="m113.87,512.72s-72.9,68.64-76.15,50.09c-1.98-11.29-4.79-21.58,38.4-56.59,46.94-38.04-42.91,8.72-58.08,14.48-5.98,2.27-30.71-6.45,2.18-28.31,48.76-32.42,68.86-38.57,68.11-55.36"/><polygon class="cls-3" points="851.63 251.72 434.15 126.52 415.86 170.08 842.71 303.65 852.88 252.27 851.63 251.72"/><path class="cls-1" d="m588.08,257.95c-.29-2.21-3.12-2.96-4.46-1.17-6.74,8.93-19.38,28.61-5.67,35.26,14.09,6.84,11.78-21.55,10.14-34.08Z"/><g><polygon class="cls-2" points="737.84 215.09 737.84 180.62 545.03 131.59 541.84 158.89 737.84 215.09"/><path class="cls-1" d="m554.32,10.87c98.5-30.1,206.36,41.75,206.36,41.75l-22.18,122.91-192.99-49.8,6.11-106.31,2.7-8.55Z"/></g></svg>