<svg width="1423" height="227" viewBox="0 0 1423 227" fill="none" xmlns="http://www.w3.org/2000/svg">
<path d="M1180.39 171.123C1167.41 166.134 1096.62 140.191 1028.18 135.202C916.956 127.09 932.156 182.099 875.972 182.099C834.089 182.099 810.594 149.171 756.453 139.193C733.377 134.943 671.666 160.147 632.848 167.132C621.397 169.197 609.374 171.123 597.575 171.123L59.2604 170.125" stroke="#13429A" stroke-width="5" stroke-miterlimit="10"/>
<path d="M974.039 137.198C974.039 137.198 953.608 140.192 916.833 167.132L974.039 137.198Z" fill="#13429A"/>
<path d="M974.039 137.198C974.039 137.198 953.608 140.192 916.833 167.132" stroke="#13429A" stroke-width="5" stroke-miterlimit="10"/>
<path d="M1148.72 160.147C1181 169.627 1234.92 189.692 1068.02 140.191L1148.72 160.147Z" fill="#13429A"/>
<path d="M1148.72 160.147C1181 169.627 1234.92 189.692 1068.02 140.191" stroke="#13429A" stroke-width="5" stroke-miterlimit="10"/>
<path d="M113.912 170.126C113.912 170.126 50.5774 173.119 59.7711 170.126C66.2681 168.01 97.6699 167.422 125.578 169.946C149.666 172.121 194.613 171.124 194.613 171.124" fill="#13429A"/>
<path d="M113.912 170.126C113.912 170.126 50.5774 173.119 59.7711 170.126C66.268 168.01 97.6699 167.422 125.578 169.946C149.666 172.121 194.613 171.124 194.613 171.124" stroke="#13429A" stroke-width="5" stroke-miterlimit="10"/>
<path d="M696.551 150.1C696.551 150.1 652.288 171.123 588.923 171.123L696.551 150.1Z" fill="#13429A"/>
<path d="M696.551 150.1C696.551 150.1 652.288 171.123 588.923 171.123" stroke="#13429A" stroke-width="5" stroke-miterlimit="10"/>
<path d="M189.505 171.123C189.505 171.123 201.018 171.492 203.807 170.125L189.505 171.123Z" fill="#13429A"/>
<path d="M189.505 171.123C189.505 171.123 201.018 171.492 203.807 170.125" stroke="#13429A" stroke-width="5" stroke-miterlimit="10"/>
</svg>
