<?xml version="1.0" encoding="UTF-8"?><svg id="Layer_1" xmlns="http://www.w3.org/2000/svg" width="1423" height="66" viewBox="0 0 1423 66"><defs><style>.cls-1{fill:#13429a;}.cls-2{fill:none;stroke:#13429a;stroke-miterlimit:10;stroke-width:5px;}</style></defs><path class="cls-2" d="m1180.39,45.12c-12.98-4.99-83.77-30.93-152.21-35.92-111.22-8.11-96.02,46.9-152.21,46.9-41.88,0-65.38-32.93-119.52-42.91-23.08-4.25-84.79,20.95-123.6,27.94-11.45,2.07-23.47,3.99-35.27,3.99l-538.31-1"/><path class="cls-1" d="m974.04,11.2s-20.43,2.99-57.21,29.93l57.21-29.93Z"/><path class="cls-2" d="m974.04,11.2s-20.43,2.99-57.21,29.93"/><path class="cls-1" d="m1148.72,34.15c32.28,9.48,86.2,29.54-80.7-19.96l80.7,19.96Z"/><path class="cls-2" d="m1148.72,34.15c32.28,9.48,86.2,29.54-80.7-19.96"/><path class="cls-1" d="m113.91,44.13s-63.33,2.99-54.14,0c6.5-2.12,37.9-2.7,65.81-.18,24.09,2.18,69.04,1.18,69.04,1.18"/><path class="cls-2" d="m113.91,44.13s-63.33,2.99-54.14,0c6.5-2.12,37.9-2.7,65.81-.18,24.09,2.18,69.04,1.18,69.04,1.18"/><path class="cls-1" d="m696.55,24.1s-44.26,21.02-107.63,21.02l107.63-21.02Z"/><path class="cls-2" d="m696.55,24.1s-44.26,21.02-107.63,21.02"/><path class="cls-1" d="m189.51,45.12s11.51.37,14.3-1l-14.3,1Z"/><path class="cls-2" d="m189.51,45.12s11.51.37,14.3-1"/></svg>