<svg width="283" height="109" viewBox="0 0 283 109" fill="none" xmlns="http://www.w3.org/2000/svg">
<path d="M261.006 26.6784C233.426 34.4291 235.327 53.9543 235.322 61.9652C235.317 69.9761 233.237 80.5 222.39 92.5151C208.847 107.517 193.257 102.979 155 100C120.468 97.3114 114 96.066 73.6496 103.629C40 107 26 103.63 1.00003 96.066" stroke="#13429A" stroke-width="5" stroke-miterlimit="10"/>
<path d="M242.551 36.0207C242.551 36.0207 282.877 38.9874 279.988 20.2566C278.902 13.2328 275.705 9.51772 272.123 7.62223C266.022 4.38296 258.815 6.93542 255.307 13.2081L242.551 36.0207Z" fill="#13429A" stroke="#13429A" stroke-width="5" stroke-miterlimit="10"/>
<path d="M233.998 54.5262C233.998 54.5262 206.081 29.2179 216.096 21.8357C216.197 21.7619 216.297 21.6881 216.397 21.6217C222.045 17.57 229.556 21.4113 230.555 28.8573L233.998 54.5262Z" fill="#13429A" stroke="#13429A" stroke-width="5" stroke-miterlimit="10"/>
<path d="M229.893 82.2045C229.714 82.0464 270.942 90.5756 262.377 70.3651C262.285 70.2749 262.192 70.1846 262.099 70.0944C256.91 65.0403 249.256 64.861 243.898 69.661L229.893 82.2045Z" fill="#13429A" stroke="#13429A" stroke-width="5" stroke-miterlimit="10"/>
</svg>
