<?xml version="1.0" encoding="UTF-8"?>
<svg id="Layer_1" data-name="Layer 1" xmlns="http://www.w3.org/2000/svg" viewBox="0 0 107.3 273.81">
  <defs>
    <style>
      .cls-1 {
        fill: none;
        stroke-width: 4px;
      }

      .cls-1, .cls-2 {
        stroke: #13429a;
        stroke-miterlimit: 10;
      }

      .cls-2 {
        fill: #13429a;
        stroke-width: 3px;
      }
    </style>
  </defs>
  <path class="cls-1" d="m48.63,84.42s-18.5,17.5-15.5,34.5c0,19,7.84,137.13,7.84,137.13,0,0,3.52,5.98-8.16,10.92s-21.68-5.05-17.68-13.05,9.5-142.5,9.5-142.5c0,0-4.71-14.91-14.47-29.78-2.57-3.92-3.87-8.53-3.63-13.22,1.38-26.59,2.86-63.33,5.6-61.51,3,2,5,13,3,51-1.5,13.5,4.5,13.5,4.5,13.5,0,0,3-2,3-5,0-3.61-4-62,1-58,2.67,2.13,4,64,7,62s-2-66,5-62-2,64,5,61,2-60,2-60c0,0-1.23-4.13,2.39-2.56s13.61,56.56,8.61,67.56-6,11-6,11"/>
  <path class="cls-1" d="m80.9,157.01c.13-3.19.5-6.36,1.01-9.52,1.03-6.34-.41-17.19-13.78-27.05-17-12.53,7.37-116.16,14.19-109.84,10.81-.69,11.81,6.31,12.81,20.31s-4,164,0,174.73c4,24.27,6,45.27,6,45.27,0,0,4.22,17.74-8.39,17.37s-21.61-19.37-17.61-38.37c3.22-15.3,5.14-57.16,5.77-72.9Z"/>
  <path class="cls-2" d="m10.16,81.64l13.52,36.6c.09.25.49,1.95.45,1.68-1-6-7.24-31.95-12-32"/>
  <path class="cls-2" d="m94.51,202.33l3.5,63.32c.02.32.46.41.59.11,1.53-3.5,3.53-10.85,2-19.95-1.36-8.1-6.09-43.48-6.09-43.48Z"/>
</svg>