<?xml version="1.0" encoding="UTF-8"?><svg id="Layer_1" xmlns="http://www.w3.org/2000/svg" width="298.78" height="703.02" viewBox="0 0 298.78 703.02"><defs><style>.cls-1{fill:#13429a;}</style></defs><path class="cls-1" d="m240.4,571.82c-7.84,0-19.64-3.36-24.23-8.16-4.52-4.72-7.27-17.75-5.08-24.03,2.41-6.92,14.18-16.72,21.71-18.09h0c4.69-.85,15.91,2.31,18.11,2.96l.13.04c4.88,1.63,10.11,9.73,10.94,14.16.89,4.74-.28,14.4-2.93,18.93-1.51,2.59-8.47,12.52-14.86,13.86-1.09.23-2.38.34-3.79.34Zm-5.58-43.45c-.31,0-.57.02-.78.06h0c-4.99.9-14.77,8.98-16.34,13.5-1.29,3.71.89,14.12,3.53,16.89,3.39,3.54,16.06,6.96,21.52,5.81,2.47-.52,7.79-6.33,10.26-10.55,1.58-2.7,2.75-10.6,2.09-14.09-.5-2.66-4.38-8.11-6.24-8.8-5-1.45-11.33-2.82-14.04-2.82Z"/><path class="cls-1" d="m129.46,480.69c-3,0-5.71-.14-7.9-.43-8.08-1.07-28.2-10.23-30.46-11.27l-2.11-.97.07-2.32c0-.31.93-31.27.98-41.51.17-40.04-.43-116.86-2.29-154.55-.86-17.49-5.44-70.27-5.49-70.8l6.97-.61c.05.53,4.63,53.43,5.5,71.06,1.86,37.82,2.47,114.8,2.3,154.92-.04,8.66-.7,31.9-.91,39.36,7.05,3.15,21,9.03,26.35,9.74,9.18,1.21,28.92-.65,38.4-3.62,4.23-1.33,15.04-6.75,20.75-9.71-.5-10.65-2.66-56.37-3.19-72.81-.82-25.34-1.75-75.83-2.08-101.05-.3-22.65-.88-90.96-.89-91.64l7-.06c0,.69.59,68.98.89,91.61.33,25.19,1.27,75.62,2.08,100.92.6,18.51,3.26,74.38,3.29,74.94l.11,2.22-1.97,1.04c-.71.38-17.51,9.23-23.89,11.23-8.14,2.55-22.71,4.31-33.51,4.31Z"/><path class="cls-1" d="m153.61,260.35c-7.47,0-15.55-11.93-15.63-12.05-3.36-5.1-5.4-15.14-7.06-24.15l-.1-.53c-.94-5.12-2.08-5.63-2.13-5.65-.07-.01-.44.03-1.11.4-7.16,3.98-13.94-2.1-16.81-6.33l-.06-.09-4.74-7.44c-3.22,3.62-7.35,7.32-10.8,7.32h-.03c-4.7-.03-8.73-5.52-12.38-11.44-3.95-6.41-8.13-22.37-5.6-30.46,2.19-6.98,12.89-18.27,20.43-19.83,6.57-1.36,21.01,2.88,28.76,5.43l-1.87-42.69,6.99-.31,2.11,48.26,1.45-1.69c-.2-.17-.35-.24-.36-.24,1.54.61,8.07.02,11.2-.27,1.4-.13,2.68-.24,3.71-.31,2.6-.16,6.89-1.92,11.04-3.62,7.35-3.01,14.94-6.13,20.55-4.07,8.45,3.1,10.06,14.11,12.09,28.04l.29,1.96c1.42,9.63.73,14.43-2.38,16.56-1.08.74-3.38,1.7-6.6-.14-1.46-.83-3.36-.48-4.69-.03-3.37,1.13-6.08,3.73-6.54,4.63-.76,3.98-1.87,14.83-2.06,18.77-.45,8.94-1.17,18.99-4.06,25.15-.32.68-.64,1.41-.97,2.17-2.27,5.16-5.39,12.23-12.23,12.65-.14,0-.29.01-.43.01Zm-24.93-49.39c1.22,0,2.24.31,3.01.67,4.45,2.1,5.55,8.14,6.03,10.72l.1.53c1.02,5.59,3.16,17.23,6.01,21.56,2.71,4.11,7.96,8.91,9.75,8.91.01,0,.02,0,.03,0,2.59-.16,4.63-4.78,6.26-8.49.35-.81.7-1.59,1.04-2.32,2.55-5.42,3.13-16.97,3.41-22.52.21-4.27,1.39-15.72,2.21-19.91.68-3.46,5.14-7.15,9.2-9.01,4.15-1.9,8.17-2.11,11.45-.64.16-1.33.2-3.95-.52-8.87l-.29-1.97c-1.63-11.17-3.04-20.82-7.58-22.49-3.06-1.12-9.95,1.71-15.49,3.98-4.89,2.01-9.51,3.9-13.26,4.13-.98.06-2.19.17-3.51.29-8.27.75-13.48,1.05-16.05-1.16l.02-.02-1.61-.58c-8.85-3.21-24.77-7.9-29.86-6.84-4.49.93-13.57,9.95-15.17,15.07-1.68,5.37,1.42,19.09,4.88,24.69,3.93,6.38,5.8,7.77,6.45,8.06,1.55-.63,5.43-4.47,8.38-8.35l3.04-4,9.99,15.69c.3.42,4.37,5.92,7.61,4.12,1.7-.95,3.21-1.28,4.49-1.28Zm-33.33-6.13h0Z"/><path class="cls-1" d="m123.48,139.82c-1.26,0-2.45-.1-3.51-.31-6.45-1.29-18.9-7.71-22.87-13.95-4.61-7.24-5.82-25.72-3.19-33.26,3.37-9.66,9.29-16.66,14.51-22.84,2.51-2.97,4.88-5.77,6.59-8.47,7.78-12.24,28.67-46.62,28.88-46.97l4.91-8.08,6.55,39.7c2.31,10.33,7.4,18.77,11.11,24.94,2.16,3.58,3.86,6.4,4.72,8.93,2.35,6.86,1.34,21.93-1.92,28.8-3.32,6.97-13.19,20.26-20.51,24.41-4.96,2.81-16.87,7.09-25.27,7.09Zm21.49-114.11c-6.73,11.03-18.59,30.43-24.05,39.03-1.97,3.11-4.49,6.08-7.16,9.24-4.83,5.72-10.3,12.19-13.25,20.63-2.11,6.05-.63,22.32,2.48,27.2,2.53,3.97,12.93,9.76,18.34,10.84,5.46,1.09,18.41-2.85,23.96-6,5.67-3.21,14.73-15.21,17.64-21.33,2.47-5.2,3.38-18.39,1.62-23.52-.63-1.83-2.24-4.5-4.1-7.59-3.98-6.6-9.43-15.64-11.97-27.13l-.04-.19-3.49-21.17Z"/><path class="cls-1" d="m227.94,691.65c-17.86,0-38.02-1.14-55.93-2.15-17.4-.98-32.43-1.83-41.62-1.49-8.25.31-16.33.82-24.14,1.31-32.23,2.04-62.67,3.96-95.66-9.15-2.15-.86-3.9-2.88-5.19-6.03-1.78-4.33-2.66-11.04-1.03-14.77,2.1-4.83,10.73-12.84,16.99-13.22,13.23-.81,49.58-.97,60.98-1,.37-13.56,1.72-63.71,1.78-78.44.06-12.82-1.38-51.88-1.78-62.25-7.13-2.07-19.27-6.12-22.13-10.44-3.55-5.37-4.43-14.07-2.1-20.71,1.42-4.04,6.81-16.51,12.77-20.72,4.54-3.21,18.16-5.55,20.84-5.98l1.12,6.91c-6.01.98-15.55,3.11-17.92,4.79-3.39,2.4-8.23,11.71-10.21,17.33-1.61,4.58-1.02,10.95,1.33,14.52,1.32,1.75,10.95,5.61,20.61,8.24l2.48.68.1,2.57c.08,2.04,1.95,50.19,1.88,65.09-.08,17.07-1.86,81.35-1.88,82l-.09,3.4h-3.4c-.49,0-48.72.06-63.95,1-2.78.17-9.57,5.74-11,9.03-1.06,2.43.64,10.4,2.45,11.53,31.46,12.5,61.15,10.62,92.57,8.64,7.86-.5,15.98-1.01,24.32-1.32,9.51-.35,24.7.5,42.28,1.5,34.1,1.93,76.54,4.33,93.67-1.54,6.2-2.12,17.68-10.28,18.51-14.89.23-1.29-1.19-5.15-4.45-9.04-2.8-3.35-5.08-4.43-5.74-4.43-24.93,0-69.84-4.13-70.29-4.17l-2.93-.27-5.53-69.08,5.27,2.15c1,.41,24.54,10.03,29.25,12.27,8.21,3.91,22.7,5.41,31.01,3.21,6.08-1.61,17.54-10.98,21.33-16.54,3.83-5.61,6.15-21.29,5.85-29.12-.3-7.78-6.97-23.9-11.33-30.96-3.18-5.17-13.49-14.24-19.27-16.09-5.4-1.73-16.72-2.43-22.42-1.38-3.22.59-9.96,4.22-14.88,6.86-2.88,1.55-5.37,2.89-7.23,3.72-2.84,1.26-10.73,6.2-13.53,8l-4.88,3.14-2.59-30.14,2.38-.98c.1-.04,10.01-4.11,13.07-5.71,2.65-1.39,6.69-4.25,7.73-5.73,2.45-3.49,4.24-14.05,3.08-18.23-.56-2.02-5.53-6.47-9.21-8.71-2.23-1.35-13.68-2.1-22.99-1.95l-.11-7c4.99-.08,21.68-.1,26.74,2.97.11.06,10.6,6.58,12.33,12.83,1.73,6.26-.42,18.88-4.1,24.12-2.33,3.32-8.31,6.91-10.22,7.91-2.37,1.24-8.03,3.64-11.27,4.99l1.16,13.52c3.29-2.02,7.37-4.46,9.58-5.44,1.62-.72,4.11-2.06,6.75-3.48,5.92-3.18,12.62-6.79,16.93-7.58,6.81-1.25,19.36-.48,25.83,1.6,7.47,2.4,19.13,12.67,23.09,19.08,4.8,7.79,12,25.05,12.36,34.36.3,7.81-1.81,25.63-7.07,33.33-4.65,6.81-17.51,17.29-25.33,19.36-9.79,2.59-26.19.91-35.8-3.66-3.2-1.52-16.2-6.9-23.63-9.95l4.15,51.85c10.37.91,45.77,3.88,66.71,3.88,4.61,0,8.94,4.35,11.11,6.94,3.43,4.1,6.8,10.13,5.97,14.77-1.52,8.52-16.08,17.87-23.13,20.28-8.92,3.05-23.65,4.06-40.4,4.06Z"/></svg>