<?xml version="1.0" encoding="UTF-8"?>
<svg id="Layer_1" data-name="Layer 1" xmlns="http://www.w3.org/2000/svg" viewBox="0 0 1440 859">
  <defs>
    <style>
      .cls-1, .cls-2 {
        fill: none;
      }

      .cls-1, .cls-2, .cls-3, .cls-4, .cls-5 {
        stroke-miterlimit: 10;
      }

      .cls-1, .cls-4, .cls-5 {
        stroke: #13429a;
      }

      .cls-1, .cls-5 {
        stroke-width: 6px;
      }

      .cls-2 {
        stroke-width: 5px;
      }

      .cls-2, .cls-3 {
        stroke: #e76345;
      }

      .cls-3 {
        fill: #e76345;
        stroke-width: 7px;
      }

      .cls-4 {
        stroke-width: 3px;
      }

      .cls-4, .cls-5 {
        fill: #13429a;
      }
    </style>
  </defs>
  <path class="cls-3" d="m1283.17,698.3c42.4-11.02,36.01,33.09,36.01,33.09,0,0-13.83,31.81-46.55,7.58,0,0-31.86-29.64,10.55-40.68"/>
  <line class="cls-2" x1="1336.28" y1="683.24" x2="1397.97" y2="630.95"/>
  <line class="cls-2" x1="1336.28" y1="717.57" x2="1427.35" y2="722.34"/>
  <line class="cls-2" x1="1319.64" y1="752.51" x2="1381.82" y2="817.95"/>
  <line class="cls-2" x1="1284.87" y1="766.92" x2="1279.65" y2="842.62"/>
  <line class="cls-2" x1="1246.87" y1="731.39" x2="1171.29" y2="740.52"/>
  <line class="cls-2" x1="1275.97" y1="674.31" x2="1246.87" y2="610"/>
  <line class="cls-2" x1="1304.04" y1="677.43" x2="1309.3" y2="636.58"/>
  <line class="cls-2" x1="1246.87" y1="696.53" x2="1209.09" y2="683.24"/>
  <line class="cls-2" x1="1258.18" y1="761.63" x2="1227.97" y2="792.44"/>
  <g>
    <path class="cls-1" d="m77.97,556.84s36.68,68.18,21.45,145.29c-15.13,76.57,120.77,80.02,120.77,80.02"/>
    <path class="cls-4" d="m144.72,770.38c-1.64-5.01-8.25-6.08-11.37-1.82-10.6,14.43-13.19,41.11,3.43,48.13,9.69,4.09,8.75-1.79,21.9-3.03,2.42-.23,4.24-2.34,4.86-4.69,1.91-7.25-6.3-7.96-14.16-13.02-6.58-4.24-1.68-16.53-4.65-25.57Z"/>
    <path class="cls-4" d="m217.99,783.69c-2.68-.18-3.73-3.57-1.64-5.27,9.57-7.75,33.52-15.28,38.61-7.04,6,9.72-15.78,23.63-19.98,19.82-2.95-2.67-.03.3-1.09-.58-2.74-2.29-8.65-6.45-15.9-6.93Z"/>
    <path class="cls-4" d="m121.91,756.04c-1.63.54-2.91-1.43-1.75-2.7,6.94-7.52,17.46-21.91,6.95-31.4-14.77-13.33,19.41-37.37,25.25-19.59,4.62,14.09-8.16,36.54-13.66,45.25-1.47,2.32-3.7,4.06-6.31,4.93l-10.48,3.5Z"/>
    <path class="cls-5" d="m106.13,752.52s-29.96,51.73-39.63,35.2c-9.67-16.53,39.63-35.2,39.63-35.2Z"/>
    <path class="cls-5" d="m95.73,717.23s-15.81,11.04-23.89,11.02c-8.08-.01-30.93-13.35-28.34-.54,1.45,7.19,13.54,12.97,23.86,16.67,8.49,3.04,17.77-1.55,20.6-10.1,3.85-11.64,15.35-17.91,7.76-17.04Z"/>
    <path class="cls-4" d="m192.75,779.76c-1.13.96-2.74-.39-1.99-1.67,5.46-9.36,14.32-25.93,10.92-29.62-4.8-5.21,17.94-21.32,19.32-6.22,1.02,11.18-18.2,29.01-28.25,37.52Z"/>
    <path class="cls-4" d="m172.27,776.97s4.81,22.63,12.08,33.34c1.25,1.84.42,2.93,3.54,3.81,9.69,2.76,18.39,2.07,18.27-8.01-.07-5.94-2.57-11.73-6.45-11.32-8.97.94-24.46-18.19-24.46-18.19l-2.98.37Z"/>
    <path class="cls-4" d="m156.89,768.22c-1.48,1.63-4.18.29-3.75-1.87,1.51-7.68,4.78-19.55,11.29-26.03,10.15-10.1,16.33-24.06,18.24-16.02,1.77,7.47-5.27,20.49-6.28,22.31-.08.14-.17.27-.28.39l-19.21,21.2Z"/>
  </g>
</svg>