<?xml version="1.0" encoding="UTF-8"?>
<svg id="Layer_1" data-name="Layer 1" xmlns="http://www.w3.org/2000/svg" viewBox="0 0 1440 859">
  <defs>
    <style>
      .cls-1, .cls-2 {
        fill: none;
      }

      .cls-1, .cls-2, .cls-3, .cls-4, .cls-5 {
        stroke-miterlimit: 10;
      }

      .cls-1, .cls-4, .cls-5 {
        stroke: #13429a;
      }

      .cls-1, .cls-5 {
        stroke-width: 6px;
      }

      .cls-2 {
        stroke-width: 5px;
      }

      .cls-2, .cls-3 {
        stroke: #e76345;
      }

      .cls-3 {
        fill: #e76345;
        stroke-width: 7px;
      }

      .cls-4 {
        stroke-width: 3px;
      }

      .cls-4, .cls-5 {
        fill: #13429a;
      }
    </style>
  </defs>
  <path class="cls-3" d="m153.17,135.3c42.4-11.02,36.01,33.09,36.01,33.09,0,0-13.83,31.81-46.55,7.58,0,0-31.86-29.64,10.55-40.68"/>
  <line class="cls-2" x1="206.28" y1="120.24" x2="267.97" y2="67.95"/>
  <line class="cls-2" x1="206.28" y1="154.57" x2="297.35" y2="159.34"/>
  <line class="cls-2" x1="189.64" y1="189.51" x2="251.82" y2="254.95"/>
  <line class="cls-2" x1="154.87" y1="203.92" x2="149.65" y2="279.62"/>
  <line class="cls-2" x1="116.87" y1="168.39" x2="41.29" y2="177.52"/>
  <line class="cls-2" x1="145.97" y1="111.31" x2="116.87" y2="47"/>
  <line class="cls-2" x1="174.04" y1="114.43" x2="179.3" y2="73.58"/>
  <line class="cls-2" x1="116.87" y1="133.53" x2="79.09" y2="120.24"/>
  <line class="cls-2" x1="128.18" y1="198.63" x2="97.97" y2="229.44"/>
  <g>
    <path class="cls-1" d="m1375.33,313.12s-36.68-68.18-21.45-145.29c15.13-76.57-120.77-80.02-120.77-80.02"/>
    <path class="cls-4" d="m1308.58,99.58c1.64,5.01,8.25,6.08,11.37,1.82,10.6-14.43,13.19-41.11-3.43-48.13-9.69-4.09-8.75,1.79-21.9,3.03-2.42.23-4.24,2.34-4.86,4.69-1.91,7.25,6.3,7.96,14.16,13.02,6.58,4.24,1.68,16.53,4.65,25.57Z"/>
    <path class="cls-4" d="m1235.31,86.27c2.68.18,3.73,3.57,1.64,5.27-9.57,7.75-33.52,15.28-38.61,7.04-6-9.72,15.78-23.63,19.98-19.82,2.95,2.67.03-.3,1.09.58,2.74,2.29,8.65,6.45,15.9,6.93Z"/>
    <path class="cls-4" d="m1331.39,113.92c1.63-.54,2.91,1.43,1.75,2.7-6.94,7.52-17.46,21.91-6.95,31.4,14.77,13.33-19.41,37.37-25.25,19.59-4.62-14.09,8.16-36.54,13.66-45.25,1.47-2.32,3.7-4.06,6.31-4.93l10.48-3.5Z"/>
    <path class="cls-5" d="m1347.17,117.44s29.96-51.73,39.63-35.2c9.67,16.53-39.63,35.2-39.63,35.2Z"/>
    <path class="cls-5" d="m1357.57,152.73s15.81-11.04,23.89-11.02c8.08.01,30.93,13.35,28.34.54-1.45-7.19-13.54-12.97-23.86-16.67-8.49-3.04-17.77,1.55-20.6,10.1-3.85,11.64-15.35,17.91-7.76,17.04Z"/>
    <path class="cls-4" d="m1260.55,90.2c1.13-.96,2.74.39,1.99,1.67-5.46,9.36-14.32,25.93-10.92,29.62,4.8,5.21-17.94,21.32-19.32,6.22-1.02-11.18,18.2-29.01,28.25-37.52Z"/>
    <path class="cls-4" d="m1281.03,92.99s-4.81-22.63-12.08-33.34c-1.25-1.84-.42-2.93-3.54-3.81-9.69-2.76-18.39-2.07-18.27,8.01.07,5.94,2.57,11.73,6.45,11.32,8.97-.94,24.46,18.19,24.46,18.19l2.98-.37Z"/>
    <path class="cls-4" d="m1296.41,101.74c1.48-1.63,4.18-.29,3.75,1.87-1.51,7.68-4.78,19.55-11.29,26.03-10.15,10.1-16.33,24.06-18.24,16.02-1.77-7.47,5.27-20.49,6.28-22.31.08-.14.17-.27.28-.39l19.21-21.2Z"/>
  </g>
</svg>