<svg width="109" height="31" viewBox="0 0 109 31" fill="none" xmlns="http://www.w3.org/2000/svg">
<path d="M84.8317 16.6661C90.3445 15.9379 101.37 15.7841 101.37 20.9944C101.37 26.2047 92.8157 27.0063 88.8237 23.4994L84.8317 16.6661C81.043 17.269 76.9806 17.7595 72.8558 18.0259L74.5666 18.9905C77.7982 20.4935 83.5771 24.4012 80.8397 28.0083C78.1024 31.6154 74.3765 29.5113 72.8558 28.0083C72.35 24.7722 71.6649 18.818 72.4709 18.0501C72.5738 17.9521 72.7009 17.9386 72.8558 18.0259C76.9806 17.7595 81.043 17.269 84.8317 16.6661C90.3976 15.7804 95.3731 14.6521 99.0888 13.6354C100.229 7.40455 103.309 -3.45394 106.503 2.95874C111.065 9.47165 104.221 11.9135 99.0888 13.6354C95.3731 14.6521 90.3976 15.7804 84.8317 16.6661Z" fill="#13429A"/>
<path d="M1 23.4994C10.5047 19.3245 33.7343 12.0768 50.6147 16.4855C57.3462 18.2436 65.2084 18.5199 72.8558 18.0259M101.37 12.9786C100.677 13.1894 99.9137 13.4097 99.0888 13.6354M84.8317 16.6661C90.3445 15.9379 101.37 15.7841 101.37 20.9944C101.37 26.2047 92.8157 27.0063 88.8237 23.4994L84.8317 16.6661ZM84.8317 16.6661C90.3976 15.7804 95.3731 14.6521 99.0888 13.6354M84.8317 16.6661C81.043 17.269 76.9806 17.7595 72.8558 18.0259M99.0888 13.6354C100.229 7.40455 103.309 -3.45394 106.503 2.95874C111.065 9.47165 104.221 11.9135 99.0888 13.6354ZM72.8558 18.0259C71.4871 17.2543 72.2855 24.3593 72.8558 28.0083C74.3765 29.5113 78.1024 31.6155 80.8397 28.0083C83.5771 24.4012 77.7982 20.4935 74.5666 18.9905L72.8558 18.0259Z" stroke="#13429A" stroke-width="2"/>
</svg>
