<?xml version="1.0" encoding="UTF-8"?><svg id="Layer_1" xmlns="http://www.w3.org/2000/svg" width="597.73" height="489.71" viewBox="0 0 597.73 489.71"><defs><style>.cls-1{fill:#13429a;}</style></defs><path class="cls-1" d="m245.88,432.39l-1.92-2.07L7.5,174.57,262.04,33.94l1.85,1.66,155.16,138.79-.02,1.59c-.13,9.88,1.23,22.02,3.44,24.32,3.36,3.49,20,5.48,30.75,5.77l1.28.03,69.43,62.11-278.06,164.17ZM18.71,176.38l228.48,247.11,264.96-156.43-60.4-54.03c-6.84-.26-28.25-1.55-34.32-7.87-4.85-5.05-5.4-20.86-5.4-27.66L261.08,42.47,18.71,176.38Z"/><path class="cls-1" d="m141.09,216.68c-.96-6.97-3.48-30.13,4.36-35.47,6.91-4.7,16.77.7,27.21,6.42,7.11,3.9,15.97,8.74,19.74,7.04,2.06-.92,2.18-8.91,2.25-13.69.11-7.01.21-13.63,3.37-17.45,3.51-4.23,10.68-4.24,17.61-4.25,4.19,0,8.95-.02,10.82-1.12,1.06-.62,2.38-4.66,3.17-7.07,1.44-4.39,2.79-8.53,5.81-10.57,4.07-2.76,10.23-1.36,16.2,0,3.4.77,7.25,1.64,9.03,1.22,6.79-1.62,22.13-17.71,30.21-27.48l5.39,4.46c-2.29,2.77-22.7,27.15-33.98,29.83-3.36.8-7.65-.17-12.19-1.2-3.65-.83-9.17-2.08-10.73-1.02-1.04.7-2.32,4.62-3.08,6.96-1.51,4.62-2.94,8.97-6.28,10.93-3.51,2.06-8.77,2.07-14.35,2.08-4.31,0-10.83.02-12.24,1.72-1.59,1.92-1.69,8.11-1.76,13.09-.13,8.46-.26,17.21-6.37,19.96-6.96,3.13-16.2-1.93-25.98-7.28-7.37-4.04-16.54-9.06-19.92-6.77-2.54,1.73-3.19,15.42-1.36,28.72l-6.93.95Z"/><path class="cls-1" d="m203.57,289.53c-.05-.35-1.35-8.72-1.57-17.62-.35-13.71,1.97-20.98,7.29-22.89,6.28-2.25,12.5,3.92,19.08,10.45,3.13,3.11,9.61,9.57,11.46,8.64,3.3-1.69,3.92-11.15,4.42-18.75.67-10.28,1.31-20,7.25-24.02,4.33-2.93,11.01-2.2,18.09-1.44,5,.54,11.22,1.22,13.42-.28,2.4-1.63,4.05-8.55,5.37-14.11,2.1-8.81,4.27-17.92,11.07-19.63,3.66-.92,6.43.92,8.87,2.55,3.28,2.18,6.67,4.44,13.98,2.1,11.94-3.82,34.11-24.65,34.33-24.86l4.8,5.09c-.96.9-23.55,22.13-37,26.43-10.51,3.36-16.21-.43-19.99-2.94-1.64-1.09-2.67-1.74-3.29-1.59-2.68.67-4.66,8.97-5.96,14.46-1.85,7.78-3.6,15.12-8.25,18.28-4.33,2.94-11.03,2.22-18.11,1.45-4.99-.54-11.21-1.22-13.42.28-3.11,2.1-3.71,11.29-4.19,18.68-.71,10.81-1.37,21.02-8.21,24.52-6.34,3.25-13.08-3.44-19.58-9.9-3.37-3.35-9.65-9.6-11.78-8.83-.03.01-3.02,1.49-2.65,16.06.21,8.46,1.48,16.7,1.49,16.78l-6.92,1.08Z"/><path class="cls-1" d="m262.07,327.33l-6.92-1.03c.96-6.48,4.74-27.92,12.82-31.86,3.66-1.79,9.83-1.12,17.64-.29,10.04,1.08,22.54,2.42,28.09-2.14,5.41-4.44,8.89-13.15,12.25-21.56,2.9-7.25,5.64-14.09,9.66-18.23,3.52-3.62,9.83-2.78,15.93-1.97,3.08.41,6.56.87,8.09.42,2.05-.6,5.21-4.43,7.75-7.5,3.19-3.85,6.2-7.49,9.6-8.97,4.16-1.81,13.72.05,17.65.94l-1.54,6.83c-5.67-1.28-11.89-1.91-13.31-1.35-1.87.81-4.59,4.11-7,7.01-3.64,4.4-7.07,8.55-11.18,9.75-2.95.87-6.85.35-10.98-.2-2.9-.39-8.93-1.19-9.99-.09-3.06,3.15-5.55,9.37-8.18,15.95-3.69,9.24-7.51,18.79-14.31,24.37-7.82,6.42-21.94,4.91-33.29,3.69-5.34-.57-11.98-1.29-13.83-.38-3.22,1.57-7.23,15.02-8.96,26.6Z"/><path class="cls-1" d="m390,243.96l.97-6.49c.9-5.99,14.4-57.77,14.98-59.97l.26-.98.74-.69,152.06-142.54,38.72,40.35-157.74,146.64-49.98,23.67Zm22.47-63.72c-3.21,12.33-10.04,38.76-13.08,51.53l36.62-17.35,151.74-141.06-29.01-30.23-146.27,137.11Z"/><path class="cls-1" d="m571.05,78.74c-6.87,0-13.51-.88-16.75-3.78-5.96-5.34-5.47-24.54-5.17-30.3l6.99.36c-.51,10.03.54,22.65,2.85,24.72,3.12,2.8,18.48,2.33,30.92.3l1.13,6.91c-3.68.6-11.98,1.79-19.96,1.79Z"/><polygon class="cls-1" points="243.88 462.37 1.34 196.34 24.01 185.7 26.98 192.04 12.91 198.64 245.21 453.44 507.43 297.42 496.2 284.13 501.54 279.62 518.11 299.22 243.88 462.37"/><polygon class="cls-1" points="242.54 489.71 0 223.67 22.66 213.04 25.64 219.37 11.57 225.97 243.87 480.77 506.09 324.76 494.85 311.47 500.2 306.95 516.77 326.55 242.54 489.71"/><path class="cls-1" d="m92.58,165.15l-5.23-4.65c5.77-6.5,15.39-18.57,16.66-23.31,1.65-6.17.34-20.58-2.38-26.12-3.39-6.92-12.28-18.98-17.95-21.39-7.34-3.11-17.75-6.54-23-5.98-5.16.56-20.09,8.76-24.24,14.82-3.68,5.39-5.81,20.89-4.54,27.73.6,3.19,2.99,9.03,5.1,14.18,4.1,10.01,5.7,14.38,5.01,17.26l-6.8-1.65c-.03.14-.04.22-.04.22.05-1.73-2.77-8.62-4.64-13.19-2.35-5.73-4.77-11.65-5.5-15.55-1.6-8.56.74-25.8,5.64-32.97,5.12-7.5,21.82-17.03,29.26-17.83,8.04-.87,21.2,4.25,26.49,6.5,8.36,3.55,18.13,17.87,21.5,24.75,3.51,7.15,4.98,23.1,2.86,31.01-2.1,7.88-16.55,24.3-18.19,26.15Z"/><path class="cls-1" d="m146.12,137.11l-5.23-4.65c5.77-6.5,15.39-18.57,16.66-23.31,1.65-6.17.34-20.58-2.38-26.12-3.39-6.92-12.28-18.98-17.95-21.39-7.34-3.11-17.75-6.54-23-5.98-5.16.56-20.09,8.76-24.24,14.82-3.68,5.39-5.81,20.89-4.54,27.73,1.37,7.36,9.87,29.12,9.96,29.34l-6.52,2.55c-.36-.92-8.83-22.6-10.32-30.61-1.6-8.56.74-25.8,5.64-32.97,5.12-7.5,21.81-17.03,29.26-17.83,8.03-.87,21.2,4.25,26.49,6.5,8.36,3.55,18.13,17.87,21.5,24.75,3.51,7.16,4.98,23.1,2.86,31.01-2.1,7.88-16.55,24.3-18.19,26.15Z"/><path class="cls-1" d="m195.38,109.79l-5.23-4.65c5.77-6.5,15.39-18.57,16.66-23.31,1.65-6.17.34-20.58-2.38-26.12-3.39-6.92-12.28-18.98-17.95-21.39-4.28-1.82-18.46-4.57-24.35-3.98-6.68.67-18.8,6.84-22.88,12.82-3.68,5.39-5.81,20.89-4.54,27.74,1.37,7.36,9.87,29.12,9.96,29.34l-6.52,2.55c-.36-.92-8.83-22.6-10.32-30.61-1.6-8.56.74-25.8,5.64-32.97,5.38-7.88,19.45-14.98,27.96-15.84,7.16-.72,22.56,2.28,27.79,4.5,8.36,3.55,18.13,17.87,21.5,24.75,3.51,7.15,4.98,23.09,2.86,31.01-2.11,7.88-16.55,24.3-18.19,26.15Z"/><path class="cls-1" d="m239.38,88.51l-5.23-4.65c5.77-6.5,15.39-18.57,16.66-23.31,1.65-6.17.34-20.58-2.38-26.12-3.39-6.92-12.28-18.98-17.95-21.39-7.34-3.11-17.75-6.55-23-5.98-5.16.56-20.09,8.76-24.24,14.82-3.68,5.39-5.81,20.89-4.54,27.74,1.37,7.36,9.87,29.12,9.96,29.34l-6.52,2.55c-.36-.92-8.83-22.6-10.32-30.61-1.6-8.56.74-25.8,5.64-32.97C182.58,10.44,199.27.91,206.72.1c8.04-.87,21.2,4.25,26.49,6.5,8.36,3.55,18.13,17.87,21.5,24.75,3.51,7.15,4.98,23.09,2.86,31.01-2.11,7.88-16.55,24.3-18.19,26.15Z"/></svg>