<?xml version="1.0" encoding="UTF-8"?><svg id="Layer_1" xmlns="http://www.w3.org/2000/svg" width="667" height="619" viewBox="0 0 667 619"><defs><style>.cls-1{fill:#e76345;}.cls-2{fill:#13429a;}.cls-3{fill:none;}</style></defs><g id="Group_76"><g id="Path_189"><path class="cls-1" d="m561.27,264.14l-53.06,85.18s39.1-1.75,45.39,4.54c6.28,6.28,17.8,13.96,13.27,43.99-4.54,30.02-38.4,124.98-38.4,124.98l60.4,9.43,67.38,22.34s-1.13-49.14,0-82.74,1.75-24.79,4.54-51.67,3.32-39.1-9.43-59.35c-12.74-20.25-16.93-28.54-39.45-52.72-22.52-24.18-50.62-43.99-50.62-43.99Z"/></g><g id="Path_188"><path class="cls-1" d="m319.87,228.88c6.57-3.27,13.37-6.03,20.36-8.26,52.36-15.19,100.3,0,100.3,0l-66.08,126.26-44.34,1.14-8.19-91.43s-1.74-26.69-2.05-27.71Z"/><path class="cls-1" d="m329.65,348.53l-8.23-91.9c-.69-10.63-1.81-26.75-2.03-27.62l-.1-.39.36-.19c6.57-3.27,13.44-6.06,20.43-8.29,51.92-15.07,100.12-.15,100.6,0l.57.18-66.49,127.05-45.11,1.16Zm-9.23-119.37c.42,3.43,1.83,24.82,2,27.39l8.15,90.95,43.58-1.12,65.66-125.46c-5.58-1.63-50.88-13.91-99.44.17-6.81,2.17-13.53,4.89-19.95,8.06Z"/></g><g id="Path_190"><path class="cls-1" d="m286.34,246.44l-44.51,39.02s-2.89-2.32.87,2.17c3.76,4.49,5.26,12.71,5.26,12.71,0,0,7.67-5.68,14.18-4.64s10.63,2.53,11.85,8.8-2.44,16.01-2.44,16.01c3.2-1.65,6.79-2.41,10.39-2.2,5.16.61,10.27,4.64,10.27,4.64l-5.86-76.52Z"/></g><g id="Group_74"><g id="Path_89"><path class="cls-2" d="m38.22,348.2c-.09-.37-8.98-37.19-19.11-88.39-5.44-27.51,1.17-46.26,7.67-57.14,5.34-8.94,11.42-14.15,14.26-16.28l-20.18-64.33-7.87-24.84,41.14-17.73,21.13,94.9c9.55-.97,45.14-2.57,57.88,24.95,7.28,15.72,25.94,67.43,37.76,103.16l-4.75,1.57c-11.78-35.6-30.35-87.06-37.55-102.63-12.88-27.81-54.49-21.88-54.91-21.82l-2.31.35-.51-2.28-20.31-91.22-31.43,13.55,6.51,20.53,21.31,67.93-1.65,1.02c-1.27.79-31.03,20.03-21.28,69.33,10.11,51.09,18.98,87.82,19.07,88.19l-4.86,1.18Z"/></g><g id="Path_90"><path class="cls-2" d="m22.57,121.75l-.54-4.97c6.46-.7,12.78-2.34,18.77-4.85,5.67-2.77,10.86-6.38,15.43-10.74l3.45,3.62c-4.96,4.73-10.59,8.65-16.75,11.65l-.12.06c-6.46,2.72-13.27,4.48-20.24,5.24Z"/></g><g id="Path_91"><path class="cls-2" d="m40.08,290.07c-7.34,0-12.05-.45-12.55-.5l.5-4.98c.33.03,32.86,3.09,63.53-7.54,30.76-10.66,55.21-32.44,55.45-32.65l3.34,3.72c-1.02.92-25.45,22.67-57.16,33.66-20.08,6.96-40.48,8.28-53.11,8.28Z"/></g><g id="Path_92"><path class="cls-2" d="m54.72,338.59c-8.48,0-14.13-.33-14.74-.37l.31-4.99c.41.02,41.08,2.4,71.97-5.99,19.02-5.35,36.99-15.03,51.96-27.98l3.27,3.78c-15.51,13.42-34.15,23.45-53.89,29.01-20.24,5.5-43.93,6.53-58.87,6.53Z"/></g><g id="Path_81"><path class="cls-2" d="m87.93,617h-.16c-.83-.09-20.5-2.16-29.62-25.46C49.51,569.48,1.87,353.34-.16,344.15l-.7-3.18,3.25.15c.88.04,88.92,3.97,189.88,5.54,2.59.04,2.83,2.73,2.95,4.02.13,1.5.32,3.55,1.45,5.38,1.64,2.58,4.47,4.15,7.56,4.17,3.29.14,6.19-1.75,7.38-4.69.63-1.48.78-3,.91-4.21.15-1.43.46-4.4,3.24-4.4h.03c7.42.06,18.3.1,25.31.11,1.39-.08,2.3-.28,3.27-.49,2.41-.53,4.69-1.03,11.93.23,2.14.02,4.36.06,6.7.11,3.86.07,8.23.16,13.07.16,57.81,0,89.41-.12,112.48-.21,32.67-.12,49.07-.19,99.23.21,47.54.37,62.3,0,62.44,0l1.01-.03.75.69c.54.5,13.28,12.38,18.42,28.19,2.65,8.14.79,16.42-1.36,26.01l-.36,1.59c-14.12,63.45-68.69,195.62-69.24,196.95l-.61,1.48-1.6.06-409.3,15.02ZM5.43,346.25c6.07,27.45,49.44,223.19,57.37,243.47,7.66,19.57,23.48,22.05,25.29,22.27l407.35-14.95c6.06-14.76,55.15-135.24,68.37-194.64l.36-1.6c2.07-9.24,3.71-16.54,1.48-23.37-4.08-12.54-13.68-22.71-16.36-25.38-4.11.07-20.85.3-61.56-.02-50.13-.39-66.52-.33-99.17-.21-23.07.09-54.67.21-112.5.21-4.89,0-9.28-.08-13.16-.16-2.39-.05-4.66-.09-6.86-.11l-.41-.04c-6.44-1.13-8.18-.75-10.2-.3-1.08.24-2.31.51-4.14.6h-.14c-6.48-.01-16.33-.05-23.68-.1-.14,1.38-.37,3.42-1.25,5.5-1.96,4.86-6.86,8.01-12.12,7.78-4.7-.03-9.1-2.46-11.67-6.51-1.62-2.6-1.98-5.29-2.15-7.08-89.32-1.41-168.13-4.66-184.86-5.37Z"/></g><g id="Path_82"><path class="cls-2" d="m291.85,347.69c-.12-2.02-12.56-202.23-26.71-251.51-.28-.99-.69-1.18-.84-1.25-1.66-.77-5.68,1.04-7.62,1.9-1.41.63-2.32,1.04-3.17,1.13-1.67,1.58-6.7,12.86-9.51,89.52-1.61,43.77-1.75,88.12-1.76,96.56v.02h-5v-4.9c.07-15.4.38-56.08,1.91-95.52,1-25.93,2.36-46.54,4.02-61.24,2.72-24.06,5.77-29.24,9.78-29.42.33-.11,1.12-.46,1.7-.72,3.2-1.44,8.04-3.61,11.77-1.88,1.2.56,2.79,1.77,3.54,4.4,14.31,49.8,26.39,244.32,26.9,252.58l-4.99.31Zm-38.7-254.7h0,0Z"/></g><g id="Path_83"><path class="cls-2" d="m326.5,347.66c-.1-2.02-10.08-203.14-40.77-273.16-2.42-5.52-10.32-9.24-19.14-9.04-13.94.31-25.68,9.33-31.4,24.12-5.01,12.95-9.12,50.52-11.89,108.66l-4.99-.24c1.95-40.91,5.65-93.24,12.22-110.22,6.48-16.75,19.92-26.97,35.95-27.32.26,0,.53,0,.79,0,10.66,0,19.86,4.78,23.04,12.04,31.05,70.86,40.78,266.63,41.18,274.93l-4.99.24Z"/></g><g id="Path_84"><rect class="cls-2" x="319.72" y="474.08" width="259.16" height="5" transform="translate(-106.4 823.27) rotate(-78.65)"/></g><g id="Path_86"><rect class="cls-2" x="238.43" y="349.06" width="5" height="259.85" transform="translate(-39.93 22.27) rotate(-4.89)"/></g><g id="Path_87"><rect class="cls-2" x="119.81" y="347.94" width="5" height="264.01" transform="translate(-72.88 24.74) rotate(-8.91)"/></g><g id="Path_88"><path class="cls-2" d="m510.47,348.93l-4.16-2.78c1.08-1.61,107.91-161.75,136.72-245.83,11.2-32.69,12.07-58.73,2.52-75.3-6.78-11.76-16.8-15.44-19.79-16.3-4.96,3-31.8,20.29-72.18,65.25-41.21,45.88-105.34,130.79-176.83,274.69l-4.48-2.22c71.87-144.67,136.41-230.02,177.89-276.15,45.12-50.17,72.84-65.79,74-66.43l.8-.44.9.18c.6.12,14.89,3.1,24.02,18.93,10.44,18.12,9.73,44.84-2.12,79.42-29.02,84.7-136.21,245.38-137.29,246.99Z"/></g><g id="Path_93"><path class="cls-2" d="m590.28,138.77l-76.98-21.22,1.33-4.82,72.95,20.11c1.22-3.64,2.86-12.41-4.33-23.02-9.56-14.12-46.98-17.75-47.36-17.78l.46-4.98c1.63.15,40.16,3.89,51.04,19.96,11.07,16.35,4.14,29.47,3.84,30.02l-.95,1.74Z"/></g><g id="Path_94"><path class="cls-2" d="m550.01,218.4l-85.58-27.4,1.53-4.76,80.63,25.81c1.88-8.83-.14-18.19-5.58-25.47-8.5-11.88-45.86-20.38-59.54-22.66l.82-4.93c2.09.35,51.36,8.7,62.76,24.64,6.87,9.19,9.01,21.29,5.7,32.33l-.73,2.44Z"/></g><g id="Path_95"><path class="cls-2" d="m500.55,283.99l-80.64-24.82,1.47-4.78,76.67,23.6c1.35-3.59,3.3-12.3-3.51-23.16-7.56-12.06-44.95-21.66-58.71-24.34l.96-4.91c2.11.41,51.73,10.24,61.99,26.59,10.49,16.73,3.1,29.58,2.78,30.12l-1,1.69Z"/></g><g id="Path_96"><path class="cls-2" d="m457.63,340.27l-70.98-18.35,1.25-4.84,68.23,17.64c1.47-2.12,3.99-8.03-2.67-18.64-2.17-3.45-6.6-6.91-12.82-9.99-16.14-8-38.57-11.89-38.8-11.93l.84-4.93c.95.16,23.36,4.05,40.17,12.38,7.15,3.54,12.14,7.51,14.84,11.81,10.83,17.26,1.33,25.65.92,26l-.99.84Z"/></g><g id="Path_98"><path class="cls-2" d="m169.41,530.22c-70.11,0-122.21-1.88-122.99-1.91l.19-5c1.17.04,118.24,4.28,238.03,0,119.79-4.28,245.45-17.18,246.7-17.31l.51,4.97c-1.26.13-127.07,13.05-247.04,17.34-40.19,1.44-80.08,1.91-115.4,1.91Z"/></g><g id="Path_99"><path class="cls-2" d="m223.42,445.37c-107.59,0-200.08-7.92-201.18-8.02l.43-4.98c1.33.12,134.11,11.49,266.56,6.92,132.53-4.57,271.53-18.33,272.92-18.47l.5,4.98c-1.39.14-140.55,13.92-273.24,18.49-22.19.77-44.39,1.08-65.98,1.08Z"/></g><g id="Path_101"><path class="cls-2" d="m327.56,607.03l-4.93-.84c.13-.79,13.51-79.78,20-143.72,6.48-63.88,6.25-114.42,6.25-114.92l5-.03c0,.51.24,51.29-6.27,115.46-6.51,64.11-19.91,143.26-20.04,144.05Z"/></g><g id="Path_102"><path class="cls-2" d="m322.84,231.72l-2.97-4.02c28.95-21.43,120.04-12.35,123.9-11.95l-.51,4.97c-.92-.1-93.02-9.28-120.42,11Z"/></g><g id="Path_103"><rect class="cls-2" x="231.67" y="264.35" width="62.89" height="5" transform="translate(-109.96 231.46) rotate(-39.98)"/></g><g id="Path_104"><path class="cls-2" d="m659.41,558.62l-69.87-23.26-66.47-9.73.72-4.95,66.91,9.79,63.36,21.1c-1.63-34.64-1.57-69.71.18-104.32.37-6.43,1.18-13.06,2.03-20.07,2.27-18.62,4.62-37.88-1.81-52.06-29.78-65.65-92.51-108.11-93.14-108.53l2.78-4.16c.64.43,64.53,43.64,94.91,110.62,7.01,15.46,4.58,35.43,2.22,54.74-.85,6.93-1.64,13.48-2,19.74-1.8,35.64-1.8,71.8,0,107.45l.18,3.65Z"/></g><g id="Path_105"><path class="cls-2" d="m652.19,603.14c-.79-6.8-1.17-13.72-1.14-20.57,0-11.88,1.12-27.49,1.13-27.65l4.99.36c-.01.15-1.11,15.59-1.11,27.3-.03,6.66.34,13.38,1.1,19.98l-4.97.58Z"/></g><g id="Path_106"><path class="cls-2" d="m628.22,596.48c-.79-6.81-1.17-13.73-1.14-20.57,0-11.88,1.12-27.49,1.13-27.65l4.99.36c-.01.15-1.11,15.59-1.11,27.3-.03,6.66.34,13.38,1.1,19.98l-4.97.58Z"/></g><g id="Path_107"><path class="cls-2" d="m600.26,585.83c-.79-6.81-1.17-13.73-1.14-20.57,0-11.88,1.12-27.49,1.13-27.65l4.99.36c-.01.15-1.11,15.59-1.11,27.3-.03,6.66.34,13.38,1.1,19.98l-4.97.58Z"/></g><g id="Path_108"><path class="cls-2" d="m572.29,579.26c-.79-6.8-1.17-13.72-1.14-20.58,0-11.88,1.12-27.49,1.13-27.65l4.99.36c-.01.15-1.11,15.59-1.11,27.3-.03,6.67.34,13.38,1.1,19.98l-4.97.58Z"/></g><g id="Path_109"><path class="cls-2" d="m544.33,575.78c-.79-6.81-1.17-13.73-1.14-20.57,0-11.88,1.12-27.49,1.13-27.65l4.99.36c-.01.15-1.11,15.59-1.11,27.3-.03,6.66.34,13.38,1.1,19.99l-4.97.58Z"/></g><g id="Path_110"><path class="cls-2" d="m524.36,574.45c-.79-6.81-1.17-13.73-1.14-20.57,0-11.88,1.12-27.49,1.13-27.65l4.99.36c-.01.15-1.11,15.59-1.11,27.3-.03,6.66.34,13.38,1.1,19.98l-4.97.58Z"/></g><g id="Path_111"><path class="cls-2" d="m585.62,485.5l-4.98-.39c.06-.77,5.87-77.8-11.91-106.93-5.7-9.33-14.01-21.91-21.28-28.85-14.01-13.38-26.52-17.57-26.65-17.61l1.54-4.76c.55.18,13.66,4.52,28.56,18.75,7.65,7.31,16.24,20.27,22.09,29.86,18.62,30.5,12.88,106.69,12.62,109.92Z"/></g><g id="Path_112"><path class="cls-2" d="m342.06,350.86l-4.2-2.71c.36-.55,8.89-13.64,21.74-22.62,12.8-8.95,29.38-13.45,30.07-13.63l1.29,4.83c-.16.04-16.44,4.47-28.5,12.9-12.02,8.4-20.32,21.11-20.4,21.23Z"/></g><g id="Ellipse_8"><ellipse class="cls-3" cx="197.42" cy="320.79" rx="17.7" ry="17.6"/><path class="cls-2" d="m197.42,337.56c-9.3,0-16.87-7.52-16.87-16.77s7.57-16.77,16.87-16.77,16.87,7.52,16.87,16.77-7.57,16.77-16.87,16.77Zm0-28.55c-6.54,0-11.87,5.28-11.87,11.77s5.32,11.77,11.87,11.77,11.87-5.28,11.87-11.77-5.32-11.77-11.87-11.77Z"/></g><g id="Ellipse_8-2"><ellipse class="cls-3" cx="276.43" cy="331.9" rx="17.7" ry="17.6"/><path class="cls-2" d="m276.43,348.68c-9.3,0-16.87-7.52-16.87-16.77s7.57-16.77,16.87-16.77,16.87,7.52,16.87,16.77-7.57,16.77-16.87,16.77Zm0-28.55c-6.54,0-11.87,5.28-11.87,11.77s5.32,11.77,11.87,11.77,11.87-5.28,11.87-11.77-5.32-11.77-11.87-11.77Z"/></g><g id="Ellipse_8-3"><ellipse class="cls-3" cx="227.28" cy="330.88" rx="17.7" ry="17.6"/><path class="cls-2" d="m227.28,347.65c-9.3,0-16.87-7.52-16.87-16.77s7.57-16.77,16.87-16.77,16.87,7.52,16.87,16.77-7.57,16.77-16.87,16.77Zm0-28.55c-6.54,0-11.87,5.28-11.87,11.77s5.32,11.77,11.87,11.77,11.87-5.28,11.87-11.77-5.32-11.77-11.87-11.77Z"/></g><g id="Ellipse_8-4"><ellipse class="cls-3" cx="139.36" cy="336.07" rx="13" ry="13.05"/><path class="cls-2" d="m139.36,349.16c-7.2,0-13.05-5.87-13.05-13.08s5.85-13.08,13.05-13.08,13.05,5.87,13.05,13.08-5.85,13.08-13.05,13.08Zm0-21.17c-4.44,0-8.05,3.63-8.05,8.08s3.61,8.08,8.05,8.08,8.05-3.63,8.05-8.08-3.61-8.08-8.05-8.08Z"/></g><g id="Ellipse_16"><ellipse class="cls-3" cx="168.06" cy="329.35" rx="17.7" ry="19.4"/><path class="cls-2" d="m168.06,347.92c-9.3,0-16.87-8.33-16.87-18.57s7.57-18.57,16.87-18.57,16.87,8.33,16.87,18.57-7.57,18.57-16.87,18.57Zm0-32.14c-6.54,0-11.87,6.09-11.87,13.57s5.32,13.57,11.87,13.57,11.87-6.09,11.87-13.57-5.32-13.57-11.87-13.57Z"/></g><g id="Ellipse_16-2"><ellipse class="cls-3" cx="229.86" cy="298.23" rx="17.7" ry="19.4"/><path class="cls-2" d="m229.86,316.8c-9.3,0-16.87-8.33-16.87-18.57s7.57-18.57,16.87-18.57,16.87,8.33,16.87,18.57-7.57,18.57-16.87,18.57Zm0-32.14c-6.54,0-11.87,6.09-11.87,13.57s5.32,13.57,11.87,13.57,11.87-6.09,11.87-13.57-5.32-13.57-11.87-13.57Z"/></g><g id="Ellipse_16-3"><ellipse class="cls-3" cx="196.63" cy="293.44" rx="17.59" ry="16.04" transform="translate(-116.68 130.32) rotate(-28.67)"/><path class="cls-2" d="m195.32,309.33c-5.66,0-10.96-2.75-13.67-7.7-4.11-7.51-.73-17.3,7.53-21.81,8.26-4.52,18.32-2.08,22.43,5.43h0c4.11,7.51.73,17.3-7.53,21.81-2.81,1.54-5.83,2.27-8.75,2.27Zm2.63-26.79c-2.12,0-4.32.54-6.38,1.66-5.84,3.19-8.33,9.93-5.54,15.03,2.79,5.09,9.8,6.64,15.64,3.44,5.84-3.19,8.33-9.94,5.54-15.03-1.8-3.3-5.38-5.11-9.26-5.11Z"/></g><g id="Ellipse_16-4"><ellipse class="cls-3" cx="251.37" cy="361.51" rx="15.68" ry="14.3" transform="translate(-123.36 592.72) rotate(-86.86)"/><path class="cls-2" d="m251.25,377c-.24,0-.48,0-.72-.02-7.77-.43-13.71-7.71-13.24-16.24.22-4.08,1.87-7.85,4.63-10.62,2.83-2.84,6.5-4.29,10.31-4.08h0c7.77.43,13.71,7.71,13.24,16.24-.22,4.08-1.87,7.85-4.62,10.62-2.65,2.66-6.04,4.1-9.59,4.1Zm.26-25.98c-2.22,0-4.36.92-6.06,2.63-1.89,1.89-3.02,4.51-3.17,7.36-.32,5.78,3.51,10.7,8.53,10.97,2.38.13,4.69-.8,6.5-2.62,1.89-1.89,3.02-4.51,3.17-7.36.32-5.78-3.51-10.7-8.53-10.98-.15,0-.29-.01-.44-.01Z"/></g><g id="Path_114"><path class="cls-2" d="m217.61,351.58l-5-.15c0-.18,0-.36,0-.54-.15-5.03-4.36-9.01-9.39-8.85-5.14.04-7.84,2.83-8.08,8.27l-4.99-.22c.36-8.1,5.22-12.98,12.98-13.05,7.73-.21,14.25,5.92,14.48,13.7,0,.28,0,.56,0,.84Z"/></g><g id="Path_123"><path class="cls-2" d="m270.9,321.47l-3.82-3.23c2.73-3.23,4.08-7.33,3.69-11.25-.3-3.01-1.61-5.65-3.59-7.23-3.77-3.01-10.5-2.71-13.84.63-4.2,4.2-5.78,15.48-3.99,18.29l-4.22,2.69c-3.39-5.33-.77-19.07,4.67-24.51,5.14-5.14,14.72-5.6,20.49-1,3.04,2.42,5.02,6.31,5.45,10.65.52,5.25-1.25,10.71-4.85,14.97Z"/></g><g id="Path_123-2"><path class="cls-2" d="m248.49,351.15c-2.53,0-4.97-.57-7.16-1.72-2.37-1.25-4.35-3.12-5.87-5.57l4.25-2.64c1.05,1.68,2.38,2.96,3.95,3.79,3.73,1.97,8.71,1.37,13.09-1.55,2.64-4.65,3.36-9.88,1.96-14.42-.94-3.05-2.74-5.39-4.93-6.4-3.27-1.51-8.29-.27-12.48,3.08l-3.12-3.9c5.73-4.58,12.68-6.04,17.7-3.72,3.48,1.6,6.25,5.05,7.61,9.46,1.86,6.04.87,12.94-2.71,18.92l-.27.45-.43.3c-3.64,2.58-7.71,3.9-11.58,3.91Z"/></g><g id="Path_191"><path class="cls-2" d="m169.47,315.28c-2.8-4.54-2.8-10.17,0-14.7,2.47-3.82,6-5.11,8.57-6.06,1.19-.44,2.31-.85,2.87-1.34l3.32,3.74c-1.27,1.13-2.9,1.73-4.48,2.3-2.33.85-4.53,1.66-6.06,4.03-1.77,2.87-1.77,6.49.03,9.41l-4.26,2.63Z"/></g><g id="Path_128"><path class="cls-2" d="m182.52,285.52c0-.11-1-11.03-7.36-17.37-3.7-3.78-8.61-6.16-13.84-6.72l-2.72-.29,4.99-24.93,11.82,8.33c-.34-7.25.38-20.16,7.99-31.01,11.11-15.85,44.32-18.27,45.72-18.37l4.9-.33-2.62,4.16c-4.2,6.68-8.01,13.69-11.31,20.85-1.7,3.67-3.31,7.96-4.86,12.12-1.9,5.08-3.7,9.87-5.66,13.65-6.18,11.92-12.18,17.48-15.28,19.77l7.39,14.33-4.45,2.29-9.6-18.63,2.33-1.11c.05-.03,7.32-3.8,15.18-18.95,1.83-3.52,3.57-8.18,5.42-13.11,1.59-4.24,3.23-8.62,5.01-12.46,2.68-5.81,5.68-11.52,8.95-17.05-9.42,1.27-29.61,5.15-37.02,15.71-9.84,14.04-6.63,32.7-6.59,32.89l1.08,6-14.99-10.57-2.43,12.17c5.36,1.12,10.31,3.82,14.16,7.75,7.66,7.64,8.75,19.96,8.79,20.48l-4.98.41Z"/></g><g id="Path_129"><rect class="cls-2" x="216.13" y="218.16" width="5" height="71.29"/></g></g></g></svg>