<?xml version="1.0" encoding="UTF-8"?><svg id="Layer_1" xmlns="http://www.w3.org/2000/svg" width="166.64" height="61.99" viewBox="0 0 166.64 61.99"><defs><style>.cls-1{fill:#13429a;}</style></defs><path class="cls-1" d="m143.99,21.29c-3.88,4.22-3.82,9.31-3.78,12.56,0,.31.01.61.01.87,0,2.04-.24,4.02-.72,5.96l2.99-2.68c3.78-3.39,9.19-3.26,12.85.3l.4.39.12.3c1.49,3.51.64,5.72-.33,6.95-3.14,3.97-12.04,3.54-19.25,2.37-1.1,1.8-2.45,3.58-4.03,5.32-7.19,7.96-15.13,7.22-30.95,5.75-2.88-.27-6.15-.57-9.69-.85l-3.67-.29c-16.97-1.34-21.53-1.7-43.35,2.38l-.14.02c-5.23.53-9.66.77-13.62.77-11.38,0-18.76-2.02-29.39-5.24-.86-.26-1.35-1.17-1.09-2.04.26-.86,1.17-1.35,2.04-1.09,13.9,4.21,22.07,6.32,41.66,4.36,22.19-4.16,26.85-3.78,44.15-2.41l3.66.29c3.57.28,6.84.58,9.73.85,15.2,1.42,22.14,2.06,28.23-4.68,1.7-1.89,3.01-3.69,4-5.39.12-.2.23-.39.33-.58,0,0,.01-.01.02-.03,2.41-4.4,2.77-8.07,2.78-10.73,0-.26,0-.54-.01-.84,0-.61-.01-1.3,0-2.08l-.23-.22c-1.29-1.16-12.56-11.57-12.23-17.97.08-1.49.74-2.75,1.92-3.61.09-.07.16-.11.22-.16,1.93-1.38,4.26-1.63,6.41-.7,2.37,1.02,4.01,3.29,4.38,6.05l1.15,8.55c.46-1.07,1.06-2.14,1.82-3.18l8.43-15.07c2.52-4.52,7.68-6.2,12-3.91,2.97,1.57,4.8,4.46,5.43,8.57.38,2.41-.26,4.59-1.84,6.3-3.91,4.23-12.81,4.89-17.97,4.89-.97,0-1.8-.03-2.45-.05Z"/><path class="cls-1" d="m133.94,45.83l-.11.23c.12-.2.23-.39.33-.58-.08.1-.15.22-.22.35Z"/></svg>