<svg width="43" height="43" viewBox="0 0 43 43" fill="none" xmlns="http://www.w3.org/2000/svg">
<g clip-path="url(#clip0_451_1888)">
<path d="M21.5 3.58301C26.368 3.58301 26.9753 3.60092 28.8853 3.69051C30.7934 3.78009 32.0923 4.0793 33.2354 4.52363C34.4179 4.97872 35.4141 5.59505 36.4103 6.58942C37.3213 7.48507 38.0263 8.56848 38.476 9.76426C38.9186 10.9055 39.2196 12.2063 39.3092 14.1144C39.3934 16.0243 39.4167 16.6317 39.4167 21.4997C39.4167 26.3676 39.3988 26.975 39.3092 28.8849C39.2196 30.793 38.9186 32.092 38.476 33.2351C38.0275 34.4315 37.3224 35.5152 36.4103 36.4099C35.5144 37.3207 34.431 38.0256 33.2354 38.4757C32.0941 38.9183 30.7934 39.2193 28.8853 39.3088C26.9753 39.3931 26.368 39.4163 21.5 39.4163C16.632 39.4163 16.0247 39.3984 14.1148 39.3088C12.2066 39.2193 10.9077 38.9183 9.76459 38.4757C8.56834 38.0269 7.48474 37.3218 6.58975 36.4099C5.67852 35.5144 4.97355 34.431 4.52396 33.2351C4.07963 32.0938 3.78042 30.793 3.69084 28.8849C3.60663 26.975 3.58334 26.3676 3.58334 21.4997C3.58334 16.6317 3.60125 16.0243 3.69084 14.1144C3.78042 12.2045 4.07963 10.9073 4.52396 9.76426C4.9723 8.56775 5.67744 7.48404 6.58975 6.58942C7.485 5.67788 8.56852 4.97286 9.76459 4.52363C10.9077 4.0793 12.2048 3.78009 14.1148 3.69051C16.0247 3.6063 16.632 3.58301 21.5 3.58301ZM21.5 12.5413C19.1241 12.5413 16.8455 13.4852 15.1655 15.1652C13.4855 16.8452 12.5417 19.1238 12.5417 21.4997C12.5417 23.8756 13.4855 26.1542 15.1655 27.8342C16.8455 29.5142 19.1241 30.458 21.5 30.458C23.8759 30.458 26.1545 29.5142 27.8345 27.8342C29.5145 26.1542 30.4583 23.8756 30.4583 21.4997C30.4583 19.1238 29.5145 16.8452 27.8345 15.1652C26.1545 13.4852 23.8759 12.5413 21.5 12.5413ZM33.1458 12.0934C33.1458 11.4994 32.9099 10.9298 32.4899 10.5098C32.0699 10.0898 31.5002 9.85384 30.9063 9.85384C30.3123 9.85384 29.7426 10.0898 29.3226 10.5098C28.9026 10.9298 28.6667 11.4994 28.6667 12.0934C28.6667 12.6874 28.9026 13.257 29.3226 13.677C29.7426 14.0971 30.3123 14.333 30.9063 14.333C31.5002 14.333 32.0699 14.0971 32.4899 13.677C32.9099 13.257 33.1458 12.6874 33.1458 12.0934ZM21.5 16.1247C22.9255 16.1247 24.2927 16.691 25.3007 17.699C26.3087 18.707 26.875 20.0741 26.875 21.4997C26.875 22.9252 26.3087 24.2924 25.3007 25.3004C24.2927 26.3084 22.9255 26.8747 21.5 26.8747C20.0745 26.8747 18.7073 26.3084 17.6993 25.3004C16.6913 24.2924 16.125 22.9252 16.125 21.4997C16.125 20.0741 16.6913 18.707 17.6993 17.699C18.7073 16.691 20.0745 16.1247 21.5 16.1247Z" fill="#13429A"/>
</g>
<defs>
<clipPath id="clip0_451_1888">
<rect width="43" height="43" fill="white"/>
</clipPath>
</defs>
</svg>
