<svg width="43" height="43" viewBox="0 0 43 43" fill="none" xmlns="http://www.w3.org/2000/svg">
<g clip-path="url(#clip0_451_1910)">
<path d="M21.5 3.58301C11.6046 3.58301 3.58333 11.6043 3.58333 21.4997C3.58333 30.4419 10.1355 37.854 18.7014 39.1996V26.6776H14.1506V21.4997H18.7014V17.5526C18.7014 13.0627 21.3746 10.583 25.4685 10.583C27.4286 10.583 29.4783 10.9324 29.4783 10.9324V15.3399H27.2208C24.9937 15.3399 24.3004 16.7213 24.3004 18.1385V21.4997H29.2687L28.475 26.6776H24.3004V39.1996C32.8645 37.8558 39.4167 30.4401 39.4167 21.4997C39.4167 11.6043 31.3954 3.58301 21.5 3.58301Z" fill="#13429A"/>
</g>
<defs>
<clipPath id="clip0_451_1910">
<rect width="43" height="43" fill="white"/>
</clipPath>
</defs>
</svg>
