<?xml version="1.0" encoding="UTF-8"?><svg id="Layer_2" xmlns="http://www.w3.org/2000/svg" width="64" height="64" viewBox="0 0 64 64"><defs><style>.cls-1{fill:#f4f3ef;}.cls-2{fill:#13429a;}</style></defs><g id="Layer_1-2"><circle class="cls-2" cx="32" cy="32" r="31"/><path class="cls-1" d="m32,2c16.57,0,30,13.43,30,30s-13.43,30-30,30S2,48.57,2,32,15.43,2,32,2m0-2C14.36,0,0,14.36,0,32s14.36,32,32,32,32-14.36,32-32S49.64,0,32,0h0Z"/><path class="cls-1" d="m32.28,21.76c-3.03.05-17.53,20.5-13.48,20.44,4.05-.06,1.76-.03,3.84-.06,2.08-.03,8.61-10.58,9.78-10.49,1.17.09,8.2,10.63,10.17,10.6,1.97-.03-1.45.02,3.16-.05,4.62-.07-10.45-20.49-13.48-20.44Z"/></g></svg>