<?xml version="1.0" encoding="UTF-8"?><svg id="Layer_1" xmlns="http://www.w3.org/2000/svg" width="610" height="616" viewBox="0 0 610 616"><defs><style>.cls-1{fill:#f76345;}.cls-2{fill:#13429a;}</style></defs><path class="cls-2" d="m364.82,580.46c-4.4,0-8.06-.71-9.67-1.08-1.23-.29-2.36-.5-3.4-.71-5.65-1.11-10.11-1.98-15.82-9.91-1.8-2.5-6-9.17-6.13-17-.12-7.57,3.24-15.34,3.39-15.66l6.41,2.81c-.03.06-2.9,6.72-2.8,12.74.1,6.01,3.71,11.49,4.81,13.02,4.09,5.68,6.25,6.11,11.48,7.13,1.11.22,2.31.45,3.63.76,1.84.42,11.38,2.36,18.57-1.25,7.78-3.91,16.06-14.68,16.72-16.76,1.62-6.47,1-9.76.06-14.74-.17-.9-.35-1.84-.52-2.84-.56-3.26-2.55-11.06-8.94-12.95-2.26-.67-8.52-.71-11.94-.58l-.27-6.99c1.02-.04,10.11-.35,14.2.86,10.15,3.01,13.06,13.93,13.84,18.48.17.96.33,1.87.5,2.73.99,5.24,1.84,9.77-.16,17.76-1.04,4.16-11.12,16.63-20.36,21.28-4.46,2.24-9.38,2.9-13.62,2.9Z"/><path class="cls-2" d="m238.69,392.31c-13.71-9.7-19.87-17.59-20.58-26.38-.61-7.56,1.47-19.81,4.45-26.21,3.65-7.84,12.09-18.14,31.58-22.75,7.67-1.82,22.59,7.44,25.5,9.31l-3.79,5.89c-7.19-4.62-16.92-9.14-20.11-8.39-13.45,3.18-22.48,9.54-26.85,18.9-2.48,5.31-4.33,16.34-3.82,22.68.37,4.59,2.76,10.7,17.64,21.23l-4.04,5.71Z"/><path class="cls-2" d="m500.94,366.74c-1.2,0-2.33-.08-3.35-.26-7.82-1.35-21.55-7.3-26.19-15.78-4.73-8.63-5.33-27.75-2.35-36.27h0c1.23-3.5,6.88-10.52,8.01-11.89l.38-.47.52-.31c6.5-3.94,22.21-8.25,30.6-7.45,7.13.67,18.43,9.56,22.48,13.52,6.18,6.03,7.25,20.32,5.62,27.89-1.74,8.08-9.21,20.18-15.38,24.89-4.64,3.54-13.61,6.13-20.32,6.13Zm-25.29-50c-2.54,7.28-1.49,24.44,1.88,30.6,2.97,5.42,13.66,10.94,21.24,12.24,4.78.83,14.32-1.55,18.23-4.54,4.84-3.69,11.41-14.39,12.79-20.8,1.4-6.5-.05-17.88-3.66-21.41-4.45-4.34-14-11.17-18.25-11.56-6.03-.55-19.69,2.74-25.82,6.18-2.77,3.43-5.9,7.81-6.42,9.29h0Z"/><path class="cls-2" d="m87.31,443.91c-1.2,0-2.33-.08-3.35-.26-7.82-1.35-21.55-7.3-26.19-15.78-4.73-8.63-5.33-27.75-2.35-36.27,1.22-3.5,6.88-10.52,8-11.9l.38-.47.52-.31c6.5-3.94,22.22-8.24,30.6-7.45,7.13.67,18.43,9.56,22.48,13.52,6.18,6.03,7.25,20.32,5.62,27.89-1.74,8.08-9.21,20.18-15.38,24.89-4.64,3.54-13.62,6.13-20.32,6.13Zm-18.87-59.29c-2.77,3.43-5.9,7.81-6.42,9.29h0c-2.54,7.28-1.49,24.43,1.88,30.59,2.97,5.42,13.66,10.94,21.24,12.25,4.78.83,14.32-1.55,18.23-4.54,4.84-3.7,11.41-14.39,12.79-20.8,1.4-6.5-.05-17.88-3.66-21.41-4.45-4.34-14-11.17-18.25-11.56-6.03-.56-19.69,2.74-25.82,6.18Z"/><path class="cls-2" d="m199.48,589.9c-5.47,0-11.32-1.05-15-2.97-7.03-3.68-18.28-13.54-20.11-23.04-1.86-9.66,3.42-28.05,8.86-35.25h0c2.24-2.96,9.77-7.91,11.26-8.88l.51-.33.59-.14c7.4-1.75,23.67-1.04,31.41,2.27,6.59,2.82,14.62,14.75,17.27,19.75,4.04,7.63.68,21.56-3.19,28.27-4.13,7.16-14.95,16.39-22.26,18.99-2.52.9-5.85,1.32-9.34,1.32Zm-11.71-63.92c-3.69,2.42-8.01,5.63-8.96,6.88h0c-4.65,6.15-8.89,22.81-7.57,29.7,1.17,6.07,9.66,14.59,16.48,18.16,4.3,2.25,14.11,2.91,18.75,1.26,5.74-2.04,15.27-10.2,18.54-15.89,3.32-5.76,5.43-17.04,3.06-21.5-2.91-5.49-9.91-14.91-13.83-16.59-5.57-2.38-19.59-3.42-26.47-2.02Z"/><path class="cls-2" d="m426.25,519.09c-1.2,0-2.33-.08-3.35-.26-7.82-1.35-21.55-7.3-26.19-15.78-4.73-8.63-5.33-27.75-2.35-36.27h0c1.23-3.5,6.88-10.52,8.01-11.89l.38-.47.52-.31c6.5-3.94,22.22-8.24,30.6-7.45,7.13.67,18.43,9.56,22.48,13.52,6.18,6.03,7.25,20.32,5.62,27.89-1.74,8.08-9.21,20.18-15.38,24.89-4.64,3.54-13.61,6.13-20.32,6.13Zm-25.29-50c-2.54,7.28-1.49,24.44,1.88,30.6,2.97,5.42,13.67,10.94,21.24,12.24,4.78.83,14.32-1.55,18.23-4.54,4.84-3.7,11.41-14.39,12.79-20.8,1.4-6.5-.05-17.88-3.66-21.4-4.45-4.34-14-11.17-18.25-11.56-6.03-.57-19.69,2.74-25.82,6.18-2.77,3.43-5.9,7.81-6.42,9.29h0Z"/><path class="cls-2" d="m263.34,539.83c-1.2,0-2.33-.08-3.35-.26-7.82-1.35-21.55-7.3-26.19-15.78-4.73-8.63-5.33-27.75-2.35-36.27,1.22-3.5,6.88-10.52,8.01-11.89l.38-.47.52-.31c6.5-3.94,22.21-8.24,30.6-7.45,7.13.67,18.43,9.56,22.48,13.52,6.18,6.03,7.25,20.32,5.62,27.89-1.74,8.08-9.21,20.18-15.39,24.89-4.64,3.54-13.61,6.13-20.32,6.13Zm-18.87-59.28c-2.77,3.43-5.9,7.81-6.42,9.29h0c-2.54,7.28-1.49,24.44,1.88,30.6,2.97,5.42,13.67,10.94,21.24,12.24,4.78.83,14.32-1.55,18.23-4.54,4.84-3.7,11.41-14.39,12.79-20.8,1.4-6.5-.05-17.88-3.66-21.4-4.45-4.34-14-11.17-18.25-11.56-6.03-.56-19.69,2.74-25.82,6.18Z"/><path class="cls-2" d="m189.52,518.26c-5.47,0-11.32-1.05-15-2.98-7.03-3.68-18.28-13.54-20.11-23.04-1.86-9.66,3.42-28.05,8.86-35.25h0c2.24-2.96,9.77-7.91,11.26-8.87l.51-.33.59-.14c7.4-1.75,23.67-1.04,31.41,2.27,6.59,2.82,14.62,14.74,17.27,19.75,4.04,7.63.68,21.56-3.19,28.27-4.13,7.16-14.95,16.39-22.26,18.99-2.52.9-5.85,1.32-9.34,1.32Zm-20.66-57.04c-4.65,6.15-8.9,22.81-7.57,29.7,1.17,6.07,9.66,14.59,16.48,18.16,4.3,2.25,14.11,2.91,18.75,1.26,5.74-2.04,15.27-10.2,18.54-15.89,3.32-5.76,5.43-17.04,3.06-21.5-2.91-5.49-9.91-14.91-13.83-16.59-5.57-2.38-19.59-3.42-26.47-2.02-3.69,2.42-8.01,5.63-8.96,6.88h0Z"/><path class="cls-2" d="m125.77,560.61c-5.47,0-11.32-1.05-15-2.98-7.03-3.68-18.28-13.54-20.11-23.04-1.86-9.66,3.42-28.05,8.86-35.25h0c2.24-2.96,9.77-7.91,11.26-8.87l.51-.33.59-.14c7.39-1.76,23.67-1.04,31.41,2.27,6.59,2.81,14.61,14.74,17.27,19.75,4.04,7.63.68,21.56-3.19,28.27-4.13,7.16-14.95,16.39-22.26,18.99-2.52.9-5.85,1.32-9.34,1.32Zm-20.66-57.04c-4.65,6.15-8.9,22.81-7.57,29.7,1.17,6.07,9.66,14.59,16.48,18.16,4.3,2.25,14.11,2.91,18.75,1.26,5.74-2.04,15.27-10.21,18.54-15.89,3.32-5.76,5.43-17.04,3.06-21.5-2.91-5.5-9.91-14.91-13.83-16.59-5.57-2.38-19.59-3.42-26.47-2.02-3.69,2.42-8.01,5.63-8.96,6.88h0Z"/><path class="cls-2" d="m374.61,463.08c-1.2,0-2.33-.08-3.35-.26-7.82-1.35-21.55-7.3-26.19-15.78-4.73-8.63-5.33-27.75-2.35-36.27h0c1.23-3.5,6.88-10.52,8-11.9l.38-.47.52-.31c6.5-3.94,22.21-8.24,30.6-7.45,7.13.67,18.43,9.56,22.48,13.52,6.18,6.03,7.25,20.32,5.62,27.89-1.74,8.08-9.21,20.18-15.38,24.89-4.64,3.54-13.62,6.13-20.32,6.13Zm-25.29-50h0c-2.54,7.28-1.49,24.43,1.88,30.59,2.97,5.42,13.67,10.94,21.25,12.25,4.77.83,14.32-1.55,18.23-4.54,4.84-3.69,11.41-14.39,12.79-20.8,1.4-6.5-.05-17.88-3.66-21.41-4.45-4.34-14-11.17-18.25-11.56-6.02-.57-19.69,2.74-25.82,6.18-2.77,3.43-5.9,7.81-6.42,9.29Z"/><path class="cls-2" d="m261.22,324.01c-5.09,0-9.81-.7-12.44-2.83-16.73-13.59-18.69-20.67-19.77-29.91-1.07-9.09.5-23.67,3.36-31.2,3.54-9.32,12.17-21.38,33.2-25.94,8.28-1.79,23.1,4.66,26.34,13.47l-6.57,2.42c-1.83-4.95-12.6-10.29-18.29-9.04-14.43,3.12-23.89,10.39-28.14,21.58-2.44,6.44-3.88,20-2.95,27.9.82,6.97,1.46,12.48,17.24,25.29,2.64,2.14,15.49,1.3,25.84-.83l1.41,6.86c-3.45.71-11.73,2.23-19.23,2.23Z"/><path class="cls-2" d="m327.39,380.44c-8.81,0-21.58-6.02-31.17-11.36-5.48-3.05-14.74-12.21-17.69-17.5-4.16-7.46-5.95-20.46-3.99-28.98,2.05-8.92,9.98-18.88,16.41-23.72,4.89-3.69,19.33-8.46,24.62-9.03,6.16-.66,18.35-.55,24.98,4.06,7.33,5.1,19.3,23.11,22.08,30.67l-6.57,2.42c-2.53-6.87-14.04-23.54-19.51-27.34-4.06-2.83-13.46-3.57-20.24-2.85-4.65.5-17.64,5.01-21.15,7.66-5.51,4.16-12.19,12.66-13.8,19.7-1.57,6.84-.04,18.05,3.28,24,2.34,4.2,10.6,12.35,14.98,14.79,13.14,7.32,24.04,11.19,29.17,10.38,6.33-1.01,20.09-7.61,22.99-12.58.19-.33.5-.94.37-1.29l6.57-2.42c.59,1.6.91,4.16-.9,7.25-4.53,7.74-20.89,14.83-27.93,15.95-.79.13-1.64.19-2.52.19Z"/><path class="cls-2" d="m404.28,395.41c-11.33,0-22.41-3.43-30.11-7.37-9.49-4.85-19.25-19.07-22.08-28.8-2.02-6.95-.84-24.5,2.11-31.29,3.52-8.13,16.36-21.41,24.53-25.39,9.12-4.44,29.64-2.01,31.95-1.72,5.83.74,17.15,5.13,22.05,9.2h0c4.07,3.39,10.25,15.07,11.45,17.38l.13.28c4,9.75,4.85,30.75.09,40.43-4.05,8.25-20.74,24.1-28.71,25.99-3.75.89-7.6,1.28-11.41,1.28Zm-8.42-88.48c-5.69,0-11.13.5-14.08,1.94-6.78,3.3-18.25,15.16-21.17,21.88-2.29,5.28-3.37,21.16-1.81,26.55,2.32,8,11.11,20.72,18.54,24.52,9.19,4.7,23.67,8.61,36.73,5.51,5.55-1.32,20.6-15.25,24.04-22.26,3.82-7.78,3.09-26.27-.23-34.55-2.73-5.23-7.47-13.27-9.64-15.08h0c-3.51-2.92-13.33-6.99-18.44-7.63-3.84-.48-8.98-.87-13.94-.87Z"/><path class="cls-2" d="m310.49,458.13c-9.96,0-19.77-3.21-26.57-6.84-8.22-4.4-16.77-17.07-19.29-25.69-1.81-6.17-.98-21.67,1.48-27.65,3.01-7.32,13.76-18.78,20.91-22.29,7.89-3.87,25.58-1.51,27.57-1.23,5.05.72,14.86,4.73,19.13,8.4h0c3.55,3.06,8.97,13.42,10.02,15.46l.13.27c3.61,8.84,4.55,27.07.49,35.74-3.46,7.39-17.5,21.15-24.59,22.8-3.05.71-6.17,1.02-9.27,1.02Zm-9.47-77.67c-4.65,0-8.78.44-10.91,1.48-5.53,2.72-15.19,13.01-17.52,18.67-1.87,4.55-2.62,18.32-1.24,23.01,2.05,6.98,9.58,18.12,15.88,21.48,7.44,3.98,20.01,7.72,30.95,5.18,4.49-1.04,17.09-13.08,19.84-18.95,3.13-6.7,2.32-22.75-.57-29.99-2.37-4.59-6.45-11.63-8.29-13.21-2.92-2.51-11.34-6.18-15.55-6.78-3.94-.56-8.47-.9-12.59-.9Z"/><path class="cls-2" d="m344.3,538.82c-9.96,0-19.77-3.21-26.57-6.84-8.22-4.4-16.77-17.07-19.29-25.69-1.81-6.17-.98-21.67,1.48-27.65,3.01-7.32,13.76-18.78,20.91-22.29,7.89-3.88,25.58-1.51,27.57-1.23,5.05.72,14.86,4.73,19.13,8.4h0c3.55,3.06,8.97,13.42,10.02,15.46l.13.27c3.61,8.84,4.55,27.07.49,35.74-3.46,7.39-17.5,21.15-24.59,22.8-3.05.71-6.17,1.02-9.27,1.02Zm-9.47-77.67c-4.66,0-8.78.44-10.91,1.48-5.53,2.72-15.19,13.01-17.52,18.67-1.87,4.55-2.62,18.32-1.24,23.01,2.05,6.98,9.58,18.12,15.88,21.48,7.44,3.98,20.01,7.72,30.95,5.18,4.49-1.04,17.09-13.08,19.84-18.95,3.13-6.7,2.32-22.75-.57-29.99-2.37-4.59-6.45-11.63-8.29-13.21-2.92-2.51-11.34-6.18-15.55-6.78-3.94-.56-8.47-.9-12.59-.9Z"/><path class="cls-2" d="m300.68,611.76c-9.96,0-19.77-3.21-26.57-6.84-8.22-4.4-16.76-17.07-19.29-25.69-1.81-6.17-.98-21.67,1.48-27.65,3.01-7.32,13.76-18.78,20.91-22.29,7.89-3.88,25.57-1.51,27.57-1.23,5.04.71,14.86,4.73,19.13,8.4,3.55,3.06,8.97,13.42,10.02,15.46l.13.27c3.61,8.84,4.55,27.07.49,35.74-3.46,7.39-17.5,21.15-24.59,22.8-3.05.71-6.17,1.02-9.27,1.02Zm-9.47-77.66c-4.65,0-8.78.43-10.91,1.48-5.53,2.72-15.19,13.01-17.52,18.67-1.87,4.55-2.62,18.32-1.24,23.01,2.05,6.98,9.58,18.12,15.88,21.48,7.44,3.98,20.01,7.72,30.95,5.18,4.49-1.04,17.09-13.08,19.84-18.95,3.13-6.7,2.32-22.75-.57-29.99-2.37-4.59-6.45-11.63-8.29-13.21h0c-2.92-2.51-11.34-6.18-15.54-6.78-3.94-.56-8.47-.9-12.59-.9Z"/><path class="cls-2" d="m450.9,318.61c-1.4,0-2.67-.07-3.75-.21-8.32-1.07-23.53-7.16-29.41-14.64-8.52-10.82-11.33-18.59-8.6-23.76l6.19,3.27c-.72,1.36.14,6.29,7.92,16.16,4.16,5.29,17.12,11.03,24.81,12.03,5.54.71,17.03-1.02,21.57-3.26,6.14-3.02,15.79-15.31,18.26-21.94,2.04-5.5.35-20.03-2.4-26.86-2.35-5.82-13.34-16.06-19.28-17.95-8.35-2.67-29.95-.82-34.97,3.96l-4.83-5.07c8-7.63,33.03-8.4,41.93-5.56,7.92,2.53,20.51,14.25,23.64,22,2.97,7.36,5.47,23.85,2.47,31.92-3.02,8.14-13.86,21.91-21.73,25.78-5.19,2.55-15.02,4.12-21.81,4.12Z"/><path class="cls-2" d="m461.72,440.01c-6.98,0-15.98-1.64-20.56-3.6-7.71-3.31-20.68-13.32-24.29-22.12-3.69-8.97-7.2-18.92-5.3-24.66l6.64,2.2c-.61,1.85-.22,6.78,5.13,19.79,2.56,6.22,13.46,15.29,20.58,18.35,5.13,2.2,16.66,3.67,21.64,2.76,6.73-1.23,19.38-10.41,23.56-16.12,3.47-4.73,5.81-19.17,5.03-26.49-.67-6.24-8.44-19.09-13.64-22.54-7.31-4.85-28.59-8.98-34.72-5.75l-3.26-6.19c9.78-5.15,34.07.94,41.85,6.11,6.93,4.6,15.83,19.31,16.72,27.62.85,7.89-1.25,24.43-6.35,31.38-5.13,7-19.32,17.29-27.94,18.86-1.46.27-3.21.39-5.1.39Z"/><path class="cls-2" d="m331.27,294.16c-7.38,0-14.41-1.44-18.09-2.59-8.97-2.79-21.89-16.08-24.98-23.96-3.07-7.83-5.71-25.1-2.68-33.29,2.87-7.79,13.39-21.11,21.12-24.96,7.08-3.53,22.53-6.54,30.47-5.02,5.22,1,22.51,4.92,25.58,13.26l-6.57,2.42c-1.07-2.91-10.19-6.86-20.33-8.8-6.28-1.2-20.21,1.51-26.03,4.41-5.85,2.92-15.38,14.89-17.67,21.12-2.27,6.15-.03,21.53,2.63,28.32,2.58,6.58,14.29,17.89,20.55,19.83,9.26,2.88,28.56,4.54,33.39-4.46l6.17,3.31c-4.36,8.12-14.23,10.42-23.55,10.42Z"/><path class="cls-2" d="m251.69,469.86c-8.73,0-24.33-7.06-29.93-13.67-5.22-6.16-12.83-21.15-12.42-29.71.39-8.08,6.3-23.75,12.38-29.85,5.57-5.58,19.12-13.47,27-14.73,5.21-.83,22.62-3.03,28.04,3.67l-5.44,4.41c-1.79-2.21-11.63-2.74-21.5-1.17-6.26,1-18.55,8.15-23.15,12.76-4.63,4.63-10.03,18.78-10.34,25.24-.31,6.33,6.3,19.56,10.77,24.84,4.33,5.11,18.54,11.49,24.96,11.18,9.56-.46,28.19-5.42,30.06-15.3l6.88,1.3c-3,15.85-28.06,20.58-36.6,20.99-.23.01-.47.02-.71.02Z"/><path class="cls-2" d="m519.75,155.6c-8.09,0-16.85-.83-22.18-2.61-6.98-2.32-18.08-10.63-22.07-14.07-3.41-2.93-9.49-8.42-11.92-12.19-4.16-6.47-8.23-21.32-8.64-28.94-.42-7.84,4.21-23.62,9.71-29.64,2.08-2.27,5.6-4.29,10.78-6.15,5.08-1.83,10.85-3.18,14.67-4.08l1.46-.34c7.07-1.68,23.3-2.58,30.45,1.62,5.86,3.44,11.85,14.78,13.03,20.74,1.34,6.78,1.14,20.21-.39,26.61-2.51,10.5-5.38,16.55-7.4,19.82,3.01-.18,5.76-.51,7.94-.99,8.72-1.92,31.6-15.67,39.68-20.81l8.85-5.62-3.69,9.81c-.94,2.51-9.4,24.7-15.41,31.11-5.94,6.33-22.09,12.88-30.6,14.61-3.6.73-8.78,1.12-14.26,1.12Zm-14.06-92.43c-4.63,0-9.38.47-12.52,1.22l-1.48.35c-3.88.91-9.2,2.16-13.9,3.85-5.01,1.8-7.11,3.33-7.98,4.28-4.2,4.6-8.23,18.34-7.89,24.54.35,6.58,4.07,20.14,7.54,25.53,1.65,2.56,6.55,7.19,10.6,10.67,4.78,4.11,14.56,11.02,19.72,12.73,7.64,2.54,24.98,2.88,32.84,1.28,7.53-1.53,22.13-7.47,26.89-12.54,2.8-2.99,6.87-11.61,10.03-19.03-9.83,5.86-25.11,14.46-32.84,16.16-8.59,1.89-27.65,2.13-36.81-1.83-5.04-2.18-14.14-8.7-16.93-13.97-2.62-4.95-5.55-16.3-2.24-25.7,2.89-8.21,13.19-11.73,16.95-11.41,5.74.47,12.82,4.28,15.49,13.56,1.51,5.23-1.47,12.87-5.09,18.12-2.67,3.87-7.39,7.87-10.31,10.15,1.77,1.2,3.51,2.21,4.91,2.82,3.36,1.45,9.31,2.27,15.48,2.5.67-.64,1.3-1.3,1.9-1.99.72-.83,4.49-5.7,7.8-19.54,1.3-5.45,1.48-17.82.33-23.62-.94-4.74-6.21-14.01-9.71-16.06-2.51-1.47-7.57-2.07-12.77-2.07Zm-8.66,23.12c-1.64,0-8.17,2.36-9.72,6.76-2.4,6.83-.33,16.03,1.82,20.09.53,1,1.6,2.23,2.96,3.51,2.15-1.61,7.61-5.88,10.2-9.63,3.22-4.68,4.74-10.09,4.13-12.21-1.69-5.86-5.93-8.24-9.33-8.52-.02,0-.03,0-.05,0Z"/><path class="cls-2" d="m403.41,211.71l-5.92-3.73c8.89-14.13,12.87-27.88,11.82-40.89-.02-.13-2.61-19.42-45.52-72.25l-2.16-2.66,42.81-36.42.95,6.2c2.03,13.19,5.76,26.08,11.1,38.29,4.85,11.09,11.01,21.62,18.33,31.29,2.03,2.32,9.18,9.47,20.59,9.77,10.64.28,17.99-5.75,19.98-7.6l4.77,5.12c-3.18,2.96-11.99,9.8-24.94,9.47-14.42-.38-23.37-9.49-25.77-12.28l-.14-.17c-7.68-10.13-14.15-21.17-19.23-32.8-4.75-10.88-8.29-22.26-10.54-33.93l-28.17,23.96c42.84,53.3,44.85,72.63,44.92,73.44,1.17,14.54-3.16,29.75-12.88,45.18Z"/><g><path class="cls-1" d="m515.45,157.29s-20.83,30.97-22.79,42.72c-4.31,25.8,6.9,54.29,6.9,54.29l18.82-42.99s6.51,23.34,10.27,30.44c5.51,10.39,28.48,37.46,28.48,37.46,0,0,1.68-26.16,1.14-34.86-.49-7.93-4.91-31.42-4.91-31.42,0,0,17.21,13.21,21.92,18.65,6.06,7,10.28,15.73,10.28,15.73,0,0,7.84-35.97.67-47.65-10.3-16.78-18.08-25.64-35.17-35.28l-35.63-7.08Z"/><path class="cls-2" d="m560.08,288.07l-5.61-6.61c-.95-1.12-23.28-27.48-28.91-38.08-2.34-4.4-5.56-14.37-7.83-21.85l-18.34,41.88-3.08-7.84c-.47-1.2-11.52-29.7-7.1-56.15,2.03-12.15,21.16-40.86,23.34-44.09l1.3-1.93,38.46,7.65.49.27c18.25,10.29,26.29,19.96,36.43,36.49,7.69,12.52.6,46.41-.23,50.23l-2.16,9.89-4.42-9.12c-.04-.08-4.11-8.42-9.78-14.96-2.39-2.76-8.75-8.09-14.19-12.48,1.33,7.58,3.01,17.86,3.31,22.74.54,8.82-1.07,34.22-1.14,35.3l-.55,8.65Zm-40.96-87.17l2.64,9.46c1.78,6.39,7.05,24.19,9.99,29.74,3.61,6.8,15.3,21.4,22.4,30.04.44-8.35.96-20.36.64-25.59-.47-7.63-4.81-30.75-4.85-30.98l-1.69-9,7.27,5.58c.71.55,17.55,13.49,22.44,19.13,2.26,2.61,4.27,5.43,5.92,7.99,1.88-12.06,3.42-29.24-.6-35.79-9.61-15.65-16.76-24.3-33.42-33.78l-32.78-6.52c-6.38,9.7-19.55,31-20.95,39.4-2.71,16.22,1.04,33.77,3.93,43.89l19.08-43.58Z"/></g><path class="cls-2" d="m427.76,228.41l-6.55-1.71.45-1.72c.47-.83,11.49-20.68,13.59-41.43.72-7.1.36-14.47-1.07-21.88l-1.2-6.23,5.91,2.31c6.5,2.54,16.85,5.13,29.26,3.05,13.98-2.34,23.64-9.6,28.16-13.71l4.71,5.17c-6.21,5.66-16.76,12.94-31.72,15.44-10.81,1.81-20.23.48-27.33-1.54.76,6.12.84,12.19.24,18.1-2.25,22.18-13.96,43.26-14.45,44.15Z"/><path class="cls-2" d="m381.95,299c-3.2,0-6.45-.39-9.64-1.31-11.93-3.43-20.03-7.95-26.14-20.9-2.77-5.88-5.07-16.73-4.81-22.78.45-10.87,9.56-30.04,17.72-37.29,8.05-7.15,28.89-14.09,39.18-11.4h0c10.17,2.66,27.44,17.94,29.37,19.67l.09.08c7.34,7.04,2.44,31.64-.12,38.5-2.92,7.81-12.27,21.62-19.51,27.05-5.18,3.89-15.34,8.37-26.13,8.38Zm10.94-87.29c-8.88,0-23.68,5.37-29.17,10.25-6.81,6.05-15,23.28-15.37,32.34-.21,4.96,1.85,14.62,4.15,19.5,4.5,9.55,9.79,13.72,21.74,17.16,10.83,3.11,23.85-1.59,29.63-5.93,6.05-4.54,14.63-17.14,17.15-23.9,3.41-9.13,4.99-27.83,1.87-30.96-4.96-4.44-19.22-16.18-26.42-18.07h0c-1.02-.27-2.23-.39-3.58-.39Z"/></svg>