<?xml version="1.0" encoding="UTF-8"?><svg id="Layer_1" xmlns="http://www.w3.org/2000/svg" width="701.11" height="512.19" viewBox="0 0 701.11 512.19"><defs><style>.cls-1{fill:#f76345;}.cls-2{fill:#13429a;}</style></defs><path class="cls-2" d="m312.29,504.62c-9.46,0-18.03-5.09-20.6-6.78-1.11-.73-2.13-1.35-3.09-1.93-5.12-3.11-9.16-5.57-11.88-15.37-.86-3.1-2.56-11.13.13-18.82,2.61-7.45,8.7-13.84,8.96-14.1l5.04,4.85c-.05.05-5.3,5.58-7.4,11.56-2.1,5.98-.52,12.71,0,14.63,1.98,7.13,3.96,8.34,8.77,11.26,1.01.62,2.1,1.28,3.28,2.05,1.66,1.09,10.38,6.47,18.8,5.52,9.16-1.04,21.22-8.66,22.61-10.48,3.96-5.81,4.54-9.28,5.43-14.53.16-.95.33-1.94.52-2.98.64-3.44,1.51-11.89-4.15-16.12-1.99-1.48-8.15-3.8-11.57-4.91l2.17-6.66c1.02.33,10.04,3.31,13.59,5.96,8.81,6.58,7.72,18.28,6.85,23.01-.19,1.01-.35,1.96-.5,2.87-.93,5.49-1.73,10.23-6.56,17.33-2.51,3.69-16.87,12.25-27.59,13.47-.95.11-1.89.16-2.82.16Z"/><path class="cls-2" d="m245.06,271.92c-9.93-14.45-13.11-24.39-10.64-33.23,2.13-7.63,8.58-18.87,13.82-24.06,6.4-6.35,18.38-13.39,39.13-10.87,8.12.99,19.39,15.43,21.57,18.32l-5.59,4.22c-5.41-7.17-13.39-15.17-16.83-15.59-14.42-1.76-25.64,1.24-33.35,8.89-4.37,4.34-10.21,14.53-12,20.98-1.31,4.68-1.18,11.6,9.67,27.38l-5.77,3.96Z"/><path class="cls-2" d="m526,344.04c-6.19,0-13.14-1.4-17.29-3.79-7.16-4.14-18.46-14.91-19.94-24.87-1.48-9.97,4.92-29.24,10.79-36.35h0c2.46-2.98,10.53-7.81,12.13-8.75l.52-.31.59-.11c7.79-1.51,24.73-.04,32.66,3.75,6.73,3.22,14.57,16.01,17.12,21.35,3.86,8.11-.25,22.46-4.57,29.27-4.62,7.29-16.3,16.43-24.04,18.82-2.22.68-5.01,1-7.97,1Zm-21.04-60.57c-5.16,6.25-10.35,23.57-9.26,30.87.96,6.45,9.51,15.79,16.52,19.84,4.42,2.56,14.73,3.69,19.69,2.16,6.12-1.89,16.5-10.05,20.19-15.87,3.75-5.91,6.46-17.7,4.16-22.51-2.81-5.9-9.75-16.1-13.82-18.04-5.75-2.75-20.45-4.46-27.74-3.29-3.98,2.38-8.68,5.57-9.74,6.85h0Z"/><path class="cls-2" d="m38.95,323.63c-6.19,0-13.14-1.4-17.29-3.79-7.16-4.14-18.46-14.91-19.94-24.87-1.48-9.97,4.92-29.24,10.79-36.35,2.45-2.98,10.53-7.81,12.13-8.75l.52-.31.59-.11c7.79-1.51,24.73-.04,32.66,3.75,6.73,3.22,14.57,16.01,17.11,21.35,3.86,8.11-.25,22.46-4.57,29.27-4.62,7.28-16.3,16.43-24.04,18.82-2.22.68-5.01,1-7.97,1Zm-11.3-67.42c-3.98,2.38-8.68,5.57-9.74,6.85h0c-5.16,6.25-10.35,23.56-9.26,30.87.96,6.45,9.51,15.79,16.52,19.84,4.42,2.56,14.73,3.69,19.69,2.16,6.12-1.89,16.5-10.05,20.19-15.87,3.75-5.91,6.46-17.7,4.16-22.52-2.81-5.9-9.75-16.1-13.82-18.04-5.75-2.75-20.45-4.46-27.74-3.29Z"/><path class="cls-2" d="m161.33,494.45c-6.19,0-13.14-1.4-17.29-3.79-7.16-4.14-18.46-14.91-19.94-24.87-1.48-9.97,4.92-29.24,10.79-36.35h0c2.46-2.98,10.53-7.81,12.13-8.75l.52-.31.59-.11c7.79-1.51,24.73-.04,32.66,3.75,6.72,3.22,14.57,16.01,17.12,21.35,3.87,8.11-.25,22.46-4.57,29.27-4.62,7.28-16.3,16.43-24.04,18.82-2.22.68-5,1-7.97,1Zm-21.04-60.56c-5.16,6.26-10.35,23.56-9.26,30.87.96,6.45,9.51,15.79,16.52,19.84,4.43,2.56,14.73,3.69,19.69,2.16,6.12-1.89,16.5-10.05,20.19-15.87,3.75-5.91,6.46-17.7,4.16-22.52-2.81-5.9-9.76-16.1-13.82-18.04-5.75-2.75-20.45-4.46-27.74-3.29-3.98,2.38-8.68,5.57-9.74,6.85h0Z"/><path class="cls-2" d="m405.84,478.95c-6.19,0-13.14-1.4-17.29-3.79-7.16-4.14-18.46-14.91-19.94-24.87-1.48-9.97,4.92-29.24,10.79-36.35h0c2.46-2.98,10.53-7.81,12.13-8.75l.52-.31.59-.11c7.79-1.51,24.73-.04,32.66,3.75,6.72,3.22,14.57,16.01,17.12,21.35,3.86,8.11-.25,22.46-4.57,29.27-4.62,7.28-16.3,16.43-24.04,18.82-2.22.68-5.01,1-7.97,1Zm-21.04-60.57c-5.16,6.25-10.35,23.57-9.26,30.87.96,6.45,9.51,15.79,16.52,19.84,4.42,2.56,14.73,3.69,19.69,2.16,6.12-1.89,16.5-10.05,20.19-15.87,3.75-5.91,6.46-17.7,4.16-22.52-2.81-5.9-9.76-16.1-13.82-18.04-5.75-2.75-20.45-4.46-27.74-3.29-3.98,2.38-8.68,5.57-9.74,6.85h0Z"/><path class="cls-2" d="m229.88,428.07c-6.19,0-13.14-1.4-17.29-3.79-7.16-4.14-18.46-14.91-19.94-24.87-1.48-9.97,4.92-29.24,10.79-36.35h0c2.46-2.98,10.53-7.81,12.13-8.75l.52-.31.59-.12c7.79-1.51,24.73-.05,32.66,3.75,6.73,3.22,14.57,16.01,17.12,21.35,3.86,8.11-.25,22.46-4.57,29.27-4.62,7.29-16.3,16.43-24.04,18.82-2.22.68-5.01,1-7.97,1Zm-21.04-60.57c-5.16,6.25-10.35,23.57-9.26,30.87.96,6.45,9.51,15.79,16.52,19.84,4.42,2.56,14.73,3.69,19.69,2.16,6.12-1.89,16.5-10.05,20.19-15.87,3.75-5.91,6.46-17.7,4.16-22.51-2.81-5.9-9.76-16.1-13.82-18.05-5.75-2.75-20.45-4.46-27.74-3.29-3.98,2.38-8.68,5.57-9.74,6.85h0Z"/><path class="cls-2" d="m154.06,419.07c-6.19,0-13.14-1.4-17.29-3.79-7.16-4.14-18.46-14.91-19.94-24.87-1.48-9.97,4.92-29.24,10.79-36.35,2.45-2.98,10.53-7.81,12.13-8.75l.52-.31.59-.12c7.79-1.51,24.73-.05,32.66,3.75,6.73,3.22,14.57,16.01,17.12,21.35,3.86,8.11-.25,22.46-4.57,29.27-4.62,7.29-16.3,16.43-24.04,18.82-2.22.68-5.01,1-7.97,1Zm-11.29-67.42c-3.98,2.38-8.68,5.57-9.74,6.85h0c-5.16,6.25-10.35,23.56-9.26,30.87.96,6.45,9.51,15.79,16.52,19.84,4.43,2.56,14.73,3.69,19.69,2.16,6.12-1.89,16.5-10.05,20.19-15.87,3.75-5.91,6.46-17.7,4.16-22.51-2.81-5.9-9.75-16.1-13.82-18.05-5.75-2.75-20.45-4.46-27.74-3.29Z"/><path class="cls-2" d="m85.51,460.56c-6.19,0-13.14-1.4-17.29-3.79-7.16-4.14-18.46-14.91-19.94-24.87-1.48-9.97,4.92-29.24,10.79-36.35,2.45-2.98,10.53-7.81,12.13-8.75l.52-.31.59-.11c7.79-1.51,24.73-.04,32.66,3.75,6.73,3.22,14.57,16.01,17.12,21.35,3.86,8.11-.25,22.46-4.57,29.27-4.62,7.28-16.3,16.43-24.04,18.82-2.22.68-5.01,1-7.97,1Zm-11.3-67.42c-3.98,2.38-8.68,5.57-9.74,6.85h0c-5.16,6.25-10.35,23.56-9.26,30.87.96,6.45,9.51,15.79,16.52,19.84,4.42,2.56,14.73,3.69,19.69,2.16,6.12-1.89,16.5-10.05,20.19-15.87,3.75-5.91,6.46-17.7,4.16-22.52-2.81-5.9-9.75-16.1-13.82-18.04-5.75-2.75-20.45-4.46-27.74-3.29Z"/><path class="cls-2" d="m367,392.95c-6.19,0-13.14-1.4-17.29-3.79-7.16-4.14-18.46-14.91-19.94-24.87-1.48-9.97,4.92-29.24,10.79-36.35h0c2.46-2.98,10.53-7.81,12.13-8.75l.52-.31.59-.12c7.79-1.51,24.73-.05,32.66,3.75,6.73,3.22,14.57,16.01,17.12,21.35,3.87,8.11-.25,22.46-4.57,29.27-4.62,7.28-16.3,16.43-24.04,18.82-2.22.68-5,1-7.97,1Zm-21.04-60.56c-5.16,6.26-10.35,23.56-9.26,30.87.96,6.45,9.51,15.79,16.52,19.84,4.43,2.56,14.73,3.69,19.69,2.16,6.12-1.89,16.5-10.05,20.19-15.87,3.75-5.91,6.46-17.7,4.16-22.52-2.81-5.9-9.75-16.1-13.82-18.04-5.75-2.75-20.45-4.46-27.74-3.29-3.98,2.38-8.68,5.57-9.74,6.85h0Z"/><path class="cls-2" d="m311.51,217.68c-6.1-.92-26.35-4.51-30.78-11.97-11.48-19.36-10.85-26.99-8.58-36.42,2.24-9.3,9.04-23.02,14.56-29.37,6.82-7.84,19.63-16.53,41.87-13.41,8.72,1.23,20.86,12.85,20.86,22.61h-7c0-5.59-8.74-14.82-14.84-15.67-15.36-2.16-27.34,1.56-35.61,11.07-4.75,5.46-11.08,18.29-13.04,26.41-1.73,7.18-3.1,12.86,7.79,31.21,1.84,3.1,14.83,6.97,25.8,8.62l-1.04,6.92Z"/><path class="cls-2" d="m346.47,293.62c-3,0-5.64-.21-7.53-.58-9.06-1.79-20.74-13.56-28.95-23.12-4.27-4.97-10.03-17.28-11.01-23.51-1.38-8.8,1.56-22.17,6.55-29.81,5.22-7.98,16.58-14.87,24.62-17.3,6.12-1.85,21.98-1.3,27.37.05,6.27,1.57,18.16,6.08,22.98,12.97,5.24,7.49,10.56,29.82,10.56,38.03h-7c0-7.87-5.19-28.15-9.3-34.02-2.99-4.28-11.99-8.44-18.95-10.19-4.76-1.2-19.22-1.47-23.64-.14-6.95,2.1-16.63,8.07-20.78,14.42-4.04,6.18-6.6,17.81-5.49,24.89.78,4.99,5.97,16.04,9.4,20.04,10.28,11.97,19.62,19.75,25,20.81,6.78,1.33,22.5-.14,27.28-4.06.41-.33.89-.82.89-1.26h7c0,1.75-.6,4.33-3.44,6.67-5.35,4.4-16.94,6.1-25.55,6.1Z"/><path class="cls-2" d="m419.56,337.82c-.49,0-.95-.02-1.38-.08-15.88-1.92-30.29-12.09-38.49-20.97-7.32-7.93-11.96-25.64-11.22-36.16.53-7.54,8.02-24.29,13.35-29.87,6.39-6.69,23.75-15.07,33.19-16.01,10.52-1.05,29.76,8.74,31.92,9.86,5.45,2.82,14.94,11.2,18.26,16.96h0c2.76,4.78,4.6,18.47,4.94,21.16l.03.31c.4,11-6.35,31.87-14.5,39.63-6.59,6.28-26.82,15.17-36.1,15.17Zm-2.79-96.18c-.37,0-.73.02-1.06.05-7.88.79-23.5,8.31-28.82,13.88-4.18,4.38-11.02,19.65-11.43,25.53-.62,8.73,3.43,24.48,9.38,30.92,7.35,7.97,20.19,17.08,34.19,18.77,5.94.71,25.87-7.55,31.81-13.21,6.6-6.29,12.61-24.79,12.34-34.16-.79-6.13-2.54-15.79-4.03-18.38h0c-2.4-4.16-10.62-11.75-15.42-14.24-7.33-3.81-20.16-9.16-26.94-9.16Z"/><path class="cls-2" d="m302.39,364.95c-.45,0-.88-.02-1.27-.07-13.63-1.71-25.98-10.75-33-18.64-6.46-7.26-10.25-22.75-9.61-32.1.46-6.69,6.86-21.56,11.43-26.53,5.59-6.08,20.24-13.42,28.51-14.27,9.12-.95,25.58,7.76,27.43,8.75,4.68,2.52,12.84,9.99,15.68,15.12h0c2.37,4.26,3.94,16.37,4.23,18.76l.02.3c.35,9.96-5.31,28.14-12.41,35.17-5.74,5.68-22.83,13.52-31.01,13.52Zm-2.42-84.69c-.28,0-.55.01-.8.04-6.45.67-19.72,7.31-24.08,12.05-3.51,3.81-9.25,17.13-9.59,22.26-.52,7.63,2.87,21.36,7.86,26.98,5.89,6.62,16.92,14.88,28.64,16.35,4.8.6,21.65-6.69,26.49-11.48,5.53-5.47,10.57-21.61,10.35-29.8-.66-5.38-2.14-13.81-3.38-16.05h0c-1.97-3.54-8.95-10.24-12.88-12.36-7.42-3.99-17.55-7.99-22.59-7.99Z"/><path class="cls-2" d="m306.39,456.47c-.45,0-.88-.02-1.27-.07-13.63-1.71-25.98-10.75-33-18.65-6.46-7.26-10.25-22.75-9.61-32.1.46-6.69,6.86-21.56,11.43-26.53,5.59-6.08,20.24-13.41,28.51-14.27,9.1-.92,25.58,7.76,27.43,8.75,4.68,2.52,12.83,9.99,15.68,15.12h0c2.37,4.26,3.94,16.37,4.23,18.76l.02.3c.35,9.96-5.31,28.14-12.41,35.17-5.74,5.68-22.83,13.52-31.01,13.52Zm-2.42-84.69c-.28,0-.55.01-.8.04-6.45.67-19.72,7.31-24.08,12.05-3.51,3.81-9.25,17.13-9.59,22.26-.52,7.63,2.87,21.36,7.86,26.97,5.89,6.62,16.92,14.88,28.64,16.35,4.82.59,21.65-6.69,26.49-11.48,5.53-5.47,10.57-21.61,10.35-29.8-.66-5.38-2.14-13.81-3.38-16.05h0c-1.97-3.54-8.95-10.24-12.88-12.35-7.42-4-17.55-7.99-22.59-7.99Z"/><path class="cls-2" d="m237.36,511.36c-.45,0-.88-.02-1.27-.07-13.63-1.71-25.98-10.75-33-18.65-6.46-7.26-10.25-22.75-9.61-32.1.46-6.69,6.86-21.56,11.43-26.53,5.59-6.08,20.24-13.41,28.51-14.27,9.11-.93,25.58,7.76,27.43,8.75,4.68,2.52,12.83,9.99,15.68,15.12h0c2.37,4.26,3.94,16.37,4.23,18.76l.02.3c.35,9.96-5.31,28.14-12.41,35.17-5.74,5.68-22.83,13.52-31.01,13.52Zm-2.42-84.69c-.28,0-.55.01-.8.04-6.45.67-19.72,7.31-24.08,12.05-3.51,3.81-9.25,17.13-9.59,22.26-.52,7.63,2.87,21.36,7.86,26.97,5.89,6.62,16.92,14.88,28.64,16.35,4.84.6,21.65-6.69,26.48-11.48,5.53-5.47,10.57-21.61,10.35-29.8-.66-5.38-2.14-13.81-3.38-16.05-1.97-3.54-8.95-10.24-12.88-12.35-7.42-4-17.55-7.99-22.59-7.99Z"/><path class="cls-2" d="m500.56,280.26c-7.49,0-18.75-2.76-23.99-5.5-7.76-4.05-20.46-15.5-23.52-24.94-4.43-13.65-4.4-22.25.1-26.29l4.68,5.21c-.34.3-3.15,3.41,1.88,18.92,2.19,6.74,12.88,17.12,20.1,20.9,5.2,2.72,17.17,5.18,22.46,4.63,7.15-.75,21.15-9.36,25.99-15,4.31-5.03,7.62-20.39,7.41-27.37-.2-6.6-7.33-20.71-12.5-24.74-7.27-5.67-29.26-11.7-35.95-8.8l-2.78-6.43c10.38-4.48,35.55,3.86,43.04,9.7,6.83,5.33,14.93,21.34,15.19,30.05.25,8.28-3.25,25.33-9.09,32.14-5.9,6.88-21.48,16.45-30.57,17.41-.75.08-1.57.12-2.45.12Z"/><path class="cls-2" d="m455.8,401.24c-1.4,0-2.7-.09-3.86-.29-7.17-1.25-19.17-7.86-23.96-12.41-6.35-6.02-15.44-20.5-15.81-30.42-.53-14.34,1.85-22.6,7.28-25.26l3.08,6.29c-.41.2-3.97,2.42-3.36,18.71.26,7.08,7.71,19.99,13.62,25.59,4.26,4.04,15.1,9.68,20.35,10.59,7.09,1.24,22.91-3.22,29.1-7.33,5.53-3.66,12.9-17.53,14.6-24.3,1.61-6.41-1.39-21.92-5.26-27.22-5.44-7.44-24.96-19.25-32.18-18.29l-.92-6.94c11.2-1.48,33.14,13.42,38.75,21.09,5.12,7,8.53,24.61,6.4,33.06-2.02,8.04-10.04,23.47-17.53,28.43-6.58,4.36-20.8,8.68-30.31,8.68Z"/><path class="cls-2" d="m385.3,211.76c-11.96,0-25.46-7.91-30.62-11.87-7.77-5.97-15.62-23.63-15.8-32.46-.18-8.78,3.47-26.64,9.38-33.57,5.63-6.59,20.73-15.83,29.68-16.82,8.03-.89,24.55,1.8,31.65,6.08,4.75,2.86,20.25,12.92,20.25,22.15h-7c0-3.3-7.57-10.55-16.87-16.15-5.76-3.47-20.49-5.86-27.27-5.12-6.83.75-20.59,9.1-25.12,14.41-4.48,5.25-7.86,21.23-7.71,28.88.15,7.43,7.6,22.85,13.07,27.05,8.09,6.21,26.55,14.85,34.62,7.7l4.64,5.24c-3.65,3.24-8.16,4.49-12.92,4.49Z"/><path class="cls-2" d="m247.53,358.7c-7.89,0-15.44-1.58-19.31-2.8-8.53-2.69-21.88-15.69-25.05-24.4-2.89-7.92-4.94-25.34-1.45-33.56,3.3-7.77,14.74-20.99,22.89-24.75,7.31-3.38,23.73-6.26,31.76-4.68,5.4,1.06,23.22,5.19,26.1,13.65l-6.63,2.25c-.99-2.92-10.33-6.97-20.83-9.04-6.54-1.28-21.26,1.3-27.47,4.17-6.25,2.89-16.73,14.88-19.38,21.13-2.61,6.14-.91,21.6,1.58,28.43,2.42,6.62,14.15,18.1,20.58,20.12,9.6,3.02,29.8,4.89,35.26-4.22l6,3.6c-4.7,7.84-14.62,10.1-24.06,10.1Z"/><path class="cls-2" d="m635.79,114.22c-10.14,0-26.07-2.51-33.95-6.22-6.94-3.27-17.42-13.28-21.14-17.34-3.17-3.47-8.8-9.92-10.84-14.12-3.51-7.23-5.88-23.13-5.36-31.08.54-8.17,7.3-23.94,13.74-29.49,2.42-2.09,6.32-3.73,11.9-5.01,5.51-1.27,11.68-1.95,15.77-2.41l1.53-.17c7.54-.86,24.46.22,31.34,5.45,5.54,4.21,10.43,16.9,10.9,23.07.54,7.19-1.33,21.09-3.72,27.54-1.78,4.8-8.36,15.75-10.86,19.85,3.49.24,6.71.26,9.24.02,9.33-.91,34.85-12.36,43.9-16.69l9.45-4.53-4.83,9.3c-1.29,2.49-12.84,24.48-19.87,30.37-6.94,5.82-24.5,10.6-33.54,11.33-1.1.09-2.34.13-3.67.13Zm-22.86-99.12c-1.74,0-3.34.08-4.68.23l-1.55.17c-4.16.46-9.86,1.1-14.97,2.27-5.47,1.26-7.86,2.59-8.9,3.49-4.97,4.28-10.9,18.13-11.32,24.65-.45,6.91,1.73,21.51,4.67,27.56,1.4,2.88,5.93,8.32,9.71,12.45,4.47,4.88,13.79,13.3,18.96,15.74,7.65,3.61,25.68,6.12,34.06,5.44,8.04-.65,24.01-5.02,29.61-9.72,3.37-2.82,8.83-11.58,13.09-19.01-10.93,4.87-28.22,12.08-36.57,12.89-9.13.89-28.94-1.23-37.94-6.47-4.95-2.88-13.56-10.76-15.79-16.55-2.1-5.45-3.72-17.55.87-26.86,3.99-8.1,15.03-10.43,18.86-9.66,5.85,1.2,12.67,6,14.28,15.9.9,5.55-3.27,13.25-7.51,18.07-3.3,3.74-8.85,7.37-12.13,9.35,1.75,1.54,3.51,2.88,4.95,3.71,4.11,2.39,12.46,4.27,20.4,5.17l-2.82-1.75c2.58-4.15,9.62-15.86,11.21-20.15,2.04-5.52,3.77-18.39,3.3-24.59-.38-5.07-4.75-15.44-8.15-18.03-3.75-2.85-14.05-4.3-21.62-4.3Zm-3.71,23.46c-2.2,0-8.68,1.69-10.77,5.92-3.37,6.84-2.36,16.72-.62,21.25.44,1.15,1.45,2.62,2.76,4.17,2.36-1.35,8.74-5.19,11.96-8.84,3.97-4.49,6.23-9.99,5.85-12.31-1.04-6.38-5.21-9.43-8.77-10.16-.11-.02-.25-.03-.42-.03Z"/><path class="cls-2" d="m477.35,150.92l-6.02-3.58c.17-.29,17.16-28.94,20.06-39.59,2.87-10.54,3.06-32.86,1.2-43.73-1.42-8.36-12.52-30.63-16.67-38.51l-1.87-3.54,54.06-19.84.13,4.87c0,.36,1.03,36.13,8.29,55.46,2.41,6.43,10.25,14.83,15.28,14.95.05,0,.09,0,.14,0,3.38,0,13-2.55,18.35-4.18l2.04,6.7c-1.52.46-14.86,4.48-20.45,4.48-.09,0-.17,0-.25,0-8.97-.21-18.67-11.49-21.67-19.49-6.09-16.24-7.99-42.16-8.53-52.89l-37.49,13.76c4.17,8.16,14.02,28.09,15.54,37.04,1.98,11.63,1.82,35.08-1.35,46.75-3.14,11.56-20.08,40.12-20.8,41.33Z"/><g><path class="cls-1" d="m614.27,113.02s-33.54,20.05-40.64,30.31c-15.59,22.52-17.67,54.51-17.67,54.51l37.01-32.33s-4.25,25.01-3.84,33.41c.59,12.3,10.28,48.19,10.28,48.19,0,0,13.25-24.03,16.63-32.52,3.08-7.73,9.36-31.95,9.36-31.95,0,0,10.41,20.19,12.45,27.44,2.62,9.33,2.73,19.49,2.73,19.49,0,0,23.47-30.59,21.88-44.85-2.28-20.49-5.69-32.35-17.59-49.1l-30.59-22.6Z"/><path class="cls-2" d="m598.28,256.39l-2.26-8.37c-.4-1.48-9.8-36.39-10.4-48.93-.25-5.3,1.19-16.47,2.38-24.6l-36.09,31.53.55-8.41c.09-1.35,2.33-33.23,18.29-56.28,7.32-10.57,38.22-29.22,41.72-31.32l2-1.2,32.92,24.32.32.46c12.68,17.85,15.97,30.59,18.21,50.74,1.69,15.22-20.09,44.12-22.58,47.37l-6.17,8.04-.11-10.13c0-.1-.14-9.83-2.6-18.58-1.06-3.76-4.83-11.9-8.08-18.57-2.13,7.8-5.19,18.59-7.11,23.42-3.42,8.59-16.27,31.92-16.82,32.91l-4.18,7.59Zm-.22-99.98l-1.64,9.68c-.04.25-4.18,24.74-3.8,32.66.39,8.16,5.07,27.59,7.94,38.89,4.15-7.73,10.16-19.16,12.22-24.35,2.96-7.44,9.16-31.3,9.23-31.54l2.3-8.87,4.2,8.14c.43.84,10.6,20.59,12.71,28.1,1.02,3.63,1.68,7.36,2.1,10.61,7.21-10.61,16.56-26.51,15.66-34.64-2.13-19.15-5.05-30.56-16.64-47.01l-28.26-20.87c-10.34,6.32-32.46,20.71-37.57,28.09-9.94,14.35-14.2,33-15.95,43.85l37.5-32.76Z"/></g><path class="cls-2" d="m488.43,182.41l-5.19-4.69c.24-.26,23.67-26.24,28.75-36.21,3.6-7.07,8.9-29.95,10.63-38.17l.68-3.22,3.25.48c6.81,1,25.9,3.42,32.45,2.64,5.71-.67,25.79-6.71,33.04-8.98l2.09,6.68c-1.09.34-26.79,8.36-34.31,9.25-7,.83-23.91-1.25-31.05-2.22-1.79,8.08-6.66,29.08-10.55,36.71-5.5,10.79-28.81,36.62-29.8,37.72Z"/><path class="cls-2" d="m436.33,234.85c-8.73,0-18.54-2.24-25.77-7.55-10.44-7.67-16.74-15.01-18.04-29.88-.59-6.76,1.08-18.21,3.5-24.04,4.37-10.48,20.21-25.97,30.82-30.12,10.46-4.1,33.37-3.38,42.46,2.97,8.99,6.28,20.41,27.5,21.68,29.9l.05.11c4.63,9.5-9.06,31.81-14.04,37.6-5.68,6.6-19.83,16.75-28.88,19.46-3.36,1.01-7.44,1.56-11.78,1.56Zm7.83-87.1c-5.81,0-11.35.68-14.77,2.02-8.91,3.49-23.24,17.5-26.91,26.3-2.01,4.82-3.49,15.09-2.99,20.74.97,11.07,4.67,17.11,15.21,24.85,9.56,7.02,24.12,7.1,31.41,4.92,7.61-2.27,20.64-11.58,25.58-17.32,6.69-7.77,15.03-25.68,13.07-29.92-3.27-6.16-13.05-22.9-19.47-27.38h0c-4.06-2.83-12.87-4.21-21.13-4.21Z"/></svg>