<?xml version="1.0" encoding="UTF-8"?><svg id="Layer_1" xmlns="http://www.w3.org/2000/svg" width="610" height="616" viewBox="0 0 610 616"><defs><style>.cls-1{fill:#f76345;}.cls-2{fill:#13429a;}</style></defs><g><g><path class="cls-1" d="m319.07,200.89s-3.86,41.28-1.74,54.85c1.61,10.36,8.14,23.04,20.92,37.11,7.63,8.39,29.94,18.05,40.97,22.05,8.7,3.16,27.55,5.73,36.9,5.65,8.3-.07,24.64-4.2,32.25-7.26,8.52-3.42,23.5-14.26,29.64-20.7,6.77-7.1,15.47-24.91,17.72-34.15,3.9-16-.29-65.61-.29-65.61,0,0-15.24-2.28-20.34-2.96-8.96-1.19-27.24-3.27-36.14-1.75-9.7,1.65-27.99,11.45-37.08,12.51-8.07.94-33.82,4.61-41.96,4.54l-40.85-4.27Z"/><path class="cls-2" d="m415.69,324.05c-9.87,0-28.59-2.56-37.66-5.86-1.31-.48-32.16-11.76-42.37-22.99-12.42-13.66-19.95-27.12-21.79-38.92-2.16-13.85,1.56-54.02,1.72-55.72l.33-3.52,44.2,4.62h.04c6.17,0,22.44-2.1,33.24-3.5,3.35-.43,6.2-.8,8.08-1.02,4.24-.49,11.31-3.34,18.14-6.1,7.05-2.84,13.71-5.52,18.76-6.38,9.19-1.57,27.24.41,37.18,1.73,5.07.67,19.77,2.87,20.4,2.97l2.74.41.23,2.76c.17,2.05,4.19,50.37.2,66.73-2.39,9.82-11.44,28.24-18.59,35.74-6.35,6.67-21.84,17.91-30.87,21.54-7.5,3.01-24.28,7.43-33.53,7.51-.15,0-.31,0-.46,0Zm-93.44-119.31c-.86,10.21-3.13,39.74-1.46,50.46,1.63,10.45,8.56,22.65,20.05,35.29,6.72,7.39,27.35,16.67,39.57,21.11,8.18,2.97,26.76,5.51,35.68,5.44,7.45-.06,23.26-3.91,30.98-7.01,8.12-3.26,22.65-13.83,28.41-19.87,6.34-6.65,14.71-23.75,16.86-32.56,3.21-13.15.64-51.16-.16-61.73-4.63-.69-13.83-2.05-17.53-2.54-16.25-2.16-29.04-2.8-35.09-1.77-4.31.73-10.92,3.4-17.32,5.97-7.6,3.06-14.78,5.96-19.95,6.56-1.86.22-4.67.58-7.99,1.01-11.12,1.44-27.95,3.63-34.4,3.55l-.34-.02-37.31-3.9Z"/></g><path class="cls-2" d="m468.89,612.14c-26.1,0-56.87-.81-86.99-1.6-29.21-.77-56.8-1.49-79.51-1.49-3.57,0-6.16-1.73-7.11-4.74-2.09-6.59,5.09-17.49,10.95-21.62,14.27-10.06,69.76-7.4,85.92-6.38l.49-229.59c-12-6.61-75.88-42.51-85.03-61.8-14.04-29.62-14.54-85.74-1.26-142.98.6-2.6,3.11-3.47,8.88-4.55,2.81-.52,5.54-.91,6-.97,2.4-.41,41.31-7.11,57.2-8.87,17.93-1.98,53.51-2.4,71.24-1.94,13.3.35,41.7,1.06,41.7,1.06.12,0,4.14.04,8.25.25,7.09.35,11.38.55,11.53,4.54.4,10.37,1.21,21.98,2.08,34.27,3.12,44.26,6.65,94.43-6.45,122.71-9.53,20.57-67.5,50.18-79.23,56.01v231.75c15.93-1.46,69.12-5.44,82.29,5.1,6.22,4.98,10.01,16.32,7.81,23.35-1.2,3.83-4.11,6.19-7.97,6.45-11.15.76-25.12,1.05-40.78,1.05Zm-167-10.13c.11.02.27.04.49.04,22.8,0,50.43.73,79.69,1.5,48.04,1.26,97.71,2.57,127.11.56.69-.05,1.34-.2,1.77-1.56,1.33-4.25-1.6-12.66-5.51-15.79-9.42-7.54-53.63-6.06-81.06-3.23l-3.86.4v-243.86l1.97-.96c19.04-9.24,70.15-36.89,77.91-53.63,12.35-26.64,8.88-75.85,5.82-119.27-.8-11.36-1.56-22.14-1.99-31.95-2.88-.31-8.35-.55-13.01-.59-.05,0-28.46-.71-41.75-1.06-17.53-.46-52.66-.05-70.29,1.9-15.83,1.75-56.43,8.75-56.83,8.82l-.13.02c-3.38.46-7.46,1.19-9.42,1.73-12.58,55.25-12.16,108.82,1.12,136.84,7.4,15.6,63.05,48.35,83.88,59.65l1.83,1-.52,241.25-3.75-.27c-19.72-1.43-73.46-3.35-85.12,4.87-5,3.53-8.81,11.44-8.36,13.61Zm11.27-458.5h0s0,.01,0,.02c0,0,0-.01,0-.02Z"/><path class="cls-2" d="m400.64,169.03c-14.16,0-30.95-2.54-42.62-4.3-4.33-.66-7.76-1.17-9.91-1.38-10.87-1.07-39.21-10.42-40.41-10.82l2.2-6.65c.29.1,28.8,9.5,38.9,10.5,2.33.23,5.83.76,10.27,1.43,13.25,2,33.29,5.03,47.73,4.03,24.23-1.69,45.41-3.46,59.21-8.16,10.38-3.53,39.78-20.41,40.08-20.58l3.49,6.07c-1.23.71-30.29,17.39-41.31,21.14-14.6,4.96-36.25,6.79-60.98,8.51-2.12.15-4.35.21-6.65.21Z"/></g><g><path class="cls-2" d="m243.74,569.82c-.46,0-.91-.02-1.36-.05-10.35-.71-15.67-1.33-23.33-7.47-9.14-7.33-6.53-16.43-4-25.23,2.93-10.19,12.15-15.32,18.25-18.72.59-.33,1.15-.64,1.67-.94,5.61-3.21,16.48-5.33,30.16-1.64h0c5.1,1.38,9.73,8.69,10.6,10.14l.21.4c1.77,4.04,2.73,12.54,1.27,17.03-3.69,11.35-7.87,14.45-11.92,17.45-8.16,6.05-15.22,9.01-21.55,9.01Zm7.29-48.99c-5.66,0-10.02,1.2-12.58,2.67-.55.31-1.13.64-1.74.98-5.4,3-12.8,7.12-14.93,14.54-2.99,10.39-3.13,13.99,1.65,17.83,6,4.81,9.44,5.26,19.43,5.95,4.95.35,10.91-2.15,18.26-7.6,3.59-2.67,6.43-4.77,9.43-14,.78-2.39.25-8.91-.94-11.86-1.81-2.93-4.79-6.38-6.3-6.79h0c-4.53-1.22-8.67-1.71-12.28-1.71Z"/><path class="cls-2" d="m277.4,479.72c-2.58,0-5.35-.43-8.28-1.48-12.41-4.44-13.47-12.56-14.59-21.16l-.19-1.44c-1.25-9.35,3.86-18.9,7.6-23.04,5.35-5.92,10.09-8.67,22.68-8.25,10.27.34,15.74,9.5,16.39,10.68,2.52,4.13,5.63,13.29,4.84,18.42-.75,4.85-4.89,15.75-10.11,19.33-3.83,2.62-10.15,6.95-18.33,6.95Zm4.6-48.42c-8.55,0-11.13,1.85-14.87,5.99-2.96,3.28-6.73,10.85-5.85,17.42l.19,1.46c1.08,8.31,1.63,12.48,10.01,15.48,8.88,3.17,15.74-1.53,20.28-4.64,2.84-1.94,6.54-10.55,7.17-14.65.46-2.93-1.9-10.46-3.92-13.75l-.11-.18c-.03-.05-3.85-6.88-10.52-7.1h0c-.84-.03-1.63-.04-2.38-.04Z"/><path class="cls-2" d="m162.43,496.04c-8.85,0-20.19-3.07-25.49-11.95-5.96-9.99-5.61-14.77-1.45-25,2.45-6.01,11.68-14.63,17.51-17.46,5.11-2.48,16.79-4.86,22.74-2.78,7.77,2.71,16.23,11.25,16.59,11.61l.33.38c1.06,1.42,4.52,6.44,4.64,11.48.02.92.06,1.79.09,2.63.28,6.45.51,12.02-7.05,19.22-3.51,3.34-13.08,11.19-26.11,11.82-.59.03-1.19.04-1.8.04Zm7.67-51c-4.39,0-10.81,1.32-14.03,2.88-4.83,2.35-12.47,9.83-14.09,13.8-3.47,8.52-3.74,10.87.97,18.78,4.36,7.3,15.21,8.79,20.94,8.5,10.68-.52,18.68-7.1,21.62-9.9,5.26-5.01,5.14-7.97,4.89-13.86-.04-.89-.08-1.81-.1-2.78-.05-2.44-1.93-5.64-3.12-7.28-2.28-2.28-8.7-7.99-13.73-9.74h0c-.82-.29-1.98-.41-3.34-.41Z"/><path class="cls-2" d="m166.75,494.74c-.71,0-1.42-.04-2.13-.11-11.19-1.19-20.03-2.14-25.3-12.45-5.14-10.06-6.67-19.15,2.62-30.83,8.62-10.84,18.9-15.1,31.46-13.02,17.09,2.82,22.76,18.81,22.99,19.49l.07.21c3.62,13.24-2.28,22-6.12,26.04-4.42,4.65-14.33,10.66-23.58,10.66Zm.77-49.91c-7.78,0-14.25,3.53-20.1,10.88-6.34,7.98-6.8,13.63-1.86,23.28,3.4,6.66,8.53,7.47,19.81,8.67,7.06.75,16.08-4.4,19.89-8.41,3.44-3.62,7-9.89,4.48-19.25-.45-1.21-5-12.71-17.48-14.77h0c-1.63-.27-3.21-.41-4.74-.41Z"/><path class="cls-2" d="m40.2,437.1l-2.61-4.15,1.5-1.95,35.53-44.89,1.21-1.84,2.25.44c7.19,1.16,19.18,2.54,22.93,1.59,5.55-1.4,15.58-10.18,17.04-14.91.92-2.98-2.96-13.89-7.08-22.33l-1.56-2.82,2.72-1.72,116.54-83.61,1.18-1.25,2,.5c1.46.35,36.82,9.04,67.74,36.38,35.69,31.57,45.4,65.63,46.12,68.32l.45,1.34-1.45,2.68-1.46.38-109.77,29.83-2.44.81-1.51-2.23c-3.35-5.05-13.82-18.67-22.03-21.1-13.51-3.99-20.38-2.5-28.27,6.13-3.27,3.58-7.46,17.45-9.47,25.91l-.56,2.37-2.29.29-126.7,25.83Zm38.75-45.17l-28.44,35.93,112.96-23.03c1.63-6.42,5.87-21.7,10.58-26.84,9.75-10.66,19.35-12.86,35.42-8.12,10.18,3,20.58,16.43,24.44,21.85l104.01-28.26c-3.21-9.26-14.5-36.48-42.97-61.66-26.09-23.08-56.24-32.46-63.25-34.42l-113.2,81.22c2.96,6.43,8.08,18.93,6.25,24.87-2.15,6.99-14.08,17.63-22.01,19.64-5.35,1.35-18.26-.34-23.79-1.16Z"/><path class="cls-2" d="m48.92,599.95l2.71-68.82,4.36,1.36c.16.05,16.63,4.95,27.01-5.73,3.41-3.5,4.84-7.67,4.26-12.39-.71-5.79-4.32-10.89-6.65-12.34-11.7-7.28-28.27-4.37-28.44-4.34l-3.32.61-.73-3.3c-.4-1.82-9.78-44.81-9.78-59.09h7c0,11.39,6.75,44.15,8.94,54.45,6.13-.59,19.38-.89,30.02,5.72,4.08,2.54,8.93,9.51,9.9,17.44.83,6.83-1.31,13.09-6.19,18.12-9.77,10.06-22.97,9.6-29.74,8.5l-2.06,52.1,258.98-23.8c3.79-20.24,28.26-153.29,24.66-200.18l6.98-.54c3.96,51.49-24.05,198.39-25.25,204.62l-.5,2.58-272.18,25.01Z"/></g></svg>