<?xml version="1.0" encoding="UTF-8"?><svg id="Layer_1" xmlns="http://www.w3.org/2000/svg" width="391.35" height="432.09" viewBox="0 0 391.35 432.09"><defs><style>.cls-1{fill:#13429a;}</style></defs><g><path class="cls-1" d="m299.17,176.1c-8.72,0-25.27-2.27-33.29-5.18-1.16-.42-28.4-10.39-37.45-20.34-10.98-12.08-17.65-24-19.28-34.47-1.91-12.24,1.37-47.63,1.51-49.13l.33-3.52,39.29,4.11h.01c5.41,0,20.27-1.92,29.19-3.07,2.96-.38,5.46-.71,7.12-.9,3.67-.43,9.87-2.92,15.86-5.34,6.22-2.51,12.1-4.88,16.59-5.64,8.14-1.39,24.07.36,32.84,1.52,4.46.59,17.41,2.53,17.96,2.61l2.74.41.23,2.76c.15,1.81,3.69,44.39.17,58.85-2.12,8.69-10.13,24.99-16.46,31.63-5.62,5.9-19.33,15.84-27.31,19.05-6.62,2.66-21.47,6.57-29.65,6.64-.13,0-.27,0-.41,0Zm-81.84-104.94c-.78,9.34-2.69,34.63-1.25,43.88,1.42,9.11,7.49,19.77,17.54,30.84,5.86,6.45,23.93,14.57,34.65,18.47,7.05,2.56,22.96,4.76,30.9,4.76.12,0,.23,0,.35,0,6.51-.06,20.34-3.42,27.1-6.14,7.1-2.85,19.81-12.1,24.85-17.39,5.39-5.65,12.87-20.83,14.73-28.46,2.77-11.38.6-44.12-.13-53.85-4.17-.62-11.92-1.76-15.08-2.18-14.26-1.89-25.47-2.46-30.75-1.56-3.75.64-9.54,2.97-15.15,5.23-6.71,2.71-13.06,5.26-17.67,5.8-1.64.19-4.11.51-7.03.89-10.25,1.32-24.23,3.13-30.1,3.13-.08,0-.15,0-.22,0l-.34-.02-32.41-3.39Z"/><path class="cls-1" d="m345.98,430.59c-22.97,0-50.04-.71-76.55-1.41-25.7-.68-49.97-1.31-69.95-1.31-3.28,0-5.77-1.67-6.66-4.47-1.89-5.97,4.54-15.79,9.79-19.49,12.54-8.84,60.63-6.63,75.42-5.72l.43-201.32c-12.31-6.77-66.69-37.4-74.77-54.45-12.39-26.14-12.84-75.63-1.14-126.08.5-2.15,1.42-3.54,13.43-5.18,2.2-.38,36.38-6.26,50.35-7.8,15.8-1.74,47.13-2.11,62.74-1.71,11.7.31,36.69.93,36.69.93.1,0,3.65.04,7.27.22,6.26.31,10.39.51,10.54,4.4.35,9.12,1.07,19.33,1.83,30.14,2.75,39,5.86,83.2-5.71,108.17-8.38,18.09-58.82,43.96-69.68,49.37v203.2c14.58-1.32,60.67-4.65,72.25,4.62,5.59,4.47,9,14.68,7.01,21-1.11,3.55-3.8,5.72-7.39,5.97-9.82.67-22.13.93-35.91.93Zm-146.54-9.72h.04c20.06,0,44.38.64,70.13,1.32,42.26,1.11,85.96,2.26,111.81.5.46-.03.86-.06,1.18-1.08,1.11-3.54-1.44-10.83-4.71-13.44-8.13-6.51-47.87-5.14-71.02-2.75l-3.86.4v-215.3l1.97-.96c16.72-8.11,61.58-32.37,68.35-46.99,10.82-23.34,7.77-66.58,5.08-104.74-.69-9.86-1.35-19.22-1.73-27.77-2.59-.25-7.16-.44-11.05-.48-.05,0-25.04-.62-36.75-.93-15.42-.41-46.3-.04-61.79,1.67-13.92,1.54-49.62,7.69-49.98,7.75l-.13.02c-2.82.38-6.22.98-7.99,1.45-10.99,48.44-10.62,95.36,1.01,119.89,6.46,13.62,55.33,42.37,73.62,52.3l1.83,1-.46,212.98-3.75-.27c-25.02-1.82-65.54-2.2-74.63,4.21-3.98,2.81-7.18,9.04-7.2,11.24Z"/><path class="cls-1" d="m285.93,40.7c-12.49,0-27.28-2.24-37.56-3.79-3.66-.55-6.82-1.03-8.7-1.22-9.61-.95-34.59-9.19-35.65-9.54l2.2-6.65c.25.08,25.29,8.35,34.13,9.22,2.06.2,5.15.67,9.06,1.26,11.64,1.76,29.24,4.42,41.9,3.54,21.29-1.48,39.9-3.04,51.99-7.15,9.1-3.09,34.93-17.92,35.19-18.07l3.49,6.07c-1.09.62-26.69,15.32-36.42,18.63-12.89,4.38-31.97,6-53.76,7.51-1.88.13-3.85.19-5.88.19Z"/></g><g><path class="cls-1" d="m152.96,391.47c-.37,0-.73-.01-1.09-.04-7.63-.59-11.89-1.15-17.73-6.43-6.93-6.27-4.99-13.87-3.11-21.23,2.2-8.62,9.11-12.95,13.68-15.82.42-.27.83-.52,1.21-.77,4.32-2.79,12.65-4.64,23.05-1.48h0c4.01,1.22,7.37,7.02,8.3,8.77l.18.38c1.31,3.38,2.02,10.48.94,14.24-2.55,8.84-5.31,11.66-8.93,14.69-6.17,5.16-11.58,7.68-16.5,7.68Zm5.32-40.44c-3.87,0-6.83.91-8.56,2.03-.4.26-.83.53-1.29.81-4.06,2.55-9.11,5.71-10.62,11.62-2.12,8.29-2.25,11.35,1.03,14.31,4.16,3.76,6.41,4.09,13.57,4.64,3.24.26,7.47-1.78,12.55-6.03,2.64-2.21,4.54-3.8,6.7-11.26.56-1.93.18-7.17-.67-9.58-1.29-2.33-3.23-4.81-4.08-5.18-3.2-.97-6.11-1.36-8.64-1.36Z"/><path class="cls-1" d="m177.65,317.12c-2.03,0-4.22-.38-6.55-1.32-9.54-3.84-10.33-10.7-11.18-17.96l-.14-1.19c-.93-7.81,2.88-15.82,5.67-19.3,4.04-5.04,7.83-7.53,17.48-7.17h0c8.09.3,12.31,8.19,12.85,9.27,1.91,3.53,4.18,11.04,3.58,15.39-.47,3.43-3.34,12.99-7.65,16.31-2.93,2.26-7.74,5.98-14.07,5.98Zm3.39-39.98c-6.16,0-7.7,1.56-10.12,4.58-2.12,2.64-4.82,8.76-4.18,14.09l.14,1.21c.79,6.86,1.16,9.99,6.84,12.27,5.42,2.18,9.58-.5,13.71-3.69,1.8-1.39,4.52-8.18,5.01-11.73.33-2.37-1.37-8.48-2.83-11.15l-.09-.18s-2.6-5.23-6.84-5.39h0c-.58-.02-1.12-.03-1.63-.03Z"/><path class="cls-1" d="m93.43,330.57c-6.79,0-15.5-2.65-19.55-10.32-4.42-8.36-4.17-12.35-1.08-20.89,1.84-5.08,8.78-12.37,13.18-14.78,3.45-1.89,12.54-4.36,17.64-2.36h0c5.82,2.28,11.85,9.07,12.52,9.83l.29.39c.79,1.19,3.38,5.42,3.47,9.67.02.76.04,1.48.07,2.17.2,5.17.38,10.06-5.31,16.17-2.65,2.85-9.89,9.52-19.84,10.07-.45.02-.92.04-1.39.04Zm5.64-42.09c-2.87,0-7.41.97-9.74,2.24-3.34,1.83-8.83,7.9-9.96,11.02-2.5,6.92-2.7,8.84.69,15.24,2.98,5.64,10.44,6.77,14.37,6.56,7.62-.42,13.49-6.12,15.1-7.85,3.71-3.98,3.62-6.37,3.43-11.13-.03-.73-.06-1.49-.07-2.29-.04-1.92-1.34-4.45-2.19-5.77-1.66-1.85-6.18-6.39-9.65-7.75h0c-.46-.18-1.15-.26-1.99-.26Z"/><path class="cls-1" d="m96.65,329.5c-.59,0-1.17-.03-1.76-.1-8.18-.98-15.24-1.83-19.28-10.74-3.81-8.4-4.93-16.01,1.97-25.79,6.55-9.28,14.44-12.92,24.11-11.12h0c13.09,2.44,17.36,16.02,17.53,16.6l.05.19c2.68,11.06-1.73,18.42-4.6,21.82-3.14,3.72-10.55,9.15-18.03,9.15Zm.47-41.2c-5.34,0-9.7,2.74-13.82,8.59-4.55,6.45-4.87,11.03-1.31,18.87,2.32,5.12,5.68,5.72,13.74,6.69,4.69.57,11.02-3.55,13.6-6.61,2-2.38,5.07-7.55,3.17-15.53-.3-.9-3.63-10.1-12.09-11.68h0c-1.14-.21-2.23-.32-3.29-.32Z"/><path class="cls-1" d="m3.62,282.04l-2.72-3.96,1.36-2,25.97-36.98,1.15-2.13,2.52.53c6.28,1.15,14.05,1.96,16.23,1.34,3.77-1.07,10.88-8.14,11.88-11.81.65-2.37-2.16-11.37-5.19-18.29l-.07-.17-.96-2.55,2.13-1.49,85.31-68.99,1.32-1.41,2.08.62c1.01.27,27.21,7.55,49.99,30.26,26.71,26.63,33.66,55.51,33.94,56.73l.76,3.29-3.21.88-80.35,24.61-2.77.95-1.38-2.56c-3.51-5.93-10.53-15.29-15.59-16.98-9.43-3.14-13.99-2.02-19.49,4.76-2.34,2.89-5.43,14.52-6.83,21.18l-.04.18-.62,2.34-2.2.23L3.62,282.04Zm29.19-37.28l-19.58,27.89,80.12-18.41c1.24-5.49,4.29-17.69,7.76-21.96,7.37-9.08,14.97-11.04,27.14-7,7.43,2.47,14.75,12.72,18,17.77l74.64-22.86c-2.43-7.9-10.56-29.65-31.2-50.22-18.27-18.22-39.31-26.02-45.3-27.97l-82.11,66.4c2.2,5.39,5.84,15.52,4.49,20.47-1.62,5.93-10.68,14.98-16.71,16.7-3.94,1.12-12.56-.04-17.24-.81Z"/><path class="cls-1" d="m9.36,416.43l2.05-58.51,4.49,1.58c.45.15,11.44,3.8,18.57-4.46,2.46-2.85,3.46-6.27,2.97-10.18-.6-4.86-3.31-8.67-4.56-9.55-8.16-5.72-19.8-3.43-19.92-3.41l-3.46.71-.68-3.47c-.29-1.51-7.16-37.01-7.16-48.81h7c0,9.15,4.71,35.1,6.42,44.24,4.98-.42,14.26-.3,21.82,5,3.1,2.17,6.67,7.82,7.49,14.42.73,5.87-.87,11.27-4.62,15.61-6.97,8.08-16.23,8.29-21.68,7.51l-1.45,41.51,187.8-19.45c3.03-18.24,20.58-126.34,17.97-164.66l6.98-.48c2.9,42.52-17.61,163.79-18.49,168.93l-.45,2.62-201.1,20.83Z"/></g></svg>